<svg id="svg8" xmlns="http://www.w3.org/2000/svg" viewBox="0 0 482.0173 61.3663"><defs><style>.cls-1{fill:none;stroke:#000;stroke-miterlimit:11.3386;stroke-width:1.4173px;}</style></defs><rect id="rect3719" class="cls-1" x="0.7086" y="0.7086" width="480.6" height="28.3"/><path d="M8.6087,21.7086v-12.9h4.9a13.3954,13.3954,0,0,1,2,.1,4.4189,4.4189,0,0,1,1.6.6,2.94,2.94,0,0,1,1,1.2,4.1307,4.1307,0,0,1-.7,4.5c-.7.8-2,1.1-3.8,1.1h-3.3v5.2h-1.7Zm1.7-6.7h3.3a3.1024,3.1024,0,0,0,2.3-.6,2.1934,2.1934,0,0,0,.7-1.7,2.2958,2.2958,0,0,0-.4-1.4,2.2579,2.2579,0,0,0-1.1-.8,8.6032,8.6032,0,0,0-1.6-.1h-3.3v4.6Z" transform="translate(0.0001 0.0001)"/><path d="M20.6087,21.7086v-12.9h5.7a10.8977,10.8977,0,0,1,2.6.3,2.7579,2.7579,0,0,1,1.4,1.2,3.3943,3.3943,0,0,1,.5,1.9,3.1679,3.1679,0,0,1-.9,2.3,4.74,4.74,0,0,1-2.7,1.2,8.8062,8.8062,0,0,1,1,.6,11.5143,11.5143,0,0,1,1.4,1.7l2.2,3.5h-2.1l-1.7-2.7q-.75-1.2-1.2-1.8a3.8185,3.8185,0,0,0-.9-.9,1.1354,1.1354,0,0,0-.8-.3c-.3,0-.6-.1-.9-.1h-2v5.7h-1.6Zm1.7-7.2h3.7a11.0278,11.0278,0,0,0,1.8-.2,1.5889,1.5889,0,0,0,1-.8,2.1325,2.1325,0,0,0,.3-1.2,1.7993,1.7993,0,0,0-.7-1.5,3.0674,3.0674,0,0,0-2.1-.6h-4.1v4.3Z" transform="translate(0.0001 0.0001)"/><path d="M33.6087,21.7086v-12.9h9.3v1.5h-7.6v3.9h7.2v1.5h-7.1v4.4h7.9v1.5Z" transform="translate(0.0001 0.0001)"/><path d="M44.2087,21.7086l4.9-12.9h1.8l5.3,12.9h-1.9l-1.5-3.9h-5.4l-1.4,3.9Zm3.7-5.3h4.4l-1.3-3.6q-.6-1.65-.9-2.7a23.3535,23.3535,0,0,1-.7,2.5Z" transform="translate(0.0001 0.0001)"/><path d="M57.6087,21.7086v-12.9h2.6l3.1,9.1a18.333,18.333,0,0,1,.6,1.9c.1-.5.4-1.2.7-2.1l3.1-9h2.3v12.9h-1.6v-10.7l-3.9,10.8h-1.5l-3.7-11v11Z" transform="translate(0.0001 0.0001)"/><path d="M72.5087,21.7086v-12.9h4.8a6.7214,6.7214,0,0,1,2.4.4,2.7579,2.7579,0,0,1,1.4,1.2,3.371,3.371,0,0,1,.5,1.7,4.1918,4.1918,0,0,1-.4,1.6,3.3245,3.3245,0,0,1-1.4,1.2,3.5973,3.5973,0,0,1,1.8,1.2,3.379,3.379,0,0,1,.6,2,3.2867,3.2867,0,0,1-.4,1.7,2.73,2.73,0,0,1-.9,1.2,3.5061,3.5061,0,0,1-1.4.6,7.4876,7.4876,0,0,1-2.1.2h-4.9Zm1.7-7.4h2.8a8.6032,8.6032,0,0,0,1.6-.1,2.075,2.075,0,0,0,1-.6,2.1667,2.1667,0,0,0,0-2.2,1.5956,1.5956,0,0,0-.9-.7,12.3028,12.3028,0,0,0-2-.2h-2.6v3.8Zm0,5.9h3.2a4.8643,4.8643,0,0,0,1.2-.1,4.1778,4.1778,0,0,0,1-.4,2.3375,2.3375,0,0,0,.7-.7,2.016,2.016,0,0,0,.3-1.1,2.2,2.2,0,0,0-.4-1.3,1.4455,1.4455,0,0,0-1-.7,5.8455,5.8455,0,0,0-1.9-.2h-3Z" transform="translate(0.0001 0.0001)"/><path d="M84.5087,21.7086v-12.9h1.7v11.4h6.3v1.5Z" transform="translate(0.0001 0.0001)"/><path d="M94.7087,21.7086v-12.9h9.3v1.5h-7.6v3.9h7.1v1.5h-7.1v4.4h7.9v1.5Z" transform="translate(0.0001 0.0001)"/><path id="path3733" class="cls-1" d="M112.4087.7086v28.3" transform="translate(0.0001 0.0001)"/><path d="M121.0087,17.6086l1.6-.1a3.0216,3.0216,0,0,0,.5,1.6,2.5594,2.5594,0,0,0,1.3,1,4.4777,4.4777,0,0,0,2,.4,4.6718,4.6718,0,0,0,1.7-.3,2.8365,2.8365,0,0,0,1.1-.8,2.0972,2.0972,0,0,0,.4-1.1,1.5039,1.5039,0,0,0-.4-1.1,2.5494,2.5494,0,0,0-1.2-.8,19.4835,19.4835,0,0,0-2.3-.6,10.4382,10.4382,0,0,1-2.5-.8,4.0721,4.0721,0,0,1-1.4-1.2,2.9083,2.9083,0,0,1,.1-3.4,4.0134,4.0134,0,0,1,1.6-1.3,5.0739,5.0739,0,0,1,2.4-.4,5.3386,5.3386,0,0,1,2.5.5,3.33,3.33,0,0,1,1.7,1.4,3.6049,3.6049,0,0,1,.6,2l-1.6.1a2.43,2.43,0,0,0-.9-1.8,2.9765,2.9765,0,0,0-2.2-.6,3.2214,3.2214,0,0,0-2.3.6,1.75,1.75,0,0,0-.7,1.4,1.4328,1.4328,0,0,0,.5,1.1,6.22,6.22,0,0,0,2.6.9c1,.2,1.9.5,2.9.8a4.3087,4.3087,0,0,1,1.7,1.3,2.8993,2.8993,0,0,1,.5,1.8,3.0767,3.0767,0,0,1-.6,1.9,3.9071,3.9071,0,0,1-1.7,1.4,6.9633,6.9633,0,0,1-2.5.5,7.0958,7.0958,0,0,1-2.9-.5,4.0012,4.0012,0,0,1-1.9-1.5A5.3252,5.3252,0,0,1,121.0087,17.6086Z" transform="translate(0.0001 0.0001)"/><path d="M137.2087,21.7086v-5.5l-5-7.4h2.1l2.5,3.9a25.3036,25.3036,0,0,1,1.3,2.2c.4-.7.9-1.4,1.4-2.3l2.5-3.8h2l-5.1,7.4v5.5Z" transform="translate(0.0001 0.0001)"/><path d="M145.5087,21.7086v-12.9h1.7l6.8,10.1v-10.1h1.6v12.9h-1.7l-6.7-10.1v10.1Z" transform="translate(0.0001 0.0001)"/><path d="M167.7087,17.2086l1.7.4a5.5456,5.5456,0,0,1-1.9,3.2,5.3273,5.3273,0,0,1-3.4,1.1,5.7283,5.7283,0,0,1-3.4-.8,5.456,5.456,0,0,1-2-2.5,8.4256,8.4256,0,0,1-.7-3.5,7.19,7.19,0,0,1,.8-3.5,4.91,4.91,0,0,1,2.2-2.3,6.8061,6.8061,0,0,1,3.1-.8,5.5813,5.5813,0,0,1,3.3,1,5.258,5.258,0,0,1,1.8,2.8l-1.7.4a3.8946,3.8946,0,0,0-1.3-2,3.223,3.223,0,0,0-2.1-.6,4.2956,4.2956,0,0,0-2.5.7,3.3065,3.3065,0,0,0-1.4,1.9,6.9042,6.9042,0,0,0-.4,2.5,7.0991,7.0991,0,0,0,.5,2.9,3.3534,3.3534,0,0,0,1.5,1.8,4.2825,4.2825,0,0,0,2.2.6,3.5627,3.5627,0,0,0,3.7-3.3Z" transform="translate(0.0001 0.0001)"/><path d="M176.5087,21.7086v-12.9h4.8a6.7214,6.7214,0,0,1,2.4.4,2.7579,2.7579,0,0,1,1.4,1.2,3.371,3.371,0,0,1,.5,1.7,4.1937,4.1937,0,0,1-.4,1.6,3.3245,3.3245,0,0,1-1.4,1.2,3.5973,3.5973,0,0,1,1.8,1.2,3.379,3.379,0,0,1,.6,2,3.2867,3.2867,0,0,1-.4,1.7,2.729,2.729,0,0,1-.9,1.2,3.5055,3.5055,0,0,1-1.4.6,7.4872,7.4872,0,0,1-2.1.2Zm1.7-7.4h2.8a8.6026,8.6026,0,0,0,1.6-.1,2.075,2.075,0,0,0,1-.6,2.1667,2.1667,0,0,0,0-2.2,1.5956,1.5956,0,0,0-.9-.7,12.3028,12.3028,0,0,0-2-.2h-2.6Zm0,5.9h3.2a4.8643,4.8643,0,0,0,1.2-.1,4.1778,4.1778,0,0,0,1-.4,1.3438,1.3438,0,0,0,.6-.7,2.016,2.016,0,0,0,.3-1.1,2.2,2.2,0,0,0-.4-1.3,1.4455,1.4455,0,0,0-1-.7,5.8455,5.8455,0,0,0-1.9-.2h-3Z" transform="translate(0.0001 0.0001)"/><path d="M197.0087,8.8086h1.7v7.4a11.0008,11.0008,0,0,1-.4,3.1,4.2135,4.2135,0,0,1-1.6,1.9,5.3246,5.3246,0,0,1-3,.7,8.0264,8.0264,0,0,1-3-.6,3.5288,3.5288,0,0,1-1.6-1.8,8.5925,8.5925,0,0,1-.5-3.2v-7.4h1.7v7.4a10.678,10.678,0,0,0,.3,2.5,2.163,2.163,0,0,0,1.1,1.2,3.1278,3.1278,0,0,0,1.9.4,3.4372,3.4372,0,0,0,2.7-.9,5.42,5.42,0,0,0,.8-3.3Z" transform="translate(0.0001 0.0001)"/><path d="M201.6087,21.7086v-12.9h5.7a10.8977,10.8977,0,0,1,2.6.3,2.7579,2.7579,0,0,1,1.4,1.2,3.3943,3.3943,0,0,1,.5,1.9,3.1679,3.1679,0,0,1-.9,2.3,4.74,4.74,0,0,1-2.7,1.2,8.8062,8.8062,0,0,1,1,.6,11.508,11.508,0,0,1,1.4,1.7l2.2,3.5h-2.1l-1.7-2.7q-.75-1.2-1.2-1.8a3.8185,3.8185,0,0,0-.9-.9,1.1354,1.1354,0,0,0-.8-.3c-.3,0-.6-.1-.9-.1h-2v5.7h-1.6Zm1.7-7.2h3.7a11.0278,11.0278,0,0,0,1.8-.2,1.5889,1.5889,0,0,0,1-.8,2.1317,2.1317,0,0,0,.3-1.2,1.7993,1.7993,0,0,0-.7-1.5,3.0674,3.0674,0,0,0-2.1-.6h-4.1Z" transform="translate(0.0001 0.0001)"/><path d="M214.0087,17.6086l1.6-.1a3.0216,3.0216,0,0,0,.5,1.6,2.5594,2.5594,0,0,0,1.3,1,4.4777,4.4777,0,0,0,2,.4,4.6718,4.6718,0,0,0,1.7-.3,2.8365,2.8365,0,0,0,1.1-.8,2.0972,2.0972,0,0,0,.4-1.1,1.5039,1.5039,0,0,0-.4-1.1,2.5494,2.5494,0,0,0-1.2-.8,19.4835,19.4835,0,0,0-2.3-.6,10.4382,10.4382,0,0,1-2.5-.8,4.0721,4.0721,0,0,1-1.4-1.2,2.9083,2.9083,0,0,1,.1-3.4,4.0134,4.0134,0,0,1,1.6-1.3,5.0739,5.0739,0,0,1,2.4-.4,5.3386,5.3386,0,0,1,2.5.5,3.33,3.33,0,0,1,1.7,1.4,3.6049,3.6049,0,0,1,.6,2l-1.6.1a2.43,2.43,0,0,0-.9-1.8,2.9765,2.9765,0,0,0-2.2-.6,3.2214,3.2214,0,0,0-2.3.6,1.75,1.75,0,0,0-.7,1.4,1.4328,1.4328,0,0,0,.5,1.1,6.22,6.22,0,0,0,2.6.9c1,.2,1.9.5,2.9.8a4.3087,4.3087,0,0,1,1.7,1.3,2.8993,2.8993,0,0,1,.5,1.8,3.0767,3.0767,0,0,1-.6,1.9,3.9071,3.9071,0,0,1-1.7,1.4,6.9633,6.9633,0,0,1-2.5.5,7.0958,7.0958,0,0,1-2.9-.5,4.0012,4.0012,0,0,1-1.9-1.5A5.3252,5.3252,0,0,1,214.0087,17.6086Z" transform="translate(0.0001 0.0001)"/><path d="M229.8087,21.7086v-11.3h-4.2v-1.5h10.2v1.5h-4.3v11.4h-1.7Z" transform="translate(0.0001 0.0001)"/><path d="M298.6087,21.9086v-12.8h4.4a8.954,8.954,0,0,1,2.3.2,4.7521,4.7521,0,0,1,1.9.9,4.825,4.825,0,0,1,1.5,2.2,8.0788,8.0788,0,0,1,.5,3.1,10.8977,10.8977,0,0,1-.3,2.6,6.6333,6.6333,0,0,1-.9,1.9,3.4471,3.4471,0,0,1-1.2,1.2,4.7153,4.7153,0,0,1-1.5.6,7.4879,7.4879,0,0,1-2.1.2Zm1.7-1.5h2.8a13.5538,13.5538,0,0,0,2-.2,3.7456,3.7456,0,0,0,1.2-.7,3.6739,3.6739,0,0,0,.9-1.6,6.8774,6.8774,0,0,0,.3-2.5,5.4664,5.4664,0,0,0-.7-3.1,3.3183,3.3183,0,0,0-1.6-1.5,8.3323,8.3323,0,0,0-2.2-.3h-2.7Z" transform="translate(0.0001 0.0001)"/><path d="M310.2087,21.9086l4.9-12.9h1.8l5.3,12.9h-1.9l-1.5-3.9h-5.4l-1.4,3.9Zm3.7-5.2h4.4l-1.3-3.6q-.6-1.65-.9-2.7a23.3535,23.3535,0,0,1-.7,2.5Z" transform="translate(0.0001 0.0001)"/><path d="M325.6087,21.9086v-11.3h-4.2v-1.5h10.1v1.5h-4.3v11.4h-1.6Z" transform="translate(0.0001 0.0001)"/><path d="M330.5087,21.9086l4.9-12.9h1.8l5.3,12.9h-1.9l-1.5-3.9h-5.4l-1.4,3.9Zm3.7-5.2h4.4l-1.3-3.6q-.6-1.65-.9-2.7a23.3535,23.3535,0,0,1-.7,2.5Z" transform="translate(0.0001 0.0001)"/><path id="path3733-4-5" class="cls-1" d="M243.3087.7086v28.3" transform="translate(0.0001 0.0001)"/><path d="M422.4087,21.7086v-12.9h9.3v1.5h-7.6v3.9h7.1v1.5h-7.1v4.4h7.9v1.5Z" transform="translate(0.0001 0.0001)"/><path d="M433.8087,15.5086a7.0928,7.0928,0,0,1,1.7-5,5.8133,5.8133,0,0,1,4.4-1.8,6.2035,6.2035,0,0,1,3.2.9,6.3579,6.3579,0,0,1,2.2,2.4,8.056,8.056,0,0,1,0,7,5.4378,5.4378,0,0,1-2.2,2.3,6.8061,6.8061,0,0,1-3.1.8,6.5565,6.5565,0,0,1-3.3-.9,6.3579,6.3579,0,0,1-2.2-2.4A9.7647,9.7647,0,0,1,433.8087,15.5086Zm1.8,0a5.1106,5.1106,0,0,0,1.3,3.7,4.406,4.406,0,0,0,6.2.1l.1-.1a5.2661,5.2661,0,0,0,1.2-3.8,8.08,8.08,0,0,0-.5-2.7,3.9732,3.9732,0,0,0-1.6-1.8,3.7949,3.7949,0,0,0-2.3-.6,4.302,4.302,0,0,0-3.1,1.2c-.9.7-1.3,2-1.3,4Z" transform="translate(0.0001 0.0001)"/><path d="M451.6087,21.7086v-11.3h-4.2v-1.5h10.2v1.5h-4.3v11.4h-1.7Z" transform="translate(0.0001 0.0001)"/><path id="path3733-4-5-1-3" class="cls-1" d="M396.0087.7086v28.3" transform="translate(0.0001 0.0001)"/><path d="M165.9087,44.2432h-1.1v-6.7a3.5911,3.5911,0,0,1-1,.7,5.3581,5.3581,0,0,1-1.1.5v-1a5.6046,5.6046,0,0,0,1.5-1,3.1263,3.1263,0,0,0,.9-1.1h.7Z" transform="translate(0.0001 0.0001)"/><path d="M174.0087,37.7432l-1,.1a3.5523,3.5523,0,0,0-.4-.9,1.4769,1.4769,0,0,0-2-.2,2.2588,2.2588,0,0,0-.8,1.1,6.4482,6.4482,0,0,0-.3,2,2.582,2.582,0,0,1,.9-.9,2.6626,2.6626,0,0,1,1.2-.3,2.5769,2.5769,0,0,1,2.5089,2.6432q-.0021.0786-.0089.1568a4.012,4.012,0,0,1-.3,1.5,2.5907,2.5907,0,0,1-1,1.1,3.254,3.254,0,0,1-1.4.4,2.512,2.512,0,0,1-2.1-1,5.1206,5.1206,0,0,1-.8-3.2,5.5641,5.5641,0,0,1,.9-3.6,2.5745,2.5745,0,0,1,2.2-1,2.2484,2.2484,0,0,1,2.3991,2.0867l.0009.0133Zm-4.3,3.7a2.9575,2.9575,0,0,0,.2,1,2.4062,2.4062,0,0,0,.6.8,1.6123,1.6123,0,0,0,.9.3,1.4326,1.4326,0,0,0,1.1-.5,2.4564,2.4564,0,0,0,.5-1.5,1.8717,1.8717,0,0,0-.5-1.4,1.69,1.69,0,0,0-2.39-.01l-.01.01A2.8364,2.8364,0,0,0,169.7087,41.4432Z" transform="translate(0.0001 0.0001)"/><path d="M179.8087,44.2432h-1v-8.6h1.1v3.1a2.1364,2.1364,0,0,1,1.7-.8,4.2569,4.2569,0,0,1,1.1.2,1.7793,1.7793,0,0,1,.8.7,3.1267,3.1267,0,0,1,.5,1,5.0659,5.0659,0,0,1,.2,1.3,3.2924,3.2924,0,0,1-.8,2.5,2.4624,2.4624,0,0,1-1.9.9,1.8523,1.8523,0,0,1-1.7-.9Zm0-3.1a4.1448,4.1448,0,0,0,.3,1.6,1.4886,1.4886,0,0,0,2,.6,2.1822,2.1822,0,0,0,.5-.4,2.3824,2.3824,0,0,0,.5-1.8,2.3825,2.3825,0,0,0-.5-1.8,1.5,1.5,0,0,0-2.4,0A4.7772,4.7772,0,0,0,179.8087,41.1432Z" transform="translate(0.0001 0.0001)"/><path d="M185.5087,36.8432v-1.2h1.1v1.2Zm0,7.4v-6.2h1.1v6.2Z" transform="translate(0.0001 0.0001)"/><path d="M190.5087,43.3432l.2.9a2.2013,2.2013,0,0,1-.8.1,1.4856,1.4856,0,0,1-.9-.2.6644.6644,0,0,1-.4-.5,2.4626,2.4626,0,0,1-.1-1.2v-3.6h-.8v-.8h.8v-1.5l1-.6v2.2h1.1v.8h-1.1v3.6a1.2686,1.2686,0,0,0,.1.6.2151.2151,0,0,0,.2.2c.1.1.2.1.4.1C190.2087,43.3432,190.3087,43.3432,190.5087,43.3432Z" transform="translate(0.0001 0.0001)"/><path d="M191.1087,42.4432l1-.2a1.3886,1.3886,0,0,0,.5,1,1.4313,1.4313,0,0,0,1.1.3,2.0149,2.0149,0,0,0,1.1-.3,1.6111,1.6111,0,0,0,.4-.7.8643.8643,0,0,0-.3-.6,3.5849,3.5849,0,0,0-1.1-.4,9.8209,9.8209,0,0,1-1.6-.5,1.5083,1.5083,0,0,1-.9-1.4,2.3558,2.3558,0,0,1,.2-.8,2.6512,2.6512,0,0,1,.5-.6,4.878,4.878,0,0,1,.7-.3,2.7709,2.7709,0,0,1,.9-.1,5.8517,5.8517,0,0,1,1.3.2,1.5555,1.5555,0,0,1,.8.6,2.9952,2.9952,0,0,1,.4,1l-1,.1a1.2345,1.2345,0,0,0-.4-.8,1.69,1.69,0,0,0-1-.3,2.96,2.96,0,0,0-1,.2.7834.7834,0,0,0-.2,1,1.3789,1.3789,0,0,0,.4.3,4.18,4.18,0,0,1,.9.3,9.8307,9.8307,0,0,1,1.6.5,1.3451,1.3451,0,0,1,.7.6,1.6134,1.6134,0,0,1,.3.9,1.689,1.689,0,0,1-.3,1,1.5956,1.5956,0,0,1-.9.7,3.0792,3.0792,0,0,1-1.3.3,2.73,2.73,0,0,1-1.8-.5A2.1506,2.1506,0,0,1,191.1087,42.4432Z" transform="translate(0.0001 0.0001)"/><path d="M152.3087,61.2432a13.4975,13.4975,0,0,1-1.5-2.6,8.59,8.59,0,0,1-.2-5.7,10.8071,10.8071,0,0,1,1.6-3h.8a9.7252,9.7252,0,0,0-.9,1.7c-.2.5-.4,1.1-.6,1.7a8.3323,8.3323,0,0,0-.3,2.2,9.3552,9.3552,0,0,0,1.8,5.6Z" transform="translate(0.0001 0.0001)"/><path d="M155.6087,54.0432a2.285,2.285,0,0,1-1-.7,2.0158,2.0158,0,0,1-.3-1.1,1.99,1.99,0,0,1,.7-1.6,2.7368,2.7368,0,0,1,3.6,0,2.36,2.36,0,0,1,.7,1.6,1.689,1.689,0,0,1-.3,1,1.8337,1.8337,0,0,1-1,.7,1.991,1.991,0,0,1,1.2.8,2.296,2.296,0,0,1,.4,1.4,2.7315,2.7315,0,0,1-.8,1.9,3.1767,3.1767,0,0,1-4.1,0,2.7315,2.7315,0,0,1-.8-1.9,2.296,2.296,0,0,1,.4-1.4A3.294,3.294,0,0,1,155.6087,54.0432Zm-.6,2.1a2.92,2.92,0,0,0,.2.9c.1.3.4.5.6.7a1.4856,1.4856,0,0,0,.9.2,1.6558,1.6558,0,0,0,1.2-.5,1.8454,1.8454,0,0,0,.5-1.2,2.106,2.106,0,0,0-.5-1.3,1.9012,1.9012,0,0,0-1.3-.5,1.7371,1.7371,0,0,0-1.6,1.7Zm.4-3.9a1.4144,1.4144,0,0,0,2.4,1,1.086,1.086,0,0,0,.4-.9,1.2841,1.2841,0,0,0-.4-1,1.5208,1.5208,0,0,0-2,0A.9749.9749,0,0,0,155.4087,52.2432Z" transform="translate(0.0001 0.0001)"/><path d="M163.9087,56.8432l1-.2a1.3886,1.3886,0,0,0,.5,1,1.4309,1.4309,0,0,0,1.1.3,2.0149,2.0149,0,0,0,1.1-.3,1.6111,1.6111,0,0,0,.4-.7.8643.8643,0,0,0-.3-.6,3.5858,3.5858,0,0,0-1.1-.4,9.8209,9.8209,0,0,1-1.6-.5,1.5083,1.5083,0,0,1-.9-1.4,2.3535,2.3535,0,0,1,.2-.8,2.6533,2.6533,0,0,1,.5-.6,4.8732,4.8732,0,0,1,.7-.3,2.7709,2.7709,0,0,1,.9-.1,5.8535,5.8535,0,0,1,1.3.2,1.5559,1.5559,0,0,1,.8.6,2.9952,2.9952,0,0,1,.4,1l-1,.1a1.235,1.235,0,0,0-.4-.8,1.69,1.69,0,0,0-1-.3,2.96,2.96,0,0,0-1,.2.7834.7834,0,0,0-.2,1,1.3793,1.3793,0,0,0,.4.3,4.1817,4.1817,0,0,1,.9.3,9.8307,9.8307,0,0,1,1.6.5,1.3451,1.3451,0,0,1,.7.6,1.6134,1.6134,0,0,1,.3.9,1.689,1.689,0,0,1-.3,1,1.596,1.596,0,0,1-.9.7,3.08,3.08,0,0,1-1.3.3,2.73,2.73,0,0,1-1.8-.5A1.6811,1.6811,0,0,1,163.9087,56.8432Z" transform="translate(0.0001 0.0001)"/><path d="M170.2087,61.0432l-.1-1a1.8491,1.8491,0,0,0,1.2,0c.1-.1.3-.2.3-.3.1-.3.2-.5.3-.8,0-.1.1-.1.1-.3l-2.4-6.2h1.1l1.3,3.6c.2.5.3.9.5,1.4.1-.5.3-1,.4-1.4l1.3-3.6h1.1l-2.4,6.3c-.2.5-.4,1-.6,1.4a2.4062,2.4062,0,0,1-.6.8,1.02,1.02,0,0,1-.9.2A1.4853,1.4853,0,0,1,170.2087,61.0432Z" transform="translate(0.0001 0.0001)"/><path d="M176.3087,58.6432v-6.2h.9v.9a1.7793,1.7793,0,0,1,.8-.7,2.1667,2.1667,0,0,1,2.2,0,1.5559,1.5559,0,0,1,.6.8,2.144,2.144,0,0,1,1.9-1.1,2.39,2.39,0,0,1,1.4.5,2.203,2.203,0,0,1,.5,1.6v4.3h-1v-3.9a2.7685,2.7685,0,0,0-.1-.9.7815.7815,0,0,0-.4-.4,1.4232,1.4232,0,0,0-.6-.2,1.5041,1.5041,0,0,0-1.1.4,1.792,1.792,0,0,0-.4,1.4v3.6h-1.1v-4a2.28,2.28,0,0,0-.3-1.1,1.235,1.235,0,0,0-.8-.4,1.8845,1.8845,0,0,0-.8.2,1.1571,1.1571,0,0,0-.5.7,5.8535,5.8535,0,0,0-.2,1.3v3.2Z" transform="translate(0.0001 0.0001)"/><path d="M187.2087,58.6432h-1v-8.6h1.1v3.1a2.1364,2.1364,0,0,1,1.7-.8,4.2534,4.2534,0,0,1,1.1.2,1.7793,1.7793,0,0,1,.8.7,3.1267,3.1267,0,0,1,.5,1,5.0652,5.0652,0,0,1,.2,1.3,3.2924,3.2924,0,0,1-.8,2.5,2.4624,2.4624,0,0,1-1.9.9,1.8523,1.8523,0,0,1-1.7-.9v.6Zm0-3.1a4.1448,4.1448,0,0,0,.3,1.6,1.4886,1.4886,0,0,0,2,.6,2.1822,2.1822,0,0,0,.5-.4,3.49,3.49,0,0,0,0-3.6,1.5,1.5,0,0,0-2.4,0A4.7757,4.7757,0,0,0,187.2087,55.5432Z" transform="translate(0.0001 0.0001)"/><path d="M192.6087,55.5432a3.188,3.188,0,0,1,1-2.6,2.7242,2.7242,0,0,1,2-.7,3.2276,3.2276,0,0,1,2.1.8,2.8556,2.8556,0,0,1,.8,2.3,4.3321,4.3321,0,0,1-.4,1.9,2.6592,2.6592,0,0,1-1,1.1,2.8208,2.8208,0,0,1-1.5.4,3.0367,3.0367,0,0,1-2.1-.8A2.7237,2.7237,0,0,1,192.6087,55.5432Zm1,0a2.9,2.9,0,0,0,.5,1.8,1.7272,1.7272,0,0,0,2.4.2l.2-.2a2.3824,2.3824,0,0,0,.5-1.8,2.6181,2.6181,0,0,0-.5-1.7,1.8434,1.8434,0,0,0-2.5-.2l-.2.2A4.2569,4.2569,0,0,0,193.6087,55.5432Z" transform="translate(0.0001 0.0001)"/><path d="M199.6087,58.6432v-8.6h1.1v8.6Z" transform="translate(0.0001 0.0001)"/><path d="M201.9087,56.8432l1-.2a1.3886,1.3886,0,0,0,.5,1,1.4309,1.4309,0,0,0,1.1.3,2.0149,2.0149,0,0,0,1.1-.3,1.6111,1.6111,0,0,0,.4-.7.8643.8643,0,0,0-.3-.6,3.5858,3.5858,0,0,0-1.1-.4,9.8209,9.8209,0,0,1-1.6-.5,1.5083,1.5083,0,0,1-.9-1.4,2.3535,2.3535,0,0,1,.2-.8,2.6533,2.6533,0,0,1,.5-.6,4.8732,4.8732,0,0,1,.7-.3,2.7709,2.7709,0,0,1,.9-.1,5.8535,5.8535,0,0,1,1.3.2,1.5559,1.5559,0,0,1,.8.6,2.9952,2.9952,0,0,1,.4,1l-1,.1a1.235,1.235,0,0,0-.4-.8,1.69,1.69,0,0,0-1-.3,2.96,2.96,0,0,0-1,.2.7834.7834,0,0,0-.2,1,1.3793,1.3793,0,0,0,.4.3,4.1817,4.1817,0,0,1,.9.3,9.8307,9.8307,0,0,1,1.6.5,1.3451,1.3451,0,0,1,.7.6,1.6134,1.6134,0,0,1,.3.9,1.689,1.689,0,0,1-.3,1,1.596,1.596,0,0,1-.9.7,3.08,3.08,0,0,1-1.3.3,2.73,2.73,0,0,1-1.8-.5A1.6811,1.6811,0,0,1,201.9087,56.8432Z" transform="translate(0.0001 0.0001)"/><path d="M209.0087,61.2432h-.8a11.2444,11.2444,0,0,0,1.8-5.6,8.3323,8.3323,0,0,0-.3-2.2,5.7758,5.7758,0,0,0-.6-1.7l-.9-1.8h.8a10.8071,10.8071,0,0,1,1.6,3,7.498,7.498,0,0,1-.2,5.7A9.3871,9.3871,0,0,1,209.0087,61.2432Z" transform="translate(0.0001 0.0001)"/><path d="M274.8525,44.3471v-8.59h1.7109l2.0332,6.082q.2814.85.41,1.2715.1467-.4686.4571-1.3769l2.0566-5.9766H283.05v8.59h-1.0957v-7.19l-2.4961,7.19h-1.0254l-2.4837-7.3127v7.3125Z" transform="translate(0.0001 0.0001)"/><path d="M288.8271,44.3471V43.433a2.2775,2.2775,0,0,1-1.9746,1.0547,2.5147,2.5147,0,0,1-1.0284-.211,1.6929,1.6929,0,0,1-.709-.53,1.987,1.987,0,0,1-.3252-.7823,5.3518,5.3518,0,0,1-.0644-.9843V38.1244H285.78v3.4512a6.1617,6.1617,0,0,0,.0643,1.1133,1.1,1.1,0,0,0,.422.6533,1.3069,1.3069,0,0,0,.7969.2373,1.736,1.736,0,0,0,.8906-.2432,1.3516,1.3516,0,0,0,.5888-.6621,3.32,3.32,0,0,0,.1728-1.2158v-3.334H289.77v6.2227Z" transform="translate(0.0001 0.0001)"/><path d="M291.3993,44.3471v-8.59h1.0547v8.59Z" transform="translate(0.0001 0.0001)"/><path d="M296.3915,43.4037l.1524.9316a3.9134,3.9134,0,0,1-.7969.0938,1.8032,1.8032,0,0,1-.8906-.1817,1.0165,1.0165,0,0,1-.4454-.4775,3.7773,3.7773,0,0,1-.1289-1.2451v-3.58h-.7734v-.82h.7734v-1.541l1.0489-.6328v2.1738h1.06v.82h-1.06v3.639a1.84,1.84,0,0,0,.0556.58.4384.4384,0,0,0,.1817.205.7013.7013,0,0,0,.36.0762A3.4236,3.4236,0,0,0,296.3915,43.4037Z" transform="translate(0.0001 0.0001)"/><path d="M297.4287,36.97V35.7572h1.0547V36.97Zm0,7.377V38.1244h1.0547v6.2227Z" transform="translate(0.0001 0.0001)"/><path d="M300.0887,46.7318V38.1244h.9609v.8086a2.3676,2.3676,0,0,1,.7676-.7119,2.11,2.11,0,0,1,1.0371-.2373,2.46,2.46,0,0,1,1.4063.41,2.518,2.518,0,0,1,.92,1.1573,4.2233,4.2233,0,0,1,.31,1.6377,4.1575,4.1575,0,0,1-.3428,1.72,2.5839,2.5839,0,0,1-.996,1.1719,2.5577,2.5577,0,0,1-1.3741.4072,1.9836,1.9836,0,0,1-.9463-.2227,2.1534,2.1534,0,0,1-.6884-.5625V46.732Zm.9551-5.4609a2.7068,2.7068,0,0,0,.4863,1.7754,1.491,1.491,0,0,0,1.1777.5742,1.5243,1.5243,0,0,0,1.2041-.5947,2.8214,2.8214,0,0,0,.501-1.8428,2.7494,2.7494,0,0,0-.4893-1.7813,1.473,1.473,0,0,0-1.1689-.5918,1.519,1.519,0,0,0-1.1924.63,2.8182,2.8182,0,0,0-.5184,1.831Z" transform="translate(0.0001 0.0001)"/><path d="M306.7392,44.3471v-8.59h1.0547v8.59Z" transform="translate(0.0001 0.0001)"/><path d="M313.6887,42.3432l1.09.1347a2.6585,2.6585,0,0,1-.955,1.4824,3.2354,3.2354,0,0,1-3.9463-.3134,3.2858,3.2858,0,0,1-.8-2.3584,3.4386,3.4386,0,0,1,.8086-2.4375,2.7368,2.7368,0,0,1,2.0976-.8672,2.66,2.66,0,0,1,2.0391.85,3.3762,3.3762,0,0,1,.791,2.3906q0,.0939-.0059.2813h-4.6406a2.3911,2.3911,0,0,0,.58,1.57,1.7258,1.7258,0,0,0,1.3008.5449,1.6137,1.6137,0,0,0,.99-.3047A2.0223,2.0223,0,0,0,313.6887,42.3432Zm-3.4629-1.7051H313.7a2.1093,2.1093,0,0,0-.3984-1.1778,1.6169,1.6169,0,0,0-1.3067-.6093,1.6757,1.6757,0,0,0-1.2217.4863,1.9253,1.9253,0,0,0-.5481,1.3008Z" transform="translate(0.0001 0.0001)"/><path d="M315.6806,42.49l1.0429-.164a1.4579,1.4579,0,0,0,.4893.9609,1.705,1.705,0,0,0,1.1221.334,1.6481,1.6481,0,0,0,1.0781-.2959.8851.8851,0,0,0,.3516-.6943.6406.6406,0,0,0-.3106-.5625,4.5734,4.5734,0,0,0-1.0781-.3575,9.8323,9.8323,0,0,1-1.6084-.5068,1.535,1.535,0,0,1-.9111-1.4268,1.6019,1.6019,0,0,1,.19-.77,1.7073,1.7073,0,0,1,.5185-.5888,2.172,2.172,0,0,1,.6709-.3076,3.191,3.191,0,0,1,.9112-.126,3.6022,3.6022,0,0,1,1.2861.2109,1.75,1.75,0,0,1,.8174.5713,2.2324,2.2324,0,0,1,.3633.9639l-1.0313.1406a1.1283,1.1283,0,0,0-.4072-.75,1.4906,1.4906,0,0,0-.9522-.27,1.7239,1.7239,0,0,0-1.0371.24.7.7,0,0,0-.31.5625.5822.5822,0,0,0,.1289.3691.93.93,0,0,0,.4043.2813q.1583.0588.9316.27a12.9776,12.9776,0,0,1,1.5616.4893,1.584,1.584,0,0,1,.6943.5537,1.5455,1.5455,0,0,1,.2519.9023,1.77,1.77,0,0,1-.3076.9932,1.9875,1.9875,0,0,1-.8877.7207,3.23,3.23,0,0,1-1.3125.2549,2.923,2.923,0,0,1-1.8486-.5039A2.3439,2.3439,0,0,1,315.6806,42.49Z" transform="translate(0.0001 0.0001)"/><path d="M325.0439,41.2357a3.2076,3.2076,0,0,1,.9609-2.56,2.8953,2.8953,0,0,1,1.957-.6914,2.7919,2.7919,0,0,1,2.0977.8408,3.1991,3.1991,0,0,1,.8144,2.3232,4.1175,4.1175,0,0,1-.36,1.89,2.5515,2.5515,0,0,1-1.0488,1.0693,3.0529,3.0529,0,0,1-1.503.3809,2.7966,2.7966,0,0,1-2.1123-.8379A3.3465,3.3465,0,0,1,325.0439,41.2357Zm1.0839,0a2.65,2.65,0,0,0,.5215,1.79,1.7364,1.7364,0,0,0,2.6192-.003,2.7131,2.7131,0,0,0,.5214-1.8222,2.5714,2.5714,0,0,0-.5244-1.7491,1.739,1.739,0,0,0-2.6162-.0029,2.6391,2.6391,0,0,0-.5215,1.7872Z" transform="translate(0.0001 0.0001)"/><path d="M332.3622,44.3471V38.9444h-.9316v-.82h.9316v-.6621a2.9018,2.9018,0,0,1,.1113-.9317,1.3482,1.3482,0,0,1,.5362-.665,1.9323,1.9323,0,0,1,1.0752-.2549,5.1679,5.1679,0,0,1,.9843.1055l-.1582.92a3.5555,3.5555,0,0,0-.6211-.0586.9245.9245,0,0,0-.68.2051,1.1119,1.1119,0,0,0-.1993.7676v.5741h1.2129v.82h-1.2129v5.4024Z" transform="translate(0.0001 0.0001)"/><path d="M344.0287,43.3334v1.0137H338.351a1.8657,1.8657,0,0,1,.123-.7325,3.8756,3.8756,0,0,1,.6944-1.1425,10.8772,10.8772,0,0,1,1.38-1.3008,11.6958,11.6958,0,0,0,1.8925-1.8194,2.1772,2.1772,0,0,0,.4921-1.2685,1.4092,1.4092,0,0,0-.4482-1.0576,1.6172,1.6172,0,0,0-1.169-.4307,1.6473,1.6473,0,0,0-1.2187.457,1.73,1.73,0,0,0-.4629,1.2657l-1.084-.1114a2.6684,2.6684,0,0,1,.8379-1.8486,2.8587,2.8587,0,0,1,1.9512-.6357,2.7227,2.7227,0,0,1,1.957.6855,2.25,2.25,0,0,1,.7207,1.6992,2.5761,2.5761,0,0,1-.2109,1.0137,3.9332,3.9332,0,0,1-.7,1.0488,17.0419,17.0419,0,0,1-1.626,1.5117q-.9492.797-1.2187,1.0811a3.4714,3.4714,0,0,0-.4454.5713Z" transform="translate(0.0001 0.0001)"/><path d="M349.7587,44.3471H348.78v-8.59h1.0547v3.0645a2.0868,2.0868,0,0,1,1.705-.8379,2.6128,2.6128,0,0,1,1.087.2314,2.2209,2.2209,0,0,1,.8437.65,3.146,3.146,0,0,1,.5186,1.0108,4.167,4.167,0,0,1,.1875,1.2656,3.5544,3.5544,0,0,1-.791,2.4726,2.4743,2.4743,0,0,1-1.8985.8731,1.9816,1.9816,0,0,1-1.7285-.92Zm-.0117-3.1582a3.229,3.229,0,0,0,.3047,1.6171,1.5073,1.5073,0,0,0,2.5429.2139,2.7283,2.7283,0,0,0,.5039-1.79,2.7765,2.7765,0,0,0-.4834-1.7989,1.4723,1.4723,0,0,0-1.1689-.58,1.517,1.517,0,0,0-1.1953.6005A2.6366,2.6366,0,0,0,349.747,41.1889Z" transform="translate(0.0001 0.0001)"/><path d="M355.4657,36.97V35.7572H356.52V36.97Zm0,7.377V38.1244H356.52v6.2227Z" transform="translate(0.0001 0.0001)"/><path d="M360.4287,43.4037l.1524.9316a3.9134,3.9134,0,0,1-.7969.0938,1.8032,1.8032,0,0,1-.8906-.1817,1.0158,1.0158,0,0,1-.4453-.4775,3.7744,3.7744,0,0,1-.129-1.2451v-3.58h-.7734v-.82h.7734v-1.541l1.0489-.6328v2.1738h1.06v.82h-1.06v3.639a1.84,1.84,0,0,0,.0556.58.4384.4384,0,0,0,.1817.205.7013.7013,0,0,0,.36.0762A3.4236,3.4236,0,0,0,360.4287,43.4037Z" transform="translate(0.0001 0.0001)"/><path d="M361.038,42.49l1.043-.164a1.4573,1.4573,0,0,0,.4892.9609,1.705,1.705,0,0,0,1.1221.334,1.6481,1.6481,0,0,0,1.0781-.2959.8851.8851,0,0,0,.3516-.6943.64.64,0,0,0-.3106-.5625,4.5734,4.5734,0,0,0-1.0781-.3575,9.8323,9.8323,0,0,1-1.6084-.5068,1.535,1.535,0,0,1-.9111-1.4268,1.603,1.603,0,0,1,.19-.77,1.7076,1.7076,0,0,1,.5186-.5888,2.172,2.172,0,0,1,.6709-.3076,3.1908,3.1908,0,0,1,.9111-.126,3.6026,3.6026,0,0,1,1.2861.2109,1.75,1.75,0,0,1,.8174.5713,2.2324,2.2324,0,0,1,.3633.9639l-1.0313.1406a1.1281,1.1281,0,0,0-.4072-.75,1.49,1.49,0,0,0-.9521-.27,1.7239,1.7239,0,0,0-1.0371.24.7.7,0,0,0-.3106.5625.5822.5822,0,0,0,.1289.3691.93.93,0,0,0,.4043.2813q.1583.0588.9317.27a12.9761,12.9761,0,0,1,1.5615.4893,1.584,1.584,0,0,1,.6943.5537,1.5456,1.5456,0,0,1,.252.9023,1.7713,1.7713,0,0,1-.3077.9932,1.9873,1.9873,0,0,1-.8876.7207,3.2315,3.2315,0,0,1-1.3125.2549,2.9233,2.9233,0,0,1-1.8487-.5039A2.3433,2.3433,0,0,1,361.038,42.49Z" transform="translate(0.0001 0.0001)"/><path d="M263.0687,61.2728a10.5406,10.5406,0,0,1-1.477-2.5784,8.0911,8.0911,0,0,1-.1523-5.73,11.2316,11.2316,0,0,1,1.6289-2.9531h.7558q-.7089,1.2189-.9375,1.74a9.4986,9.4986,0,0,0-.5625,1.6875,9.8062,9.8062,0,0,0-.2519,2.2031,10.5742,10.5742,0,0,0,1.7519,5.6308Z" transform="translate(0.0001 0.0001)"/><path d="M265.1487,58.7474v-8.59h1.711l2.0332,6.082q.2813.85.41,1.2715.1465-.4686.4571-1.3769l2.0566-5.9766h1.5293v8.59H272.25V51.558l-2.4961,7.1894h-1.0254l-2.4843-7.3125v7.3125Z" transform="translate(0.0001 0.0001)"/><path d="M279.123,58.7474v-.914a2.2777,2.2777,0,0,1-1.9747,1.0547,2.5143,2.5143,0,0,1-1.0283-.211,1.6941,1.6941,0,0,1-.709-.53,1.9864,1.9864,0,0,1-.3252-.7823,5.3605,5.3605,0,0,1-.0644-.9843V52.5244h1.0547v3.4512a6.151,6.151,0,0,0,.0644,1.1132,1.1,1.1,0,0,0,.4219.6534,1.3069,1.3069,0,0,0,.7969.2373,1.7357,1.7357,0,0,0,.8906-.2432,1.3521,1.3521,0,0,0,.5888-.6619,3.3243,3.3243,0,0,0,.1728-1.2158V52.5244h1.0547v6.223Z" transform="translate(0.0001 0.0001)"/><path d="M281.6952,58.7474v-8.59H282.75v8.59Z" transform="translate(0.0001 0.0001)"/><path d="M286.6874,57.8044l.1524.9316a3.9064,3.9064,0,0,1-.7969.0938,1.8032,1.8032,0,0,1-.8906-.1817,1.0174,1.0174,0,0,1-.4454-.4775,3.777,3.777,0,0,1-.1289-1.2451v-3.58h-.7734v-.82h.7734v-1.541l1.0489-.6328v2.1727h1.06v.82h-1.06v3.6387a1.84,1.84,0,0,0,.0556.58.4384.4384,0,0,0,.1817.205.7013.7013,0,0,0,.36.0762A3.4223,3.4223,0,0,0,286.6874,57.8044Z" transform="translate(0.0001 0.0001)"/><path d="M287.7245,51.3705V50.1576h1.0547v1.2129Zm0,7.3769v-6.223h1.0547v6.223Z" transform="translate(0.0001 0.0001)"/><path d="M290.3847,61.1322V52.5244h.9609v.8086a2.37,2.37,0,0,1,.7676-.7119,2.11,2.11,0,0,1,1.0371-.2373,2.46,2.46,0,0,1,1.4063.41,2.5185,2.5185,0,0,1,.92,1.1572,4.2274,4.2274,0,0,1,.31,1.6377,4.1591,4.1591,0,0,1-.3428,1.72,2.5833,2.5833,0,0,1-.9961,1.1718,2.5567,2.5567,0,0,1-1.3741.4073,1.9836,1.9836,0,0,1-.9463-.2227,2.1517,2.1517,0,0,1-.6883-.5625v3.0293Zm.9551-5.4609a2.7068,2.7068,0,0,0,.4863,1.7754,1.491,1.491,0,0,0,1.1777.5742,1.5249,1.5249,0,0,0,1.2041-.5947,2.8214,2.8214,0,0,0,.501-1.8428,2.7488,2.7488,0,0,0-.4893-1.7813,1.473,1.473,0,0,0-1.1689-.5918,1.5192,1.5192,0,0,0-1.1924.63,2.8182,2.8182,0,0,0-.5185,1.831Z" transform="translate(0.0001 0.0001)"/><path d="M297.0351,58.7474v-8.59H298.09v8.59Z" transform="translate(0.0001 0.0001)"/><path d="M303.9843,56.7435l1.09.1348a2.6585,2.6585,0,0,1-.955,1.4824,3.2354,3.2354,0,0,1-3.9463-.3134,3.2858,3.2858,0,0,1-.8-2.3584,3.4386,3.4386,0,0,1,.8086-2.4375,2.7368,2.7368,0,0,1,2.0976-.8672,2.66,2.66,0,0,1,2.0391.85,3.3762,3.3762,0,0,1,.791,2.3906q0,.0939-.0059.2812h-4.6406a2.3916,2.3916,0,0,0,.58,1.57,1.7267,1.7267,0,0,0,1.3008.5449,1.6137,1.6137,0,0,0,.99-.3047A2.0223,2.0223,0,0,0,303.9843,56.7435Zm-3.4629-1.705h3.4746a2.1085,2.1085,0,0,0-.3984-1.1778,1.6169,1.6169,0,0,0-1.3067-.6093,1.6757,1.6757,0,0,0-1.2217.4863A1.925,1.925,0,0,0,300.5214,55.0385Z" transform="translate(0.0001 0.0001)"/><path d="M305.9765,56.89l1.0429-.164a1.4579,1.4579,0,0,0,.4893.9609,1.705,1.705,0,0,0,1.1221.334,1.6481,1.6481,0,0,0,1.0781-.2959.8846.8846,0,0,0,.3516-.6944.6409.6409,0,0,0-.3106-.5624,4.5734,4.5734,0,0,0-1.0781-.3575,9.8226,9.8226,0,0,1-1.6084-.5068,1.535,1.535,0,0,1-.9111-1.4268,1.6019,1.6019,0,0,1,.19-.77,1.7073,1.7073,0,0,1,.5185-.5888,2.1746,2.1746,0,0,1,.6709-.3077,3.1944,3.1944,0,0,1,.9112-.1259,3.6022,3.6022,0,0,1,1.2861.2109,1.75,1.75,0,0,1,.8174.5713,2.2324,2.2324,0,0,1,.3633.9639l-1.0313.1406a1.1283,1.1283,0,0,0-.4072-.75,1.4906,1.4906,0,0,0-.9522-.27,1.7239,1.7239,0,0,0-1.0371.24.7.7,0,0,0-.31.5625.5822.5822,0,0,0,.1289.3691.93.93,0,0,0,.4043.2813q.1583.0585.9316.2695a12.9776,12.9776,0,0,1,1.5616.4893,1.584,1.584,0,0,1,.6943.5537,1.5457,1.5457,0,0,1,.2519.9023,1.77,1.77,0,0,1-.3076.9932,1.9875,1.9875,0,0,1-.8877.7207,3.23,3.23,0,0,1-1.3125.2549,2.923,2.923,0,0,1-1.8486-.5039A2.3434,2.3434,0,0,1,305.9765,56.89Z" transform="translate(0.0001 0.0001)"/><path d="M315.34,55.6361a3.2073,3.2073,0,0,1,.9609-2.56,2.8953,2.8953,0,0,1,1.957-.6914,2.7919,2.7919,0,0,1,2.0977.8408,3.1991,3.1991,0,0,1,.8144,2.3232,4.1175,4.1175,0,0,1-.36,1.89,2.5515,2.5515,0,0,1-1.0488,1.0693,3.0529,3.0529,0,0,1-1.503.3809,2.797,2.797,0,0,1-2.1123-.8379A3.3469,3.3469,0,0,1,315.34,55.6361Zm1.0839,0a2.65,2.65,0,0,0,.5215,1.79,1.7364,1.7364,0,0,0,2.6192-.003,2.713,2.713,0,0,0,.5214-1.8222,2.5714,2.5714,0,0,0-.5244-1.7491,1.739,1.739,0,0,0-2.6162-.0029,2.6386,2.6386,0,0,0-.5215,1.7872Z" transform="translate(0.0001 0.0001)"/><path d="M322.6581,58.7474V53.3451h-.9316v-.82h.9316V51.863a2.9018,2.9018,0,0,1,.1113-.9317,1.3487,1.3487,0,0,1,.5362-.665,1.9323,1.9323,0,0,1,1.0752-.2549,5.1679,5.1679,0,0,1,.9843.1055l-.1582.92a3.5354,3.5354,0,0,0-.6211-.0586.9245.9245,0,0,0-.68.2051,1.1114,1.1114,0,0,0-.1993.7676v.5734h1.2129v.82h-1.2129v5.403Z" transform="translate(0.0001 0.0001)"/><path d="M332.7538,58.7474h-1.0551V52.0267a5.4455,5.4455,0,0,1-.999.7266,7.0744,7.0744,0,0,1-1.11.5449v-1.02a6.3673,6.3673,0,0,0,1.5468-1.0078,3.9619,3.9619,0,0,0,.9375-1.1485h.68Z" transform="translate(0.0001 0.0001)"/><path d="M338.66,56.89l1.0429-.164a1.4579,1.4579,0,0,0,.4893.9609,1.705,1.705,0,0,0,1.1221.334,1.6481,1.6481,0,0,0,1.0781-.2959.8846.8846,0,0,0,.3516-.6944.6409.6409,0,0,0-.3106-.5624,4.5734,4.5734,0,0,0-1.0781-.3575,9.8226,9.8226,0,0,1-1.6084-.5068,1.5353,1.5353,0,0,1-.9112-1.4268,1.6023,1.6023,0,0,1,.19-.77,1.7073,1.7073,0,0,1,.5185-.5888,2.1746,2.1746,0,0,1,.6709-.3077,3.1944,3.1944,0,0,1,.9112-.1259,3.6026,3.6026,0,0,1,1.2861.2109,1.75,1.75,0,0,1,.8174.5713,2.2324,2.2324,0,0,1,.3633.9639l-1.0313.1406a1.1283,1.1283,0,0,0-.4072-.75,1.4906,1.4906,0,0,0-.9522-.27,1.7239,1.7239,0,0,0-1.0371.24.7.7,0,0,0-.31.5625.5812.5812,0,0,0,.1289.3691.93.93,0,0,0,.4043.2813q.1583.0585.9316.2695a12.9761,12.9761,0,0,1,1.5615.4893,1.5843,1.5843,0,0,1,.6944.5537,1.5457,1.5457,0,0,1,.2519.9023,1.7712,1.7712,0,0,1-.3076.9932,1.9881,1.9881,0,0,1-.8877.7207,3.23,3.23,0,0,1-1.3125.2549,2.923,2.923,0,0,1-1.8486-.5039A2.3435,2.3435,0,0,1,338.66,56.89Z" transform="translate(0.0001 0.0001)"/><path d="M345.0351,61.1444l-.1172-.99a2.3455,2.3455,0,0,0,.6035.0937,1.158,1.158,0,0,0,.5625-.1171.9584.9584,0,0,0,.3457-.3282,5.1821,5.1821,0,0,0,.3223-.7851q.0293-.0879.0937-.2578l-2.3613-6.2355h1.1367l1.2949,3.6035q.252.6855.4512,1.4414a14.1717,14.1717,0,0,1,.4336-1.418l1.33-3.6269h1.0547l-2.3666,6.3285a12.42,12.42,0,0,1-.5918,1.4121,2.0822,2.0822,0,0,1-.6446.7647,1.5213,1.5213,0,0,1-.8671.2431A2.1066,2.1066,0,0,1,345.0351,61.1444Z" transform="translate(0.0001 0.0001)"/><path d="M351.0819,58.7474v-6.223h.9434v.873a2.2193,2.2193,0,0,1,.7793-.7353,2.19,2.19,0,0,1,1.1074-.2783,2.0474,2.0474,0,0,1,1.1338.2871,1.537,1.537,0,0,1,.624.8027,2.2338,2.2338,0,0,1,1.9219-1.09,1.8944,1.8944,0,0,1,1.4238.5127,2.1912,2.1912,0,0,1,.4981,1.5791v4.272h-1.0488v-3.92a2.8832,2.8832,0,0,0-.1026-.9111.882.882,0,0,0-.3721-.4482,1.1623,1.1623,0,0,0-.6328-.17,1.4727,1.4727,0,0,0-1.09.4366,1.9224,1.9224,0,0,0-.4336,1.3974v3.6153H354.779v-4.043a1.7791,1.7791,0,0,0-.2578-1.0547.9766.9766,0,0,0-.8438-.3516,1.5329,1.5329,0,0,0-.8232.2344,1.3294,1.3294,0,0,0-.5478.6856,3.8555,3.8555,0,0,0-.17,1.3007v3.2286Z" transform="translate(0.0001 0.0001)"/><path d="M362.0507,58.7474h-.9785v-8.59h1.0547v3.0645a2.0868,2.0868,0,0,1,1.705-.8379,2.6128,2.6128,0,0,1,1.087.2314,2.2209,2.2209,0,0,1,.8437.65,3.1445,3.1445,0,0,1,.5186,1.0107,4.1712,4.1712,0,0,1,.1875,1.2657,3.5543,3.5543,0,0,1-.7911,2.4726,2.4736,2.4736,0,0,1-1.8985.8731,1.9814,1.9814,0,0,1-1.7284-.92Zm-.0117-3.1582a3.2294,3.2294,0,0,0,.3047,1.6172,1.5073,1.5073,0,0,0,2.5429.2139,2.7283,2.7283,0,0,0,.5039-1.79,2.7765,2.7765,0,0,0-.4834-1.7989,1.4723,1.4723,0,0,0-1.1689-.58,1.517,1.517,0,0,0-1.1953.6005,2.6364,2.6364,0,0,0-.5042,1.7373Z" transform="translate(0.0001 0.0001)"/><path d="M367.3593,55.6361a3.2073,3.2073,0,0,1,.9609-2.56,2.8956,2.8956,0,0,1,1.9571-.6914,2.7918,2.7918,0,0,1,2.0976.8408,3.1986,3.1986,0,0,1,.8145,2.3232,4.1175,4.1175,0,0,1-.36,1.89,2.55,2.55,0,0,1-1.0488,1.0693,3.0536,3.0536,0,0,1-1.5029.3809,2.7973,2.7973,0,0,1-2.1124-.8379A3.3465,3.3465,0,0,1,367.3593,55.6361Zm1.084,0a2.65,2.65,0,0,0,.5215,1.79,1.7362,1.7362,0,0,0,2.6191-.003,2.7125,2.7125,0,0,0,.5215-1.8222,2.5709,2.5709,0,0,0-.5244-1.7491,1.7395,1.7395,0,0,0-2.6162-.0029A2.6386,2.6386,0,0,0,368.4433,55.6361Z" transform="translate(0.0001 0.0001)"/><path d="M374.4023,58.7474v-8.59h1.0546v8.59Z" transform="translate(0.0001 0.0001)"/><path d="M377.7831,61.2728h-.7558a10.5742,10.5742,0,0,0,1.7519-5.6308,9.63,9.63,0,0,0-.2519-2.1856,9.1931,9.1931,0,0,0-.5567-1.6875,19.7928,19.7928,0,0,0-.9433-1.7578h.7558a11.2288,11.2288,0,0,1,1.6289,2.9531,8.0712,8.0712,0,0,1-.1553,5.73A10.724,10.724,0,0,1,377.7831,61.2728Z" transform="translate(0.0001 0.0001)"/><path d="M45.2983,44.4414V42.3848H41.5718V41.418l3.92-5.5664h.8613V41.418h1.16v.9668h-1.16v2.0566Zm0-3.0234V37.5449L42.6089,41.418Z" transform="translate(0.0001 0.0001)"/><path d="M48.5913,40.2051a7.8605,7.8605,0,0,1,.3135-2.4522,3.05,3.05,0,0,1,.9316-1.4326,2.382,2.382,0,0,1,1.5557-.5039,2.5388,2.5388,0,0,1,1.2129.2783,2.32,2.32,0,0,1,.8613.8028A4.3055,4.3055,0,0,1,54,38.1748a8.487,8.487,0,0,1,.1934,2.03,7.88,7.88,0,0,1-.3106,2.44,3.0512,3.0512,0,0,1-.9287,1.4356,2.3821,2.3821,0,0,1-1.5615.5068,2.3574,2.3574,0,0,1-1.9512-.8906A5.6608,5.6608,0,0,1,48.5913,40.2051Zm1.084,0a5.3859,5.3859,0,0,0,.4951,2.8154,1.4144,1.4144,0,0,0,2.4434-.0029,5.3888,5.3888,0,0,0,.4951-2.8125,5.3854,5.3854,0,0,0-.4951-2.8184A1.47,1.47,0,0,0,51.38,36.69a1.3514,1.3514,0,0,0-1.16.6152A5.4474,5.4474,0,0,0,49.6753,40.2051Z" transform="translate(0.0001 0.0001)"/><path d="M55.5581,44.4414V38.2188h.9434v.873a2.2176,2.2176,0,0,1,.7793-.7354,2.19,2.19,0,0,1,1.1074-.2783,2.0471,2.0471,0,0,1,1.1338.2871,1.5366,1.5366,0,0,1,.624.8028,2.234,2.234,0,0,1,1.9219-1.09,1.8941,1.8941,0,0,1,1.4238.5127A2.1913,2.1913,0,0,1,63.99,40.17v4.2715H62.9409v-3.92a2.8876,2.8876,0,0,0-.1025-.9111.8827.8827,0,0,0-.3721-.4483,1.1612,1.1612,0,0,0-.6328-.17,1.4725,1.4725,0,0,0-1.09.4365,1.9224,1.9224,0,0,0-.4336,1.3975v3.6152H59.2554v-4.043a1.7791,1.7791,0,0,0-.2578-1.0546.9764.9764,0,0,0-.8438-.3516,1.5319,1.5319,0,0,0-.8232.2344,1.329,1.329,0,0,0-.5479.6855,3.8588,3.8588,0,0,0-.17,1.3008v3.2285Z" transform="translate(0.0001 0.0001)"/><path d="M65.1323,42.584l1.043-.1641a1.4579,1.4579,0,0,0,.4893.961,1.7053,1.7053,0,0,0,1.122.3339,1.648,1.648,0,0,0,1.0781-.2959.8847.8847,0,0,0,.3516-.6943.6405.6405,0,0,0-.3105-.5625,4.5763,4.5763,0,0,0-1.0782-.3574,9.8494,9.8494,0,0,1-1.6084-.5068,1.5354,1.5354,0,0,1-.9111-1.4268,1.6032,1.6032,0,0,1,.19-.77,1.7084,1.7084,0,0,1,.5186-.5889,2.1747,2.1747,0,0,1,.6709-.3076,3.19,3.19,0,0,1,.9111-.126,3.6,3.6,0,0,1,1.2862.211,1.7482,1.7482,0,0,1,.8173.5713,2.2318,2.2318,0,0,1,.3633.9638l-1.0312.1406a1.1278,1.1278,0,0,0-.4073-.75,1.49,1.49,0,0,0-.9521-.2695,1.7246,1.7246,0,0,0-1.0371.24.7.7,0,0,0-.3106.5625.5824.5824,0,0,0,.1289.3692.93.93,0,0,0,.4043.2812q.1583.0586.9317.27a12.9759,12.9759,0,0,1,1.5615.4892,1.5848,1.5848,0,0,1,.6943.5537,1.5455,1.5455,0,0,1,.252.9024,1.77,1.77,0,0,1-.3076.9931,1.988,1.988,0,0,1-.8877.7207,3.23,3.23,0,0,1-1.3125.2549,2.9238,2.9238,0,0,1-1.8487-.5039A2.3435,2.3435,0,0,1,65.1323,42.584Z" transform="translate(0.0001 0.0001)"/><path d="M21.2192,61.3662a10.5429,10.5429,0,0,1-1.4765-2.5781,8.0921,8.0921,0,0,1-.1524-5.73,11.2345,11.2345,0,0,1,1.6289-2.9531h.7559q-.7091,1.2188-.9375,1.74a9.5064,9.5064,0,0,0-.5625,1.6875,9.8,9.8,0,0,0-.252,2.2032,10.5733,10.5733,0,0,0,1.752,5.6308Z" transform="translate(0.0001 0.0001)"/><path d="M26.8794,58.8408H25.8247V52.12a5.4509,5.4509,0,0,1-.999.7266,7.0775,7.0775,0,0,1-1.11.5449V52.3721a6.371,6.371,0,0,0,1.5469-1.0078A3.9654,3.9654,0,0,0,26.2,50.2158h.68Z" transform="translate(0.0001 0.0001)"/><path d="M29.7388,56.8545l1.0136-.0938a1.7618,1.7618,0,0,0,.4922,1.0372,1.352,1.352,0,0,0,.9317.3222,1.6085,1.6085,0,0,0,.8525-.2226,1.8216,1.8216,0,0,0,.6006-.5948,3.4976,3.4976,0,0,0,.3926-1.0048,5.2987,5.2987,0,0,0,.1582-1.2891q0-.07-.0059-.2109a2.4158,2.4158,0,0,1-.8642.8173,2.3491,2.3491,0,0,1-1.1866.3135,2.4,2.4,0,0,1-1.8047-.7734,2.8309,2.8309,0,0,1-.7382-2.0391,2.8979,2.8979,0,0,1,.77-2.1035,2.5738,2.5738,0,0,1,1.9306-.7969,2.7542,2.7542,0,0,1,1.5323.4512,2.8192,2.8192,0,0,1,1.0547,1.2861,6.3352,6.3352,0,0,1,.36,2.417,7.8227,7.8227,0,0,1-.3574,2.6221,3.0709,3.0709,0,0,1-1.0635,1.4853,2.7525,2.7525,0,0,1-1.6553.51,2.2689,2.2689,0,0,1-2.414-2.1328Zm4.3183-3.791a2.0646,2.0646,0,0,0-.4834-1.4414,1.5151,1.5151,0,0,0-1.1631-.5332,1.6057,1.6057,0,0,0-1.2246.5742,2.1285,2.1285,0,0,0-.5214,1.4883,1.8386,1.8386,0,0,0,.4951,1.333,1.6309,1.6309,0,0,0,1.2216.5127,1.5636,1.5636,0,0,0,1.2041-.5127A2.0194,2.0194,0,0,0,34.0571,53.0635Z" transform="translate(0.0001 0.0001)"/><path d="M41.7974,57.8271v1.0137H36.12a1.8649,1.8649,0,0,1,.1231-.7324,3.8754,3.8754,0,0,1,.6943-1.1426,10.88,10.88,0,0,1,1.38-1.3008A11.6985,11.6985,0,0,0,40.21,53.8457a2.1787,2.1787,0,0,0,.4922-1.2686,1.41,1.41,0,0,0-.4483-1.0576,1.6168,1.6168,0,0,0-1.1689-.4306,1.6473,1.6473,0,0,0-1.2188.457,1.7293,1.7293,0,0,0-.4629,1.2656L36.3188,52.7a2.6688,2.6688,0,0,1,.8379-1.8486,2.858,2.858,0,0,1,1.9512-.6358,2.7222,2.7222,0,0,1,1.957.6856,2.25,2.25,0,0,1,.7207,1.6992,2.5781,2.5781,0,0,1-.2109,1.0137,3.9332,3.9332,0,0,1-.7,1.0488,17.0594,17.0594,0,0,1-1.626,1.5117q-.9492.797-1.2187,1.0811a3.4655,3.4655,0,0,0-.4453.5712Z" transform="translate(0.0001 0.0001)"/><path d="M46.1333,56.9834l1.043-.1641a1.4578,1.4578,0,0,0,.4892.961,1.7056,1.7056,0,0,0,1.1221.334,1.6488,1.6488,0,0,0,1.0781-.2959.8851.8851,0,0,0,.3516-.6944.64.64,0,0,0-.3106-.5625,4.5749,4.5749,0,0,0-1.0781-.3574,9.846,9.846,0,0,1-1.6084-.5068,1.535,1.535,0,0,1-.9111-1.4268,1.6032,1.6032,0,0,1,.19-.77,1.7084,1.7084,0,0,1,.5186-.5889,2.1736,2.1736,0,0,1,.6709-.3076,3.19,3.19,0,0,1,.9111-.126,3.6016,3.6016,0,0,1,1.2861.211,1.7485,1.7485,0,0,1,.8174.5713,2.2318,2.2318,0,0,1,.3633.9638l-1.0313.1407a1.1272,1.1272,0,0,0-.4072-.75,1.4894,1.4894,0,0,0-.9521-.27,1.7238,1.7238,0,0,0-1.0371.24.6991.6991,0,0,0-.3106.5625.5824.5824,0,0,0,.1289.3691.931.931,0,0,0,.4043.2813q.1582.0585.9317.27a12.9759,12.9759,0,0,1,1.5615.4892,1.5849,1.5849,0,0,1,.6943.5538,1.545,1.545,0,0,1,.252.9023,1.7715,1.7715,0,0,1-.3076.9932,1.9893,1.9893,0,0,1-.8877.7207,3.2321,3.2321,0,0,1-1.3125.2548,2.9238,2.9238,0,0,1-1.8487-.5039A2.3432,2.3432,0,0,1,46.1333,56.9834Z" transform="translate(0.0001 0.0001)"/><path d="M52.5083,61.2373l-.1172-.99a2.3506,2.3506,0,0,0,.6035.0937,1.1571,1.1571,0,0,0,.5625-.1172.9571.9571,0,0,0,.3457-.3281,5.1721,5.1721,0,0,0,.3223-.7851q.0293-.0879.0937-.2579l-2.3613-6.2343h1.1367l1.295,3.6035q.2518.6855.4511,1.4414a14.2139,14.2139,0,0,1,.4336-1.418l1.33-3.6269h1.0547l-2.3672,6.3281A12.4228,12.4228,0,0,1,54.7,60.3584a2.0821,2.0821,0,0,1-.6445.7646,1.5219,1.5219,0,0,1-.8672.2432A2.1134,2.1134,0,0,1,52.5083,61.2373Z" transform="translate(0.0001 0.0001)"/><path d="M58.5552,58.8408V52.6182h.9433v.873a2.2173,2.2173,0,0,1,.7793-.7353,2.1893,2.1893,0,0,1,1.1075-.2784,2.0468,2.0468,0,0,1,1.1337.2871,1.5367,1.5367,0,0,1,.6241.8028,2.234,2.234,0,0,1,1.9218-1.09,1.8945,1.8945,0,0,1,1.4239.5127,2.1913,2.1913,0,0,1,.498,1.5791v4.2715H65.938v-3.92a2.884,2.884,0,0,0-.1026-.9111.882.882,0,0,0-.372-.4483,1.1612,1.1612,0,0,0-.6328-.17,1.4729,1.4729,0,0,0-1.09.4365,1.923,1.923,0,0,0-.4336,1.3975v3.6152H62.2524V54.7979a1.7785,1.7785,0,0,0-.2578-1.0547.9761.9761,0,0,0-.8437-.3516,1.5325,1.5325,0,0,0-.8233.2344,1.3293,1.3293,0,0,0-.5478.6855,3.8588,3.8588,0,0,0-.17,1.3008v3.2285Z" transform="translate(0.0001 0.0001)"/><path d="M69.5239,58.8408h-.9785v-8.59H69.6v3.0644a2.0869,2.0869,0,0,1,1.7051-.8379,2.6114,2.6114,0,0,1,1.0869.2315,2.22,2.22,0,0,1,.8437.65,3.1442,3.1442,0,0,1,.5186,1.0107,4.1669,4.1669,0,0,1,.1875,1.2656,3.5549,3.5549,0,0,1-.791,2.4727,2.4743,2.4743,0,0,1-1.8985.873,1.9815,1.9815,0,0,1-1.7285-.92Zm-.0117-3.1582A3.23,3.23,0,0,0,69.8169,57.3a1.5075,1.5075,0,0,0,2.543.2139,2.73,2.73,0,0,0,.5039-1.79,2.7766,2.7766,0,0,0-.4834-1.7988,1.4723,1.4723,0,0,0-1.169-.58,1.517,1.517,0,0,0-1.1953.6006A2.6367,2.6367,0,0,0,69.5122,55.6826Z" transform="translate(0.0001 0.0001)"/><path d="M74.8325,55.73a3.2072,3.2072,0,0,1,.961-2.5606,2.8956,2.8956,0,0,1,1.957-.6914,2.7914,2.7914,0,0,1,2.0976.8409,3.1986,3.1986,0,0,1,.8145,2.3232,4.1151,4.1151,0,0,1-.36,1.89,2.5506,2.5506,0,0,1-1.0488,1.0694,3.0534,3.0534,0,0,1-1.5029.3808,2.7973,2.7973,0,0,1-2.1123-.8378A3.3469,3.3469,0,0,1,74.8325,55.73Zm1.084,0a2.65,2.65,0,0,0,.5215,1.79,1.7362,1.7362,0,0,0,2.6191-.0029,2.7131,2.7131,0,0,0,.5215-1.8223,2.571,2.571,0,0,0-.5244-1.749,1.7388,1.7388,0,0,0-2.6162-.0029A2.6382,2.6382,0,0,0,75.9165,55.73Z" transform="translate(0.0001 0.0001)"/><path d="M81.8755,58.8408v-8.59H82.93v8.59Z" transform="translate(0.0001 0.0001)"/><path d="M84.1431,56.9834l1.0429-.1641a1.4579,1.4579,0,0,0,.4893.961,1.7056,1.7056,0,0,0,1.1221.334,1.649,1.649,0,0,0,1.0781-.2959.8851.8851,0,0,0,.3516-.6944.6406.6406,0,0,0-.3106-.5625,4.5749,4.5749,0,0,0-1.0781-.3574,9.8426,9.8426,0,0,1-1.6084-.5068,1.5353,1.5353,0,0,1-.9112-1.4268,1.6022,1.6022,0,0,1,.1905-.77,1.7082,1.7082,0,0,1,.5185-.5889,2.1747,2.1747,0,0,1,.6709-.3076,3.19,3.19,0,0,1,.9112-.126,3.602,3.602,0,0,1,1.2861.211,1.749,1.749,0,0,1,.8174.5713,2.2318,2.2318,0,0,1,.3633.9638l-1.0313.1407a1.1277,1.1277,0,0,0-.4072-.75,1.49,1.49,0,0,0-.9522-.27,1.7242,1.7242,0,0,0-1.0371.24.6993.6993,0,0,0-.3105.5625.5818.5818,0,0,0,.1289.3691.93.93,0,0,0,.4043.2813q.1582.0585.9316.27a12.9759,12.9759,0,0,1,1.5615.4892,1.5846,1.5846,0,0,1,.6944.5538,1.5449,1.5449,0,0,1,.2519.9023,1.7707,1.7707,0,0,1-.3076.9932,1.9893,1.9893,0,0,1-.8877.7207,3.2314,3.2314,0,0,1-1.3125.2548,2.9233,2.9233,0,0,1-1.8486-.5039A2.3432,2.3432,0,0,1,84.1431,56.9834Z" transform="translate(0.0001 0.0001)"/><path d="M91.2563,61.3662h-.7558a10.5732,10.5732,0,0,0,1.7519-5.6308,9.6218,9.6218,0,0,0-.2519-2.1856,9.1856,9.1856,0,0,0-.5567-1.6875,19.7615,19.7615,0,0,0-.9433-1.7578h.7558a11.2321,11.2321,0,0,1,1.629,2.9531,8.0728,8.0728,0,0,1-.1553,5.73A10.7274,10.7274,0,0,1,91.2563,61.3662Z" transform="translate(0.0001 0.0001)"/><path d="M430.2852,44.4414V42.3848h-3.7266V41.418l3.92-5.5664h.8613V41.418h1.16v.9668h-1.16v2.0566Zm0-3.0234V37.5449l-2.6895,3.8731Z" transform="translate(0.0001 0.0001)"/><path d="M433.5781,40.2051a7.8605,7.8605,0,0,1,.3135-2.4522,3.05,3.05,0,0,1,.9316-1.4326,2.3822,2.3822,0,0,1,1.5557-.5039,2.5388,2.5388,0,0,1,1.2129.2783,2.3183,2.3183,0,0,1,.8613.8028,4.3055,4.3055,0,0,1,.5332,1.2773,8.487,8.487,0,0,1,.1934,2.03,7.88,7.88,0,0,1-.3106,2.44,3.0512,3.0512,0,0,1-.9287,1.4356,2.3821,2.3821,0,0,1-1.5615.5068,2.3574,2.3574,0,0,1-1.9512-.8906A5.6608,5.6608,0,0,1,433.5781,40.2051Zm1.084,0a5.3859,5.3859,0,0,0,.4951,2.8154,1.4144,1.4144,0,0,0,2.4434-.0029,5.3878,5.3878,0,0,0,.4951-2.8125,5.3844,5.3844,0,0,0-.4951-2.8184,1.47,1.47,0,0,0-1.2334-.6972,1.3514,1.3514,0,0,0-1.16.6152A5.4483,5.4483,0,0,0,434.6621,40.2051Z" transform="translate(0.0001 0.0001)"/><path d="M440.5449,44.4414V38.2188h.9434v.873a2.2185,2.2185,0,0,1,.7793-.7354,2.19,2.19,0,0,1,1.1074-.2783,2.0471,2.0471,0,0,1,1.1338.2871,1.5366,1.5366,0,0,1,.624.8028,2.234,2.234,0,0,1,1.9219-1.09,1.8941,1.8941,0,0,1,1.4238.5127,2.1913,2.1913,0,0,1,.4981,1.5791v4.2715h-1.0489v-3.92a2.8846,2.8846,0,0,0-.1025-.9111.8827.8827,0,0,0-.3721-.4483,1.1612,1.1612,0,0,0-.6328-.17,1.4725,1.4725,0,0,0-1.09.4365,1.9224,1.9224,0,0,0-.4336,1.3975v3.6152h-1.0547v-4.043a1.7791,1.7791,0,0,0-.2578-1.0546.9764.9764,0,0,0-.8438-.3516,1.5321,1.5321,0,0,0-.8232.2344,1.329,1.329,0,0,0-.5479.6855,3.8588,3.8588,0,0,0-.17,1.3008v3.2285Z" transform="translate(0.0001 0.0001)"/><path d="M450.1191,42.584l1.043-.1641a1.4579,1.4579,0,0,0,.4893.961,1.7053,1.7053,0,0,0,1.122.3339,1.6485,1.6485,0,0,0,1.0782-.2959.8849.8849,0,0,0,.3515-.6943.6405.6405,0,0,0-.31-.5625,4.5767,4.5767,0,0,0-1.0781-.3574,9.8426,9.8426,0,0,1-1.6084-.5068,1.5353,1.5353,0,0,1-.9112-1.4268,1.6022,1.6022,0,0,1,.1905-.77,1.7082,1.7082,0,0,1,.5185-.5889,2.1747,2.1747,0,0,1,.6709-.3076,3.19,3.19,0,0,1,.9111-.126,3.6,3.6,0,0,1,1.2862.211,1.749,1.749,0,0,1,.8174.5713,2.233,2.233,0,0,1,.3632.9638l-1.0312.1406a1.1281,1.1281,0,0,0-.4072-.75,1.49,1.49,0,0,0-.9522-.2695,1.7246,1.7246,0,0,0-1.0371.24.7.7,0,0,0-.31.5625.5819.5819,0,0,0,.1289.3692.93.93,0,0,0,.4043.2812q.1581.0586.9316.27a12.9759,12.9759,0,0,1,1.5615.4892,1.5857,1.5857,0,0,1,.6944.5537,1.5462,1.5462,0,0,1,.2519.9024,1.77,1.77,0,0,1-.3076.9931,1.988,1.988,0,0,1-.8877.7207,3.23,3.23,0,0,1-1.3125.2549,2.9233,2.9233,0,0,1-1.8486-.5039A2.3431,2.3431,0,0,1,450.1191,42.584Z" transform="translate(0.0001 0.0001)"/><path d="M406.2061,61.3662a10.54,10.54,0,0,1-1.4766-2.5781,8.0921,8.0921,0,0,1-.1524-5.73,11.2321,11.2321,0,0,1,1.629-2.9531h.7558q-.7089,1.2188-.9375,1.74a9.5064,9.5064,0,0,0-.5625,1.6875,9.8,9.8,0,0,0-.2519,2.2032,10.5732,10.5732,0,0,0,1.7519,5.6308Z" transform="translate(0.0001 0.0001)"/><path d="M411.8662,58.8408h-1.0547V52.12a5.4509,5.4509,0,0,1-.999.7266,7.0775,7.0775,0,0,1-1.11.5449V52.3721a6.371,6.371,0,0,0,1.5469-1.0078,3.9654,3.9654,0,0,0,.9375-1.1485h.68Z" transform="translate(0.0001 0.0001)"/><path d="M414.7256,56.8545l1.0137-.0938a1.7617,1.7617,0,0,0,.4921,1.0372,1.352,1.352,0,0,0,.9317.3222,1.6085,1.6085,0,0,0,.8525-.2226,1.82,1.82,0,0,0,.6006-.5948,3.4947,3.4947,0,0,0,.3926-1.0048,5.2938,5.2938,0,0,0,.1582-1.2891q0-.07-.0059-.2109a2.4158,2.4158,0,0,1-.8642.8173,2.349,2.349,0,0,1-1.1865.3135,2.3993,2.3993,0,0,1-1.8047-.7734,2.83,2.83,0,0,1-.7383-2.0391,2.8979,2.8979,0,0,1,.77-2.1035,2.5741,2.5741,0,0,1,1.9307-.7969,2.7541,2.7541,0,0,1,1.5322.4512,2.8192,2.8192,0,0,1,1.0547,1.2861,6.3352,6.3352,0,0,1,.36,2.417,7.8227,7.8227,0,0,1-.3574,2.6221,3.0709,3.0709,0,0,1-1.0635,1.4853,2.7523,2.7523,0,0,1-1.6553.51,2.2691,2.2691,0,0,1-2.414-2.1328Zm4.3183-3.791a2.0646,2.0646,0,0,0-.4834-1.4414,1.515,1.515,0,0,0-1.163-.5332,1.6054,1.6054,0,0,0-1.2246.5742,2.1281,2.1281,0,0,0-.5215,1.4883,1.8386,1.8386,0,0,0,.4951,1.333,1.6311,1.6311,0,0,0,1.2217.5127,1.5639,1.5639,0,0,0,1.2041-.5127A2.02,2.02,0,0,0,419.0439,53.0635Z" transform="translate(0.0001 0.0001)"/><path d="M426.7842,57.8271v1.0137h-5.6778a1.8649,1.8649,0,0,1,.1231-.7324,3.8754,3.8754,0,0,1,.6943-1.1426,10.88,10.88,0,0,1,1.38-1.3008,11.6941,11.6941,0,0,0,1.8926-1.8193,2.1787,2.1787,0,0,0,.4922-1.2686A1.4093,1.4093,0,0,0,425.24,51.52a1.6166,1.6166,0,0,0-1.1689-.4306,1.6473,1.6473,0,0,0-1.2188.457,1.73,1.73,0,0,0-.4629,1.2656L421.3057,52.7a2.6679,2.6679,0,0,1,.8379-1.8486,2.8575,2.8575,0,0,1,1.9511-.6358,2.7227,2.7227,0,0,1,1.9571.6856,2.2508,2.2508,0,0,1,.7207,1.6992,2.5783,2.5783,0,0,1-.211,1.0137,3.9332,3.9332,0,0,1-.7,1.0488,17.0429,17.0429,0,0,1-1.6259,1.5117q-.9493.797-1.2188,1.0811a3.4655,3.4655,0,0,0-.4453.5712Z" transform="translate(0.0001 0.0001)"/><path d="M431.12,56.9834l1.043-.1641a1.4582,1.4582,0,0,0,.4892.961,1.7056,1.7056,0,0,0,1.1221.334,1.6486,1.6486,0,0,0,1.0781-.2959.8851.8851,0,0,0,.3516-.6944.6405.6405,0,0,0-.31-.5625,4.5781,4.5781,0,0,0-1.0782-.3574,9.8494,9.8494,0,0,1-1.6084-.5068,1.535,1.535,0,0,1-.9111-1.4268,1.6032,1.6032,0,0,1,.19-.77,1.7084,1.7084,0,0,1,.5186-.5889,2.1736,2.1736,0,0,1,.6709-.3076,3.19,3.19,0,0,1,.9111-.126,3.6016,3.6016,0,0,1,1.2861.211,1.7485,1.7485,0,0,1,.8174.5713,2.2318,2.2318,0,0,1,.3633.9638l-1.0312.1407a1.1278,1.1278,0,0,0-.4073-.75,1.4894,1.4894,0,0,0-.9521-.27,1.7238,1.7238,0,0,0-1.0371.24.6991.6991,0,0,0-.3106.5625.5824.5824,0,0,0,.1289.3691.931.931,0,0,0,.4043.2813q.1583.0585.9317.27a12.9759,12.9759,0,0,1,1.5615.4892,1.5843,1.5843,0,0,1,.6943.5538,1.545,1.545,0,0,1,.252.9023,1.7715,1.7715,0,0,1-.3076.9932,1.9893,1.9893,0,0,1-.8877.7207,3.2314,3.2314,0,0,1-1.3125.2548,2.9238,2.9238,0,0,1-1.8487-.5039A2.3432,2.3432,0,0,1,431.12,56.9834Z" transform="translate(0.0001 0.0001)"/><path d="M437.4951,61.2373l-.1172-.99a2.3506,2.3506,0,0,0,.6035.0937,1.1571,1.1571,0,0,0,.5625-.1172.9571.9571,0,0,0,.3457-.3281,5.1611,5.1611,0,0,0,.3223-.7851q.0292-.0879.0938-.2579l-2.3614-6.2343h1.1368l1.2949,3.6035q.2519.6855.4511,1.4414a14.2139,14.2139,0,0,1,.4336-1.418l1.33-3.6269h1.0547l-2.3672,6.3281a12.4228,12.4228,0,0,1-.5918,1.4121,2.0821,2.0821,0,0,1-.6445.7646,1.5219,1.5219,0,0,1-.8672.2432A2.1134,2.1134,0,0,1,437.4951,61.2373Z" transform="translate(0.0001 0.0001)"/><path d="M443.542,58.8408V52.6182h.9434v.873a2.217,2.217,0,0,1,.7792-.7353,2.1893,2.1893,0,0,1,1.1075-.2784,2.0473,2.0473,0,0,1,1.1338.2871,1.537,1.537,0,0,1,.624.8028,2.234,2.234,0,0,1,1.9219-1.09,1.8943,1.8943,0,0,1,1.4238.5127,2.1913,2.1913,0,0,1,.498,1.5791v4.2715h-1.0488v-3.92a2.8876,2.8876,0,0,0-.1025-.9111.8827.8827,0,0,0-.3721-.4483,1.1612,1.1612,0,0,0-.6328-.17,1.4729,1.4729,0,0,0-1.09.4365,1.923,1.923,0,0,0-.4336,1.3975v3.6152h-1.0546V54.7979a1.7784,1.7784,0,0,0-.2579-1.0547.9761.9761,0,0,0-.8437-.3516,1.5319,1.5319,0,0,0-.8232.2344,1.329,1.329,0,0,0-.5479.6855,3.8588,3.8588,0,0,0-.17,1.3008v3.2285Z" transform="translate(0.0001 0.0001)"/><path d="M454.5107,58.8408h-.9785v-8.59h1.0547v3.0644a2.0869,2.0869,0,0,1,1.7051-.8379,2.6114,2.6114,0,0,1,1.0869.2315,2.22,2.22,0,0,1,.8438.65,3.1441,3.1441,0,0,1,.5185,1.0107,4.1669,4.1669,0,0,1,.1875,1.2656,3.5549,3.5549,0,0,1-.791,2.4727,2.4741,2.4741,0,0,1-1.8984.873,1.9815,1.9815,0,0,1-1.7286-.92Zm-.0117-3.1582a3.23,3.23,0,0,0,.3047,1.6172,1.5075,1.5075,0,0,0,2.543.2139,2.73,2.73,0,0,0,.5039-1.79,2.776,2.776,0,0,0-.4834-1.7988,1.4723,1.4723,0,0,0-1.169-.58,1.517,1.517,0,0,0-1.1953.6006A2.6367,2.6367,0,0,0,454.499,55.6826Z" transform="translate(0.0001 0.0001)"/><path d="M459.8193,55.73a3.2072,3.2072,0,0,1,.961-2.5606,2.8956,2.8956,0,0,1,1.957-.6914,2.7918,2.7918,0,0,1,2.0977.8409,3.1989,3.1989,0,0,1,.8144,2.3232,4.1166,4.1166,0,0,1-.36,1.89,2.5514,2.5514,0,0,1-1.0489,1.0694,3.0534,3.0534,0,0,1-1.5029.3808,2.7973,2.7973,0,0,1-2.1123-.8378A3.3469,3.3469,0,0,1,459.8193,55.73Zm1.084,0a2.65,2.65,0,0,0,.5215,1.79,1.7362,1.7362,0,0,0,2.6191-.0029,2.7131,2.7131,0,0,0,.5215-1.8223,2.571,2.571,0,0,0-.5244-1.749,1.7388,1.7388,0,0,0-2.6162-.0029A2.6382,2.6382,0,0,0,460.9033,55.73Z" transform="translate(0.0001 0.0001)"/><path d="M466.8623,58.8408v-8.59h1.0547v8.59Z" transform="translate(0.0001 0.0001)"/><path d="M469.13,56.9834l1.043-.1641a1.4574,1.4574,0,0,0,.4892.961,1.7056,1.7056,0,0,0,1.1221.334,1.6488,1.6488,0,0,0,1.0781-.2959.8851.8851,0,0,0,.3516-.6944.64.64,0,0,0-.3106-.5625,4.5749,4.5749,0,0,0-1.0781-.3574,9.846,9.846,0,0,1-1.6084-.5068,1.535,1.535,0,0,1-.9111-1.4268,1.6021,1.6021,0,0,1,.19-.77,1.7082,1.7082,0,0,1,.5185-.5889,2.1747,2.1747,0,0,1,.6709-.3076,3.1908,3.1908,0,0,1,.9112-.126,3.6016,3.6016,0,0,1,1.2861.211,1.7485,1.7485,0,0,1,.8174.5713,2.2318,2.2318,0,0,1,.3633.9638l-1.0313.1407a1.1272,1.1272,0,0,0-.4072-.75,1.4894,1.4894,0,0,0-.9521-.27,1.7243,1.7243,0,0,0-1.0372.24.6993.6993,0,0,0-.31.5625.5824.5824,0,0,0,.1289.3691.93.93,0,0,0,.4043.2813q.1583.0585.9316.27a12.9853,12.9853,0,0,1,1.5616.4892,1.5849,1.5849,0,0,1,.6943.5538,1.545,1.545,0,0,1,.252.9023,1.7708,1.7708,0,0,1-.3077.9932,1.9882,1.9882,0,0,1-.8877.7207,3.2314,3.2314,0,0,1-1.3125.2548,2.9233,2.9233,0,0,1-1.8486-.5039A2.3432,2.3432,0,0,1,469.13,56.9834Z" transform="translate(0.0001 0.0001)"/><path d="M476.2432,61.3662h-.7559a10.5733,10.5733,0,0,0,1.752-5.6308,9.622,9.622,0,0,0-.252-2.1856,9.1929,9.1929,0,0,0-.5566-1.6875,19.7975,19.7975,0,0,0-.9434-1.7578h.7559a11.2345,11.2345,0,0,1,1.6289,2.9531,8.0728,8.0728,0,0,1-.1553,5.73A10.7305,10.7305,0,0,1,476.2432,61.3662Z" transform="translate(0.0001 0.0001)"/></svg>