<?xml version="1.0" encoding="utf-8"?>
<!-- Generator: Adobe Illustrator 26.0.1, SVG Export Plug-In . SVG Version: 6.00 Build 0)  -->
<svg version="1.1" id="svg8" xmlns="http://www.w3.org/2000/svg" xmlns:xlink="http://www.w3.org/1999/xlink" x="0px" y="0px"
	 viewBox="0 0 1154.7 63.5" style="enable-background:new 0 0 1154.7 63.5;" xml:space="preserve">
<style type="text/css">
	.st0{fill:none;stroke:#000000;stroke-width:1.4173;stroke-miterlimit:11.3386;}
	.st1{fill:none;stroke:#000000;stroke-width:1.4184;stroke-miterlimit:11.3386;}
	.st2{fill:none;stroke:#000000;stroke-width:1.4184;stroke-miterlimit:11.3386;stroke-dasharray:12.8844,12.8844;}
</style>
<g>
	<path d="M36.1,40.2V27.3H41c0.7,0,1.3,0,2,0.1c0.6,0.1,1.1,0.3,1.6,0.6c0.4,0.3,0.8,0.7,1,1.2c0.7,1.5,0.4,3.3-0.7,4.5
		c-0.7,0.8-2,1.1-3.8,1.1h-3.3v5.2H36.1z M37.8,33.4h3.3c0.8,0.1,1.7-0.1,2.3-0.6c0.5-0.4,0.7-1.1,0.7-1.7c0-0.5-0.1-1-0.4-1.4
		c-0.3-0.4-0.6-0.6-1.1-0.8c-0.5-0.1-1.1-0.1-1.6-0.1h-3.3V33.4z"/>
	<path d="M48.1,40.2V27.3h5.7c0.9,0,1.8,0.1,2.6,0.3c0.6,0.2,1.1,0.7,1.4,1.2c0.4,0.6,0.5,1.3,0.5,1.9c0,0.9-0.3,1.7-0.9,2.3
		c-0.8,0.7-1.7,1.1-2.7,1.2c0.4,0.2,0.7,0.4,1,0.6c0.5,0.5,1,1.1,1.4,1.7l2.2,3.5h-2.1l-1.7-2.7c-0.5-0.8-0.9-1.4-1.2-1.8
		c-0.2-0.3-0.5-0.6-0.9-0.9c-0.2-0.2-0.5-0.3-0.8-0.3c-0.3,0-0.6-0.1-0.9-0.1h-2v5.7H48.1z M49.8,33h3.7c0.6,0,1.2-0.1,1.8-0.2
		c0.4-0.1,0.8-0.4,1-0.8c0.2-0.3,0.3-0.7,0.3-1.2c0-0.6-0.2-1.1-0.7-1.5c-0.6-0.4-1.3-0.7-2.1-0.6h-4.1V33z"/>
	<path d="M61.1,40.2V27.3h9.3v1.5h-7.6v3.9H70v1.5h-7.1v4.4h7.9v1.5L61.1,40.2z"/>
	<path d="M71.7,40.2l4.9-12.9h1.8l5.3,12.9h-1.9l-1.5-3.9h-5.4l-1.4,3.9H71.7z M75.4,34.9h4.4l-1.3-3.6c-0.4-1.1-0.7-2-0.9-2.7
		c-0.2,0.8-0.4,1.7-0.7,2.5L75.4,34.9z"/>
	<path d="M85.1,40.2V27.3h2.6l3.1,9.1c0.3,0.8,0.5,1.5,0.6,1.9c0.1-0.5,0.4-1.2,0.7-2.1l3.1-9h2.3v12.9h-1.6V29.4L92,40.2h-1.5
		l-3.7-11v11H85.1z"/>
	<path d="M100,40.2V27.3h4.8c0.8,0,1.6,0.1,2.4,0.4c0.6,0.2,1.1,0.7,1.4,1.2c0.3,0.5,0.5,1.1,0.5,1.7c0,0.6-0.2,1.1-0.4,1.6
		c-0.3,0.5-0.8,0.9-1.4,1.2c0.7,0.2,1.3,0.6,1.8,1.2c0.4,0.6,0.6,1.2,0.6,2c0,0.6-0.1,1.2-0.4,1.7c-0.2,0.5-0.5,0.9-0.9,1.2
		c-0.4,0.3-0.9,0.5-1.4,0.6c-0.7,0.2-1.4,0.2-2.1,0.2H100z M101.7,32.7h2.8c0.5,0,1.1,0,1.6-0.1c0.4-0.1,0.7-0.3,1-0.6
		c0.2-0.3,0.3-0.7,0.3-1.1c0-0.4-0.1-0.8-0.3-1.1c-0.2-0.3-0.5-0.6-0.9-0.7c-0.6-0.1-1.3-0.2-2-0.2h-2.6V32.7z M101.7,38.6h3.2
		c0.4,0,0.8,0,1.2-0.1c0.3-0.1,0.7-0.2,1-0.4c0.3-0.2,0.5-0.4,0.7-0.7c0.2-0.3,0.3-0.7,0.3-1.1c0-0.4-0.1-0.9-0.4-1.3
		c-0.2-0.4-0.6-0.6-1-0.7c-0.6-0.2-1.2-0.2-1.9-0.2h-3L101.7,38.6z"/>
	<path d="M112,40.2V27.3h1.7v11.4h6.3v1.5L112,40.2z"/>
	<path d="M122.2,40.2V27.3h9.3v1.5h-7.6v3.9h7.1v1.5h-7.1v4.4h7.9v1.5L122.2,40.2z"/>
</g>
<path id="path3733" class="st0" d="M139.9,19.1v28.3"/>
<g>
	<path d="M148.5,36l1.6-0.1c0,0.6,0.2,1.1,0.5,1.6c0.3,0.5,0.8,0.8,1.3,1c0.6,0.3,1.3,0.4,2,0.4c0.6,0,1.2-0.1,1.7-0.3
		c0.4-0.2,0.8-0.4,1.1-0.8c0.2-0.3,0.4-0.7,0.4-1.1c0-0.4-0.1-0.8-0.4-1.1c-0.3-0.4-0.7-0.6-1.2-0.8c-0.8-0.2-1.5-0.5-2.3-0.6
		c-0.9-0.2-1.7-0.4-2.5-0.8c-0.6-0.3-1-0.7-1.4-1.2c-0.3-0.5-0.5-1-0.5-1.6c0-0.6,0.2-1.3,0.6-1.8c0.4-0.6,1-1,1.6-1.3
		c0.8-0.3,1.6-0.5,2.4-0.4c0.9,0,1.7,0.1,2.5,0.5c0.7,0.3,1.3,0.7,1.7,1.4c0.4,0.6,0.6,1.3,0.6,2l-1.6,0.1c0-0.7-0.4-1.4-0.9-1.8
		c-0.7-0.5-1.4-0.7-2.2-0.6c-0.8-0.1-1.6,0.1-2.3,0.6c-0.4,0.3-0.7,0.8-0.7,1.4c0,0.4,0.2,0.9,0.5,1.1c0.8,0.5,1.7,0.8,2.6,0.9
		c1,0.2,1.9,0.5,2.9,0.8c0.7,0.3,1.2,0.7,1.7,1.3c0.4,0.5,0.5,1.2,0.5,1.8c0,0.7-0.2,1.4-0.6,1.9c-0.4,0.6-1,1.1-1.7,1.4
		c-0.8,0.3-1.6,0.5-2.5,0.5c-1,0-2-0.1-2.9-0.5c-0.8-0.3-1.4-0.8-1.9-1.5C148.7,37.6,148.5,36.8,148.5,36z"/>
	<path d="M164.7,40.2v-5.5l-5-7.4h2.1l2.5,3.9c0.5,0.7,0.9,1.5,1.3,2.2c0.4-0.7,0.9-1.4,1.4-2.3l2.5-3.8h2l-5.1,7.4v5.5H164.7z"/>
	<path d="M173,40.2V27.3h1.7l6.8,10.1V27.3h1.6v12.9h-1.7L174.7,30v10.1H173z"/>
	<path d="M195.2,35.6l1.7,0.4c-0.3,1.3-0.9,2.4-1.9,3.2c-1,0.8-2.2,1.1-3.4,1.1c-1.2,0.1-2.4-0.2-3.4-0.8c-0.9-0.6-1.6-1.5-2-2.5
		c-0.5-1.1-0.7-2.3-0.7-3.5c0-1.2,0.2-2.4,0.8-3.5c0.5-1,1.2-1.8,2.2-2.3c1-0.5,2-0.8,3.1-0.8c1.2,0,2.3,0.3,3.3,1
		c0.9,0.7,1.5,1.7,1.8,2.8l-1.7,0.4c-0.2-0.8-0.7-1.5-1.3-2c-0.6-0.4-1.4-0.7-2.1-0.6c-0.9,0-1.8,0.2-2.5,0.7
		c-0.7,0.5-1.2,1.1-1.4,1.9c-0.3,0.8-0.4,1.6-0.4,2.5c0,1,0.1,2,0.5,2.9c0.3,0.8,0.8,1.4,1.5,1.8c0.7,0.4,1.4,0.6,2.2,0.6
		c0.9,0,1.7-0.3,2.4-0.8C194.6,37.5,195.1,36.6,195.2,35.6z"/>
	<path d="M204,40.2V27.3h4.8c0.8,0,1.6,0.1,2.4,0.4c0.6,0.2,1.1,0.7,1.4,1.2c0.3,0.5,0.5,1.1,0.5,1.7c0,0.6-0.2,1.1-0.4,1.6
		c-0.3,0.5-0.8,0.9-1.4,1.2c0.7,0.2,1.3,0.6,1.8,1.2c0.4,0.6,0.6,1.2,0.6,2c0,0.6-0.1,1.2-0.4,1.7c-0.2,0.5-0.5,0.9-0.9,1.2
		c-0.4,0.3-0.9,0.5-1.4,0.6c-0.7,0.2-1.4,0.2-2.1,0.2L204,40.2z M205.7,32.7h2.8c0.5,0,1.1,0,1.6-0.1c0.4-0.1,0.7-0.3,1-0.6
		c0.2-0.3,0.3-0.7,0.3-1.1c0-0.4-0.1-0.8-0.3-1.1c-0.2-0.3-0.5-0.6-0.9-0.7c-0.6-0.1-1.3-0.2-2-0.2h-2.6L205.7,32.7z M205.7,38.6
		h3.2c0.4,0,0.8,0,1.2-0.1c0.3-0.1,0.7-0.2,1-0.4c0.3-0.2,0.5-0.4,0.6-0.7c0.2-0.3,0.3-0.7,0.3-1.1c0-0.4-0.1-0.9-0.4-1.3
		c-0.2-0.4-0.6-0.6-1-0.7c-0.6-0.2-1.2-0.2-1.9-0.2h-3L205.7,38.6z"/>
	<path d="M224.5,27.3h1.7v7.4c0,1-0.1,2.1-0.4,3.1c-0.3,0.8-0.9,1.4-1.6,1.9c-0.9,0.5-2,0.8-3,0.7c-1,0-2-0.2-3-0.6
		c-0.7-0.4-1.3-1-1.6-1.8c-0.4-1-0.5-2.1-0.5-3.2v-7.4h1.7v7.4c0,0.8,0.1,1.7,0.3,2.5c0.2,0.5,0.6,1,1.1,1.2
		c0.6,0.3,1.2,0.5,1.9,0.4c1,0.1,1.9-0.2,2.7-0.9c0.6-1,0.9-2.1,0.8-3.3L224.5,27.3z"/>
	<path d="M229.1,40.2V27.3h5.7c0.9,0,1.8,0.1,2.6,0.3c0.6,0.2,1.1,0.7,1.4,1.2c0.4,0.6,0.5,1.3,0.5,1.9c0,0.9-0.3,1.7-0.9,2.3
		c-0.8,0.7-1.7,1.1-2.7,1.2c0.4,0.2,0.7,0.4,1,0.6c0.5,0.5,1,1.1,1.4,1.7l2.2,3.5h-2.1l-1.7-2.7c-0.5-0.8-0.9-1.4-1.2-1.8
		c-0.2-0.3-0.5-0.6-0.9-0.9c-0.2-0.2-0.5-0.3-0.8-0.3c-0.3,0-0.6-0.1-0.9-0.1h-2v5.7H229.1z M230.8,33h3.7c0.6,0,1.2-0.1,1.8-0.2
		c0.4-0.1,0.8-0.4,1-0.8c0.2-0.3,0.3-0.7,0.3-1.2c0-0.6-0.2-1.1-0.7-1.5c-0.6-0.4-1.3-0.7-2.1-0.6h-4.1L230.8,33z"/>
	<path d="M241.5,36l1.6-0.1c0,0.6,0.2,1.1,0.5,1.6c0.3,0.5,0.8,0.8,1.3,1c0.6,0.3,1.3,0.4,2,0.4c0.6,0,1.2-0.1,1.7-0.3
		c0.4-0.2,0.8-0.4,1.1-0.8c0.2-0.3,0.4-0.7,0.4-1.1c0-0.4-0.1-0.8-0.4-1.1c-0.3-0.4-0.7-0.6-1.2-0.8c-0.8-0.2-1.5-0.5-2.3-0.6
		c-0.9-0.2-1.7-0.4-2.5-0.8c-0.6-0.3-1-0.7-1.4-1.2c-0.3-0.5-0.5-1-0.5-1.6c0-0.6,0.2-1.3,0.6-1.8c0.4-0.6,1-1,1.6-1.3
		c0.8-0.3,1.6-0.5,2.4-0.4c0.9,0,1.7,0.1,2.5,0.5c0.7,0.3,1.3,0.7,1.7,1.4c0.4,0.6,0.6,1.3,0.6,2l-1.6,0.1c0-0.7-0.4-1.4-0.9-1.8
		c-0.7-0.5-1.4-0.7-2.2-0.6c-0.8-0.1-1.6,0.1-2.3,0.6c-0.4,0.3-0.7,0.8-0.7,1.4c0,0.4,0.2,0.9,0.5,1.1c0.8,0.5,1.7,0.8,2.6,0.9
		c1,0.2,1.9,0.5,2.9,0.8c0.7,0.3,1.2,0.7,1.7,1.3c0.4,0.5,0.5,1.2,0.5,1.8c0,0.7-0.2,1.4-0.6,1.9c-0.4,0.6-1,1.1-1.7,1.4
		c-0.8,0.3-1.6,0.5-2.5,0.5c-1,0-2-0.1-2.9-0.5c-0.8-0.3-1.4-0.8-1.9-1.5C241.7,37.6,241.5,36.8,241.5,36z"/>
	<path d="M257.3,40.2V28.8h-4.2v-1.5h10.2v1.5H259v11.4H257.3z"/>
</g>
<g>
	<path d="M316.1,40.4V27.5h4.4c0.8,0,1.5,0,2.3,0.2c0.7,0.1,1.3,0.5,1.9,0.9c0.7,0.6,1.2,1.3,1.5,2.2c0.4,1,0.5,2,0.5,3.1
		c0,0.9-0.1,1.8-0.3,2.6c-0.2,0.7-0.5,1.3-0.9,1.9c-0.3,0.5-0.7,0.9-1.2,1.2c-0.5,0.3-1,0.5-1.5,0.6c-0.7,0.2-1.4,0.2-2.1,0.2
		L316.1,40.4z M317.8,38.9h2.8c0.7,0,1.3-0.1,2-0.2c0.4-0.1,0.8-0.4,1.2-0.7c0.4-0.5,0.8-1,0.9-1.6c0.2-0.8,0.4-1.6,0.3-2.5
		c0.1-1.1-0.2-2.2-0.7-3.1c-0.4-0.7-0.9-1.2-1.6-1.5c-0.7-0.2-1.5-0.3-2.2-0.3h-2.7L317.8,38.9z"/>
	<path d="M327.7,40.4l4.9-12.9h1.8l5.3,12.9h-1.9l-1.5-3.9h-5.4l-1.4,3.9H327.7z M331.4,35.1h4.4l-1.3-3.6c-0.4-1.1-0.7-2-0.9-2.7
		c-0.2,0.8-0.4,1.7-0.7,2.5L331.4,35.1z"/>
	<path d="M343.1,40.4V29h-4.2v-1.5H349V29h-4.3v11.4H343.1z"/>
	<path d="M348,40.4l4.9-12.9h1.8l5.3,12.9h-1.9l-1.5-3.9h-5.4l-1.4,3.9H348z M351.7,35.1h4.4l-1.3-3.6c-0.4-1.1-0.7-2-0.9-2.7
		c-0.2,0.8-0.4,1.7-0.7,2.5L351.7,35.1z"/>
</g>
<path id="path3733-4-5" class="st0" d="M270.8,19.1v28.3"/>
<g>
	<path d="M1073.4,40.2V27.3h9.3v1.5h-7.6v3.9h7.1v1.5h-7.1v4.4h7.9v1.5L1073.4,40.2z"/>
	<path d="M1084.8,33.9c-0.1-1.8,0.5-3.6,1.7-5c1.2-1.2,2.8-1.9,4.4-1.8c1.1,0,2.2,0.3,3.2,0.9c0.9,0.6,1.7,1.4,2.2,2.4
		c0.5,1.1,0.8,2.3,0.8,3.5c0,1.2-0.3,2.4-0.8,3.5c-0.5,1-1.3,1.8-2.2,2.3c-1,0.5-2,0.8-3.1,0.8c-1.1,0-2.3-0.3-3.3-0.9
		c-0.9-0.6-1.7-1.4-2.2-2.4C1085.1,36.1,1084.8,35,1084.8,33.9z M1086.6,33.9c-0.1,1.3,0.4,2.7,1.3,3.7c1.7,1.7,4.4,1.8,6.2,0.1
		c0,0,0.1-0.1,0.1-0.1c0.9-1.1,1.3-2.4,1.2-3.8c0-0.9-0.2-1.9-0.5-2.7c-0.3-0.7-0.9-1.4-1.6-1.8c-0.7-0.4-1.5-0.7-2.3-0.6
		c-1.2,0-2.3,0.4-3.1,1.2C1087,30.6,1086.6,32,1086.6,33.9z"/>
	<path d="M1102.6,40.2V28.8h-4.2v-1.5h10.2v1.5h-4.3v11.4H1102.6z"/>
</g>
<path id="path3733-4-5-1-3" class="st0" d="M1047,19.1v28.3"/>
<path id="path3733-4-5_00000093177594592238871140000006663593622922439060_" class="st0" d="M404.3,18.8v28.3"/>
<g>
	<path d="M414.9,35.6l1.6-0.1c0,0.6,0.2,1.1,0.5,1.6c0.3,0.5,0.8,0.8,1.3,1c0.6,0.3,1.3,0.4,2,0.4c0.6,0,1.2-0.1,1.7-0.3
		c0.4-0.2,0.8-0.4,1.1-0.8c0.2-0.3,0.4-0.7,0.4-1.1c0-0.4-0.1-0.8-0.4-1.1c-0.3-0.4-0.7-0.6-1.2-0.8c-0.8-0.2-1.5-0.5-2.3-0.6
		c-0.9-0.2-1.7-0.4-2.5-0.8c-0.6-0.3-1-0.7-1.4-1.2c-0.3-0.5-0.5-1-0.5-1.6c0-0.6,0.2-1.3,0.6-1.8c0.4-0.6,1-1,1.6-1.3
		c0.8-0.3,1.6-0.5,2.4-0.4c0.9,0,1.7,0.1,2.5,0.5c0.7,0.3,1.3,0.7,1.7,1.4c0.4,0.6,0.6,1.3,0.6,2l-1.6,0.1c0-0.7-0.4-1.4-0.9-1.8
		c-0.7-0.5-1.4-0.7-2.2-0.6c-0.8-0.1-1.6,0.1-2.3,0.6c-0.4,0.3-0.7,0.8-0.7,1.4c0,0.4,0.2,0.9,0.5,1.1c0.8,0.5,1.7,0.8,2.6,0.9
		c1,0.2,1.9,0.5,2.9,0.8c0.7,0.3,1.2,0.7,1.7,1.3c0.4,0.5,0.5,1.2,0.5,1.8c0,0.7-0.2,1.4-0.6,1.9c-0.4,0.6-1,1.1-1.7,1.4
		c-0.8,0.3-1.6,0.5-2.5,0.5c-1,0-2-0.1-2.9-0.5c-0.8-0.3-1.4-0.8-1.9-1.5C415.2,37.3,414.9,36.5,414.9,35.6z"/>
	<path d="M431.1,39.8v-5.5l-5-7.4h2.1l2.5,3.9c0.5,0.7,0.9,1.5,1.3,2.2c0.4-0.7,0.9-1.4,1.4-2.3l2.5-3.8h2l-5.1,7.4v5.5H431.1z"/>
	<path d="M439.5,39.8V26.9h1.7L448,37V26.9h1.6v12.9h-1.7l-6.8-10.1v10.1H439.5z"/>
	<path d="M461.7,35.3l1.7,0.4c-0.3,1.3-0.9,2.4-1.9,3.2c-1,0.8-2.2,1.1-3.4,1.1c-1.2,0.1-2.4-0.2-3.4-0.8c-0.9-0.6-1.6-1.5-2-2.5
		c-0.5-1.1-0.7-2.3-0.7-3.5c0-1.2,0.2-2.4,0.8-3.5c0.5-1,1.2-1.8,2.2-2.3c1-0.5,2-0.8,3.1-0.8c1.2,0,2.3,0.3,3.3,1
		c0.9,0.7,1.5,1.7,1.8,2.8l-1.7,0.4c-0.2-0.8-0.7-1.5-1.3-2c-0.6-0.4-1.4-0.7-2.1-0.6c-0.9,0-1.8,0.2-2.5,0.7
		c-0.7,0.5-1.2,1.1-1.4,1.9c-0.3,0.8-0.4,1.6-0.4,2.5c0,1,0.1,2,0.5,2.9c0.3,0.8,0.8,1.4,1.5,1.8c0.7,0.4,1.4,0.6,2.2,0.6
		c0.9,0,1.7-0.3,2.4-0.8C461.1,37.1,461.5,36.2,461.7,35.3z"/>
	<path d="M470.4,39.8V26.9h4.8c0.8,0,1.6,0.1,2.4,0.4c0.6,0.2,1.1,0.7,1.4,1.2c0.3,0.5,0.5,1.1,0.5,1.7c0,0.6-0.2,1.1-0.4,1.6
		c-0.3,0.5-0.8,0.9-1.4,1.2c0.7,0.2,1.3,0.6,1.8,1.2c0.4,0.6,0.6,1.2,0.6,2c0,0.6-0.1,1.2-0.4,1.7c-0.2,0.5-0.5,0.9-0.9,1.2
		c-0.4,0.3-0.9,0.5-1.4,0.6c-0.7,0.2-1.4,0.2-2.1,0.2L470.4,39.8z M472.1,32.3h2.8c0.5,0,1.1,0,1.6-0.1c0.4-0.1,0.7-0.3,1-0.6
		c0.2-0.3,0.3-0.7,0.3-1.1c0-0.4-0.1-0.8-0.3-1.1c-0.2-0.3-0.5-0.6-0.9-0.7c-0.6-0.1-1.3-0.2-2-0.2h-2.6L472.1,32.3z M472.1,38.3
		h3.2c0.4,0,0.8,0,1.2-0.1c0.3-0.1,0.7-0.2,1-0.4c0.3-0.2,0.5-0.4,0.6-0.7c0.2-0.3,0.3-0.7,0.3-1.1c0-0.4-0.1-0.9-0.4-1.3
		c-0.2-0.4-0.6-0.6-1-0.7c-0.6-0.2-1.2-0.2-1.9-0.2h-3L472.1,38.3z"/>
	<path d="M491,26.9h1.7v7.4c0,1-0.1,2.1-0.4,3.1c-0.3,0.8-0.9,1.4-1.6,1.9c-0.9,0.5-2,0.8-3,0.7c-1,0-2-0.2-3-0.6
		c-0.7-0.4-1.3-1-1.6-1.8c-0.4-1-0.5-2.1-0.5-3.2v-7.4h1.7v7.4c0,0.8,0.1,1.7,0.3,2.5c0.2,0.5,0.6,1,1.1,1.2
		c0.6,0.3,1.2,0.5,1.9,0.4c1,0.1,1.9-0.2,2.7-0.9c0.6-1,0.9-2.1,0.8-3.3L491,26.9z"/>
	<path d="M495.5,39.8V26.9h5.7c0.9,0,1.8,0.1,2.6,0.3c0.6,0.2,1.1,0.7,1.4,1.2c0.4,0.6,0.5,1.3,0.5,1.9c0,0.9-0.3,1.7-0.9,2.3
		c-0.8,0.7-1.7,1.1-2.7,1.2c0.4,0.2,0.7,0.4,1,0.6c0.5,0.5,1,1.1,1.4,1.7l2.2,3.5h-2.1l-1.7-2.7c-0.5-0.8-0.9-1.4-1.2-1.8
		c-0.2-0.3-0.5-0.6-0.9-0.9c-0.2-0.2-0.5-0.3-0.8-0.3c-0.3,0-0.6-0.1-0.9-0.1h-2v5.7H495.5z M497.2,32.6h3.7c0.6,0,1.2-0.1,1.8-0.2
		c0.4-0.1,0.8-0.4,1-0.8c0.2-0.3,0.3-0.7,0.3-1.2c0-0.6-0.2-1.1-0.7-1.5c-0.6-0.4-1.3-0.7-2.1-0.6h-4.1L497.2,32.6z"/>
	<path d="M507.9,35.6l1.6-0.1c0,0.6,0.2,1.1,0.5,1.6c0.3,0.5,0.8,0.8,1.3,1c0.6,0.3,1.3,0.4,2,0.4c0.6,0,1.2-0.1,1.7-0.3
		c0.4-0.2,0.8-0.4,1.1-0.8c0.2-0.3,0.4-0.7,0.4-1.1c0-0.4-0.1-0.8-0.4-1.1c-0.3-0.4-0.7-0.6-1.2-0.8c-0.8-0.2-1.5-0.5-2.3-0.6
		c-0.9-0.2-1.7-0.4-2.5-0.8c-0.6-0.3-1-0.7-1.4-1.2c-0.3-0.5-0.5-1-0.5-1.6c0-0.6,0.2-1.3,0.6-1.8c0.4-0.6,1-1,1.6-1.3
		c0.8-0.3,1.6-0.5,2.4-0.4c0.9,0,1.7,0.1,2.5,0.5c0.7,0.3,1.3,0.7,1.7,1.4c0.4,0.6,0.6,1.3,0.6,2l-1.6,0.1c0-0.7-0.4-1.4-0.9-1.8
		c-0.7-0.5-1.4-0.7-2.2-0.6c-0.8-0.1-1.6,0.1-2.3,0.6c-0.4,0.3-0.7,0.8-0.7,1.4c0,0.4,0.2,0.9,0.5,1.1c0.8,0.5,1.7,0.8,2.6,0.9
		c1,0.2,1.9,0.5,2.9,0.8c0.7,0.3,1.2,0.7,1.7,1.3c0.4,0.5,0.5,1.2,0.5,1.8c0,0.7-0.2,1.4-0.6,1.9c-0.4,0.6-1,1.1-1.7,1.4
		c-0.8,0.3-1.6,0.5-2.5,0.5c-1,0-2-0.1-2.9-0.5c-0.8-0.3-1.4-0.8-1.9-1.5C508.2,37.3,507.9,36.5,507.9,35.6z"/>
	<path d="M523.8,39.8V28.4h-4.2v-1.5h10.2v1.5h-4.3v11.4H523.8z"/>
</g>
<g>
	<path d="M582.6,40V27.1h4.4c0.8,0,1.5,0,2.3,0.2c0.7,0.1,1.3,0.5,1.9,0.9c0.7,0.6,1.2,1.3,1.5,2.2c0.4,1,0.5,2,0.5,3.1
		c0,0.9-0.1,1.8-0.3,2.6c-0.2,0.7-0.5,1.3-0.9,1.9c-0.3,0.5-0.7,0.9-1.2,1.2c-0.5,0.3-1,0.5-1.5,0.6c-0.7,0.2-1.4,0.2-2.1,0.2
		L582.6,40z M584.3,38.5h2.8c0.7,0,1.3-0.1,2-0.2c0.4-0.1,0.8-0.4,1.2-0.7c0.4-0.5,0.8-1,0.9-1.6c0.2-0.8,0.4-1.6,0.3-2.5
		c0.1-1.1-0.2-2.2-0.7-3.1c-0.4-0.7-0.9-1.2-1.6-1.5c-0.7-0.2-1.5-0.3-2.2-0.3h-2.7L584.3,38.5z"/>
	<path d="M594.1,40l4.9-12.9h1.8l5.3,12.9h-1.9l-1.5-3.9h-5.4L596,40H594.1z M597.9,34.7h4.4l-1.3-3.6c-0.4-1.1-0.7-2-0.9-2.7
		c-0.2,0.8-0.4,1.7-0.7,2.5L597.9,34.7z"/>
	<path d="M609.5,40V28.6h-4.2v-1.5h10.2v1.5h-4.3V40H609.5z"/>
	<path d="M614.5,40l4.9-12.9h1.8l5.3,12.9h-1.9l-1.5-3.9h-5.4l-1.4,3.9H614.5z M618.2,34.7h4.4l-1.3-3.6c-0.4-1.1-0.7-2-0.9-2.7
		c-0.2,0.8-0.4,1.7-0.7,2.5L618.2,34.7z"/>
</g>
<path id="path3733-4-5_00000005956794692188289810000002643477931960871853_" class="st0" d="M537.3,18.8v28.3"/>
<path id="path3733-4-5_00000004546286590786815740000015974072703850002356_" class="st0" d="M673.2,47.4h-645V19.1h645V47.4z"/>
<g>
	<path d="M787,35.9l1.6-0.1c0,0.6,0.2,1.1,0.5,1.6c0.3,0.5,0.8,0.8,1.3,1c0.6,0.3,1.3,0.4,2,0.4c0.6,0,1.2-0.1,1.7-0.3
		c0.4-0.2,0.8-0.4,1.1-0.8c0.2-0.3,0.4-0.7,0.4-1.1c0-0.4-0.1-0.8-0.4-1.1c-0.3-0.4-0.7-0.6-1.2-0.8c-0.8-0.2-1.5-0.5-2.3-0.6
		c-0.9-0.2-1.7-0.4-2.5-0.8c-0.6-0.3-1-0.7-1.4-1.2c-0.3-0.5-0.5-1-0.5-1.6c0-0.6,0.2-1.3,0.6-1.8c0.4-0.6,1-1,1.6-1.3
		c0.8-0.3,1.6-0.5,2.4-0.4c0.9,0,1.7,0.1,2.5,0.5c0.7,0.3,1.3,0.7,1.7,1.4c0.4,0.6,0.6,1.3,0.6,2l-1.6,0.1c0-0.7-0.4-1.4-0.9-1.8
		c-0.7-0.5-1.4-0.7-2.2-0.6c-0.8-0.1-1.6,0.1-2.3,0.6c-0.4,0.3-0.7,0.8-0.7,1.4c0,0.4,0.2,0.9,0.5,1.1c0.8,0.5,1.7,0.8,2.6,0.9
		c1,0.2,1.9,0.5,2.9,0.8c0.7,0.3,1.2,0.7,1.7,1.3c0.4,0.5,0.5,1.2,0.5,1.8c0,0.7-0.2,1.4-0.6,1.9c-0.4,0.6-1,1.1-1.7,1.4
		c-0.8,0.3-1.6,0.5-2.5,0.5c-1,0-2-0.1-2.9-0.5c-0.8-0.3-1.4-0.8-1.9-1.5C787.2,37.5,787,36.7,787,35.9z"/>
	<path d="M803.2,40v-5.5l-5-7.4h2.1l2.5,3.9c0.5,0.7,0.9,1.5,1.3,2.2c0.4-0.7,0.9-1.4,1.4-2.3l2.5-3.8h2l-5.1,7.4V40H803.2z"/>
	<path d="M811.6,40V27.2h1.7l6.8,10.1V27.2h1.6V40H820l-6.8-10.1V40H811.6z"/>
	<path d="M833.8,35.5l1.7,0.4c-0.3,1.3-0.9,2.4-1.9,3.2c-1,0.8-2.2,1.1-3.4,1.1c-1.2,0.1-2.4-0.2-3.4-0.8c-0.9-0.6-1.6-1.5-2-2.5
		c-0.5-1.1-0.7-2.3-0.7-3.5c0-1.2,0.2-2.4,0.8-3.5c0.5-1,1.2-1.8,2.2-2.3c1-0.5,2-0.8,3.1-0.8c1.2,0,2.3,0.3,3.3,1
		c0.9,0.7,1.5,1.7,1.8,2.8l-1.7,0.4c-0.2-0.8-0.7-1.5-1.3-2c-0.6-0.4-1.4-0.7-2.1-0.6c-0.9,0-1.8,0.2-2.5,0.7
		c-0.7,0.5-1.2,1.1-1.4,1.9c-0.3,0.8-0.4,1.6-0.4,2.5c0,1,0.1,2,0.5,2.9c0.3,0.8,0.8,1.4,1.5,1.8c0.7,0.4,1.4,0.6,2.2,0.6
		c0.9,0,1.7-0.3,2.4-0.8C833.1,37.3,833.6,36.5,833.8,35.5z"/>
	<path d="M842.5,40V27.2h4.8c0.8,0,1.6,0.1,2.4,0.4c0.6,0.2,1.1,0.7,1.4,1.2c0.3,0.5,0.5,1.1,0.5,1.7c0,0.6-0.2,1.1-0.4,1.6
		c-0.3,0.5-0.8,0.9-1.4,1.2c0.7,0.2,1.3,0.6,1.8,1.2c0.4,0.6,0.6,1.2,0.6,2c0,0.6-0.1,1.2-0.4,1.7c-0.2,0.5-0.5,0.9-0.9,1.2
		c-0.4,0.3-0.9,0.5-1.4,0.6c-0.7,0.2-1.4,0.2-2.1,0.2L842.5,40z M844.2,32.6h2.8c0.5,0,1.1,0,1.6-0.1c0.4-0.1,0.7-0.3,1-0.6
		c0.2-0.3,0.3-0.7,0.3-1.1c0-0.4-0.1-0.8-0.3-1.1c-0.2-0.3-0.5-0.6-0.9-0.7c-0.6-0.1-1.3-0.2-2-0.2h-2.6L844.2,32.6z M844.2,38.5
		h3.2c0.4,0,0.8,0,1.2-0.1c0.3-0.1,0.7-0.2,1-0.4c0.3-0.2,0.5-0.4,0.6-0.7c0.2-0.3,0.3-0.7,0.3-1.1c0-0.4-0.1-0.9-0.4-1.3
		c-0.2-0.4-0.6-0.6-1-0.7c-0.6-0.2-1.2-0.2-1.9-0.2h-3L844.2,38.5z"/>
	<path d="M863,27.2h1.7v7.4c0,1-0.1,2.1-0.4,3.1c-0.3,0.8-0.9,1.4-1.6,1.9c-0.9,0.5-2,0.8-3,0.7c-1,0-2-0.2-3-0.6
		c-0.7-0.4-1.3-1-1.6-1.8c-0.4-1-0.5-2.1-0.5-3.2v-7.4h1.7v7.4c0,0.8,0.1,1.7,0.3,2.5c0.2,0.5,0.6,1,1.1,1.2
		c0.6,0.3,1.2,0.5,1.9,0.4c1,0.1,1.9-0.2,2.7-0.9c0.6-1,0.9-2.1,0.8-3.3L863,27.2z"/>
	<path d="M867.6,40V27.2h5.7c0.9,0,1.8,0.1,2.6,0.3c0.6,0.2,1.1,0.7,1.4,1.2c0.4,0.6,0.5,1.3,0.5,1.9c0,0.9-0.3,1.7-0.9,2.3
		c-0.8,0.7-1.7,1.1-2.7,1.2c0.4,0.2,0.7,0.4,1,0.6c0.5,0.5,1,1.1,1.4,1.7L879,40h-2.1l-1.7-2.7c-0.5-0.8-0.9-1.4-1.2-1.8
		c-0.2-0.3-0.5-0.6-0.9-0.9c-0.2-0.2-0.5-0.3-0.8-0.3c-0.3,0-0.6-0.1-0.9-0.1h-2V40H867.6z M869.3,32.8h3.7c0.6,0,1.2-0.1,1.8-0.2
		c0.4-0.1,0.8-0.4,1-0.8c0.2-0.3,0.3-0.7,0.3-1.2c0-0.6-0.2-1.1-0.7-1.5c-0.6-0.4-1.3-0.7-2.1-0.6h-4.1L869.3,32.8z"/>
	<path d="M880,35.9l1.6-0.1c0,0.6,0.2,1.1,0.5,1.6c0.3,0.5,0.8,0.8,1.3,1c0.6,0.3,1.3,0.4,2,0.4c0.6,0,1.2-0.1,1.7-0.3
		c0.4-0.2,0.8-0.4,1.1-0.8c0.2-0.3,0.4-0.7,0.4-1.1c0-0.4-0.1-0.8-0.4-1.1c-0.3-0.4-0.7-0.6-1.2-0.8c-0.8-0.2-1.5-0.5-2.3-0.6
		c-0.9-0.2-1.7-0.4-2.5-0.8c-0.6-0.3-1-0.7-1.4-1.2c-0.3-0.5-0.5-1-0.5-1.6c0-0.6,0.2-1.3,0.6-1.8c0.4-0.6,1-1,1.6-1.3
		c0.8-0.3,1.6-0.5,2.4-0.4c0.9,0,1.7,0.1,2.5,0.5c0.7,0.3,1.3,0.7,1.7,1.4c0.4,0.6,0.6,1.3,0.6,2l-1.6,0.1c0-0.7-0.4-1.4-0.9-1.8
		c-0.7-0.5-1.4-0.7-2.2-0.6c-0.8-0.1-1.6,0.1-2.3,0.6c-0.4,0.3-0.7,0.8-0.7,1.4c0,0.4,0.2,0.9,0.5,1.1c0.8,0.5,1.7,0.8,2.6,0.9
		c1,0.2,1.9,0.5,2.9,0.8c0.7,0.3,1.2,0.7,1.7,1.3c0.4,0.5,0.5,1.2,0.5,1.8c0,0.7-0.2,1.4-0.6,1.9c-0.4,0.6-1,1.1-1.7,1.4
		c-0.8,0.3-1.6,0.5-2.5,0.5c-1,0-2-0.1-2.9-0.5c-0.8-0.3-1.4-0.8-1.9-1.5C880.2,37.5,880,36.7,880,35.9z"/>
	<path d="M895.9,40V28.7h-4.2v-1.5h10.2v1.5h-4.3V40H895.9z"/>
</g>
<g>
	<path d="M954.6,40.3V27.4h4.4c0.8,0,1.5,0,2.3,0.2c0.7,0.1,1.3,0.5,1.9,0.9c0.7,0.6,1.2,1.3,1.5,2.2c0.4,1,0.5,2,0.5,3.1
		c0,0.9-0.1,1.8-0.3,2.6c-0.2,0.7-0.5,1.3-0.9,1.9c-0.3,0.5-0.7,0.9-1.2,1.2c-0.5,0.3-1,0.5-1.5,0.6c-0.7,0.2-1.4,0.2-2.1,0.2
		L954.6,40.3z M956.3,38.7h2.8c0.7,0,1.3-0.1,2-0.2c0.4-0.1,0.8-0.4,1.2-0.7c0.4-0.5,0.8-1,0.9-1.6c0.2-0.8,0.4-1.6,0.3-2.5
		c0.1-1.1-0.2-2.2-0.7-3.1c-0.4-0.7-0.9-1.2-1.6-1.5c-0.7-0.2-1.5-0.3-2.2-0.3h-2.7L956.3,38.7z"/>
	<path d="M966.2,40.3l4.9-12.9h1.8l5.3,12.9h-1.9l-1.5-3.9h-5.4l-1.4,3.9H966.2z M969.9,35h4.4l-1.3-3.6c-0.4-1.1-0.7-2-0.9-2.7
		c-0.2,0.8-0.4,1.7-0.7,2.5L969.9,35z"/>
	<path d="M981.6,40.3V28.9h-4.2v-1.5h10.2v1.5h-4.3v11.4H981.6z"/>
	<path d="M986.5,40.3l4.9-12.9h1.8l5.3,12.9h-1.9l-1.5-3.9h-5.4l-1.4,3.9H986.5z M990.3,35h4.4l-1.3-3.6c-0.4-1.1-0.7-2-0.9-2.7
		c-0.2,0.8-0.4,1.7-0.7,2.5L990.3,35z"/>
</g>
<path id="path3733-4-5_00000001663125317444461110000002885179555265459130_" class="st0" d="M909.3,19v28.3"/>
<path id="path3733-4-5_00000072271215796960606740000007617232578408639644_" class="st0" d="M775.4,47.4V19.1h363.9v28.3H775.4z"/>
<g>
	<g>
		<line class="st1" x1="673.2" y1="19.1" x2="679.2" y2="19.1"/>
		<line class="st2" x1="692.1" y1="19.1" x2="762.9" y2="19.1"/>
		<line class="st1" x1="769.4" y1="19.1" x2="775.4" y2="19.1"/>
	</g>
</g>
<g>
	<g>
		<line class="st1" x1="673.2" y1="47.4" x2="679.2" y2="47.4"/>
		<line class="st2" x1="692.1" y1="47.4" x2="762.9" y2="47.4"/>
		<line class="st1" x1="769.4" y1="47.4" x2="775.4" y2="47.4"/>
	</g>
</g>
</svg>
