<svg id="svg8" xmlns="http://www.w3.org/2000/svg" viewBox="0 0 508.3 84.4"><defs><style>.cls-1{fill:none;stroke:#000;stroke-miterlimit:11.3386;stroke-width:1.4173px;}.cls-2{isolation:isolate;}</style></defs><rect id="rect3719" class="cls-1" x="15.2" y="13.1" width="480.6" height="28.3"/><g class="cls-2"><path d="M23.0962,34.13V21.2451h4.86a11.727,11.727,0,0,1,1.96.1231,3.8952,3.8952,0,0,1,1.5908.6015A3.1668,3.1668,0,0,1,32.54,23.2139a4.1925,4.1925,0,0,1-.6547,4.539q-1.046,1.14-3.7793,1.1387H24.8013V34.13Zm1.7051-6.7588h3.331a3.5331,3.5331,0,0,0,2.3467-.6152,2.1922,2.1922,0,0,0,.6943-1.7315,2.3326,2.3326,0,0,0-.4087-1.3848,1.9136,1.9136,0,0,0-1.0766-.76,7.2827,7.2827,0,0,0-1.5908-.1143H24.8013Z"/><path d="M35.1284,34.13V21.2451h5.7129a7.6,7.6,0,0,1,2.6191.3477,2.8629,2.8629,0,0,1,1.4327,1.2256,3.6578,3.6578,0,0,1,.5361,1.9423,3.2406,3.2406,0,0,1-.8877,2.3116,4.4927,4.4927,0,0,1-2.7422,1.1953,4.4173,4.4173,0,0,1,1.0283.6416,8.8574,8.8574,0,0,1,1.4151,1.7138L46.4839,34.13H44.3394l-1.7051-2.6807q-.7471-1.16-1.2305-1.7754a3.8709,3.8709,0,0,0-.8657-.8613A2.56,2.56,0,0,0,39.76,28.47a5.1252,5.1252,0,0,0-.9493-.0615H36.8335V34.13Zm1.7051-7.1983h3.665a5.4973,5.4973,0,0,0,1.8282-.2412,1.9452,1.9452,0,0,0,1.0019-.7734,2.0937,2.0937,0,0,0,.3428-1.1563,1.92,1.92,0,0,0-.6636-1.5029,3.1046,3.1046,0,0,0-2.0962-.5889H36.8335Z"/><path d="M48.1362,34.13V21.2451h9.3164v1.52H49.8413v3.9463h7.1279v1.5117H49.8413v4.3858h7.91v1.52Z"/><path d="M58.6919,34.13,63.64,21.2451h1.837L70.7505,34.13H68.8081l-1.5029-3.9024H61.9175L60.5024,34.13Zm3.7178-5.291h4.3681l-1.3447-3.5684q-.6153-1.626-.9141-2.6719a16.4222,16.4222,0,0,1-.6943,2.461Z"/><path d="M72.06,34.13V21.2451h2.5664l3.05,9.1231q.4218,1.2744.6152,1.9072.22-.7032.6856-2.0654l3.0849-8.9649h2.294V34.13H82.7124V23.3457L78.9683,34.13H77.43L73.7036,23.1611V34.13Z"/><path d="M87.0366,34.13V21.2451h4.834a6.0065,6.0065,0,0,1,2.3691.3906,3.056,3.056,0,0,1,1.3965,1.2051,3.1733,3.1733,0,0,1,.5059,1.7,2.9209,2.9209,0,0,1-.4483,1.5557A3.2,3.2,0,0,1,94.34,27.2744a3.37,3.37,0,0,1,1.7979,1.169,3.1357,3.1357,0,0,1,.6279,1.9511,3.771,3.771,0,0,1-.3818,1.6826,3.2628,3.2628,0,0,1-.9453,1.2,3.9469,3.9469,0,0,1-1.41.6377A8.5864,8.5864,0,0,1,91.95,34.13Zm1.7051-7.4707h2.7861a6.2173,6.2173,0,0,0,1.626-.1494,1.8124,1.8124,0,0,0,.98-.6416,1.8551,1.8551,0,0,0,.3291-1.125,2.0685,2.0685,0,0,0-.3076-1.1289,1.5529,1.5529,0,0,0-.8789-.668,7.3359,7.3359,0,0,0-1.96-.1807H88.7417Zm0,5.95H91.95a7.3878,7.3878,0,0,0,1.16-.0615,2.7805,2.7805,0,0,0,.9843-.3516,1.8614,1.8614,0,0,0,.65-.7168A2.2365,2.2365,0,0,0,95,30.3945a2.1448,2.1448,0,0,0-.3691-1.2529,1.9528,1.9528,0,0,0-1.024-.7461,6.3473,6.3473,0,0,0-1.8852-.2158h-2.98Z"/><path d="M99.0425,34.13V21.2451h1.7051V32.6094h6.3457v1.52Z"/><path d="M109.1587,34.13V21.2451h9.3164v1.52h-7.6113v3.9463h7.1279v1.5117h-7.1279v4.3858h7.91v1.52Z"/></g><path id="path3733" class="cls-1" d="M126.9,13.1V41.4"/><g class="cls-2"><path d="M135.4526,29.99l1.6084-.1406a3.5584,3.5584,0,0,0,.5318,1.5869,2.9163,2.9163,0,0,0,1.2964,1.002,4.9259,4.9259,0,0,0,1.9775.3818,4.74,4.74,0,0,0,1.7227-.29,2.39,2.39,0,0,0,1.1118-.7949,1.8471,1.8471,0,0,0,.3647-1.1036,1.6759,1.6759,0,0,0-.3515-1.0586,2.6053,2.6053,0,0,0-1.16-.7607,22.7264,22.7264,0,0,0-2.2939-.6279,11.7219,11.7219,0,0,1-2.4874-.8047,3.4867,3.4867,0,0,1-1.3754-1.1992,2.9418,2.9418,0,0,1-.4527-1.6045,3.2738,3.2738,0,0,1,.5537-1.8233,3.43,3.43,0,0,1,1.6172-1.2881,6.1367,6.1367,0,0,1,2.3643-.4394,6.4407,6.4407,0,0,1,2.5268.4619,3.6371,3.6371,0,0,1,1.6831,1.3574,3.9,3.9,0,0,1,.6329,2.03l-1.6348.123a2.6382,2.6382,0,0,0-.8921-1.8457,3.4725,3.4725,0,0,0-2.2456-.624,3.6106,3.6106,0,0,0-2.2544.5664,1.7023,1.7023,0,0,0-.7075,1.3672,1.4651,1.4651,0,0,0,.501,1.1426,6.7731,6.7731,0,0,0,2.5708.918,17.0919,17.0919,0,0,1,2.852.8222,3.9066,3.9066,0,0,1,1.6611,1.3145,3.1989,3.1989,0,0,1,.5362,1.832,3.5006,3.5006,0,0,1-.5889,1.9375,3.8726,3.8726,0,0,1-1.6919,1.416,5.9081,5.9081,0,0,1-2.4829.5049,7.413,7.413,0,0,1-2.9312-.51,4.1,4.1,0,0,1-1.8544-1.5341A4.3445,4.3445,0,0,1,135.4526,29.99Z"/><path d="M151.6685,34.13v-5.458l-4.9659-7.4268h2.0743l2.54,3.8848q.703,1.09,1.31,2.18.58-1.0109,1.4062-2.2764l2.4961-3.7881h1.9863l-5.1416,7.4268V34.13Z"/><path d="M160.0269,34.13V21.2451h1.749l6.7676,10.1162V21.2451h1.6347V34.13h-1.749l-6.7676-10.125V34.13Z"/><path d="M182.2368,29.6123l1.7051.4307a5.7411,5.7411,0,0,1-1.9292,3.2041,5.3157,5.3157,0,0,1-3.4058,1.1025,6.1119,6.1119,0,0,1-3.3881-.8486,5.29,5.29,0,0,1-1.9864-2.4561,8.7646,8.7646,0,0,1-.6811-3.4541,7.5972,7.5972,0,0,1,.769-3.5117,5.2671,5.2671,0,0,1,2.1885-2.2754,6.3844,6.3844,0,0,1,3.1245-.7783,5.2821,5.2821,0,0,1,3.252.9844,5.1118,5.1118,0,0,1,1.8369,2.7685l-1.6787.3955a3.9826,3.9826,0,0,0-1.3008-2.0478,3.466,3.466,0,0,0-2.1446-.6416,4.1659,4.1659,0,0,0-2.4829.7119,3.7565,3.7565,0,0,0-1.4018,1.9121,7.6866,7.6866,0,0,0-.4043,2.4736,7.8691,7.8691,0,0,0,.479,2.87,3.5707,3.5707,0,0,0,1.49,1.8321,4.1784,4.1784,0,0,0,2.1885.6064,3.6676,3.6676,0,0,0,2.4258-.8261A4.2284,4.2284,0,0,0,182.2368,29.6123Z"/><path d="M190.9731,34.13V21.2451h4.834a6.0027,6.0027,0,0,1,2.3687.3906,3.0538,3.0538,0,0,1,1.3974,1.2051,3.1718,3.1718,0,0,1,.5054,1.7,2.9217,2.9217,0,0,1-.4482,1.5557,3.2009,3.2009,0,0,1-1.3535,1.1777,3.3648,3.3648,0,0,1,1.7973,1.169,3.13,3.13,0,0,1,.6284,1.9511,3.758,3.758,0,0,1-.3823,1.6826,3.2517,3.2517,0,0,1-.9448,1.2,3.9415,3.9415,0,0,1-1.4107.6377,8.5792,8.5792,0,0,1-2.0786.2149Zm1.7051-7.4707h2.7862A6.2169,6.2169,0,0,0,197.09,26.51a1.8073,1.8073,0,0,0,.98-.6416,1.8487,1.8487,0,0,0,.33-1.125,2.0676,2.0676,0,0,0-.3076-1.1289,1.5529,1.5529,0,0,0-.8789-.668,7.3359,7.3359,0,0,0-1.96-.1807h-2.5752Zm0,5.95h3.208a7.3878,7.3878,0,0,0,1.16-.0615,2.7811,2.7811,0,0,0,.9844-.3516,1.8629,1.8629,0,0,0,.65-.7168,2.2376,2.2376,0,0,0,.2548-1.085,2.1448,2.1448,0,0,0-.3691-1.2529,1.951,1.951,0,0,0-1.0239-.7461,6.3485,6.3485,0,0,0-1.8853-.2158h-2.98Z"/><path d="M211.5044,21.2451H213.21V28.69a8.81,8.81,0,0,1-.4395,3.0849,3.7684,3.7684,0,0,1-1.5859,1.8594,5.6227,5.6227,0,0,1-3.0108.7158,6.1871,6.1871,0,0,1-2.9619-.624,3.559,3.559,0,0,1-1.6435-1.8067,8.5983,8.5983,0,0,1-.4922-3.2294V21.2451h1.7051v7.4356a7.2523,7.2523,0,0,0,.312,2.4746,2.3682,2.3682,0,0,0,1.0722,1.2256,3.7187,3.7187,0,0,0,1.8589.4306,3.553,3.553,0,0,0,2.6807-.8525,4.9116,4.9116,0,0,0,.8-3.2783Z"/><path d="M216.0747,34.13V21.2451h5.7129a7.6,7.6,0,0,1,2.6191.3477,2.8629,2.8629,0,0,1,1.4327,1.2256,3.6578,3.6578,0,0,1,.5361,1.9423,3.2406,3.2406,0,0,1-.8877,2.3116,4.4927,4.4927,0,0,1-2.7422,1.1953,4.4173,4.4173,0,0,1,1.0283.6416,8.8574,8.8574,0,0,1,1.4151,1.7138L227.43,34.13h-2.1446l-1.705-2.6807q-.7471-1.16-1.2305-1.7754a3.8527,3.8527,0,0,0-.8662-.8613,2.5465,2.5465,0,0,0-.7774-.3428,5.1232,5.1232,0,0,0-.9492-.0615H217.78V34.13Zm1.7051-7.1983h3.665a5.4962,5.4962,0,0,0,1.8281-.2412,1.945,1.945,0,0,0,1.002-.7734,2.0937,2.0937,0,0,0,.3428-1.1563,1.9227,1.9227,0,0,0-.6631-1.5029,3.1079,3.1079,0,0,0-2.0967-.5889H217.78Z"/><path d="M228.4673,29.99l1.6084-.1406a3.5462,3.5462,0,0,0,.5322,1.5869,2.91,2.91,0,0,0,1.2959,1.002,4.9259,4.9259,0,0,0,1.9775.3818,4.74,4.74,0,0,0,1.7227-.29,2.3869,2.3869,0,0,0,1.1113-.7949,1.847,1.847,0,0,0,.3653-1.1036,1.6754,1.6754,0,0,0-.3516-1.0586,2.6053,2.6053,0,0,0-1.16-.7607,22.7183,22.7183,0,0,0-2.2939-.6279,11.7185,11.7185,0,0,1-2.4873-.8047,3.4792,3.4792,0,0,1-1.375-1.1992,2.9345,2.9345,0,0,1-.4531-1.6045,3.273,3.273,0,0,1,.5537-1.8233,3.43,3.43,0,0,1,1.6172-1.2881,6.1362,6.1362,0,0,1,2.3642-.4394,6.4472,6.4472,0,0,1,2.5274.4619,3.6412,3.6412,0,0,1,1.6826,1.3574,3.9,3.9,0,0,1,.6328,2.03l-1.6348.123a2.6413,2.6413,0,0,0-.8916-1.8457,3.4757,3.4757,0,0,0-2.2461-.624,3.6072,3.6072,0,0,0-2.2539.5664,1.7,1.7,0,0,0-.708,1.3672,1.4651,1.4651,0,0,0,.501,1.1426,6.77,6.77,0,0,0,2.57.918,17.1038,17.1038,0,0,1,2.8526.8222,3.9066,3.9066,0,0,1,1.6611,1.3145,3.2,3.2,0,0,1,.5361,1.832,3.5013,3.5013,0,0,1-.5888,1.9375,3.8771,3.8771,0,0,1-1.6915,1.416,5.9134,5.9134,0,0,1-2.4834.5049,7.4065,7.4065,0,0,1-2.9306-.51,4.1019,4.1019,0,0,1-1.8555-1.5341A4.3527,4.3527,0,0,1,228.4673,29.99Z"/><path d="M244.3315,34.13V22.7656h-4.2451v-1.52h10.2129v1.52h-4.2627V34.13Z"/></g><g class="cls-2"><path d="M313.1152,34.3457V21.4609h4.4385a10.7694,10.7694,0,0,1,2.294.1846,4.3634,4.3634,0,0,1,1.89.9229,5.2476,5.2476,0,0,1,1.5254,2.2011,8.65,8.65,0,0,1,.5049,3.0635,9.0007,9.0007,0,0,1-.3428,2.6016,6.2966,6.2966,0,0,1-.8789,1.8759,4.6551,4.6551,0,0,1-1.1729,1.17,4.7842,4.7842,0,0,1-1.538.6455,8.7828,8.7828,0,0,1-2.07.22Zm1.7051-1.52h2.751a6.68,6.68,0,0,0,2-.2373,2.8586,2.8586,0,0,0,1.1553-.668,4.06,4.06,0,0,0,.9453-1.6308,7.9645,7.9645,0,0,0,.3379-2.4825,6,6,0,0,0-.6631-3.1074,3.3448,3.3448,0,0,0-1.6133-1.4541,6.6658,6.6658,0,0,0-2.2061-.2637H314.82Z"/><path d="M324.6992,34.3457l4.9483-12.8848h1.8369l5.2734,12.8848h-1.9424l-1.5029-3.9023h-5.3877l-1.415,3.9023Zm3.7178-5.291h4.3682L331.44,25.4863q-.6152-1.626-.914-2.6718a16.4248,16.4248,0,0,1-.6944,2.4609Z"/><path d="M340.0625,34.3457V22.9814h-4.2451V21.4609H346.03v1.5205h-4.2627V34.3457Z"/><path d="M345.0283,34.3457l4.9483-12.8848h1.8369l5.2734,12.8848h-1.9424l-1.5029-3.9023h-5.3877l-1.415,3.9023Zm3.7178-5.291h4.3682L351.77,25.4863q-.6151-1.626-.914-2.6718a16.4248,16.4248,0,0,1-.6944,2.4609Z"/></g><path id="path3733-4-5" class="cls-1" d="M257.8,13.1V41.4"/><g class="cls-2"><path d="M436.8857,34.13V21.2451h9.3164v1.52h-7.6113v3.9463h7.128v1.5117h-7.128v4.3858h7.91v1.52Z"/><path d="M448.3379,27.8545a7.0046,7.0046,0,0,1,1.7226-5.0234,5.86,5.86,0,0,1,4.4473-1.8145,6.17,6.17,0,0,1,3.2168.8525,5.5683,5.5683,0,0,1,2.1836,2.378,7.7192,7.7192,0,0,1,.752,3.458,7.5913,7.5913,0,0,1-.7911,3.5068,5.3934,5.3934,0,0,1-2.2412,2.3418,6.3925,6.3925,0,0,1-3.1289.7959,6.0924,6.0924,0,0,1-3.2519-.8789,5.6554,5.6554,0,0,1-2.1709-2.3994A7.2715,7.2715,0,0,1,448.3379,27.8545Zm1.7578.0264a5.1586,5.1586,0,0,0,1.252,3.6689,4.3687,4.3687,0,0,0,6.3105-.0127,5.4727,5.4727,0,0,0,1.2441-3.8408A6.5949,6.5949,0,0,0,458.37,24.95a4.0879,4.0879,0,0,0-1.5556-1.82,4.2241,4.2241,0,0,0-2.2979-.6455A4.3645,4.3645,0,0,0,451.4,23.7275Q450.0953,24.9727,450.0957,27.8809Z"/><path d="M466.1357,34.13V22.7656h-4.2451v-1.52h10.2129v1.52h-4.2627V34.13Z"/></g><path id="path3733-4-5-1-3" class="cls-1" d="M410.5,13.1V41.4"/><g class="cls-2"><g class="cls-2"><path d="M61.0674,59.7266V57.67H57.3408v-.9668l3.92-5.5664h.8614v5.5664h1.16V57.67h-1.16v2.0567Zm0-3.0235V52.83l-2.69,3.873Z"/><path d="M64.36,55.49a7.86,7.86,0,0,1,.3134-2.4521,3.05,3.05,0,0,1,.9317-1.4326,2.3812,2.3812,0,0,1,1.5556-.5039,2.5371,2.5371,0,0,1,1.2129.2783,2.3183,2.3183,0,0,1,.8614.8027,4.31,4.31,0,0,1,.5332,1.2774,8.4869,8.4869,0,0,1,.1933,2.03,7.8843,7.8843,0,0,1-.3105,2.4405,3.0516,3.0516,0,0,1-.9287,1.4355,2.382,2.382,0,0,1-1.5616.5068,2.3568,2.3568,0,0,1-1.9511-.8906A5.6606,5.6606,0,0,1,64.36,55.49Zm1.0839,0a5.3858,5.3858,0,0,0,.4952,2.8155,1.4143,1.4143,0,0,0,2.4433-.003,5.3873,5.3873,0,0,0,.4951-2.8125,5.384,5.384,0,0,0-.4951-2.8183,1.4694,1.4694,0,0,0-1.2334-.6973,1.3514,1.3514,0,0,0-1.16.6152A5.4476,5.4476,0,0,0,65.4443,55.49Z"/><path d="M71.3271,59.7266V53.5039h.9434v.8731a2.2176,2.2176,0,0,1,.7793-.7354,2.19,2.19,0,0,1,1.1074-.2783,2.0469,2.0469,0,0,1,1.1338.2871,1.5368,1.5368,0,0,1,.624.8027,2.2343,2.2343,0,0,1,1.9219-1.09,1.8941,1.8941,0,0,1,1.4238.5127,2.1907,2.1907,0,0,1,.4981,1.5791v4.2715H78.71v-3.92a2.8848,2.8848,0,0,0-.1026-.9111.8823.8823,0,0,0-.372-.4482,1.1616,1.1616,0,0,0-.6329-.17,1.4728,1.4728,0,0,0-1.09.4366,1.9223,1.9223,0,0,0-.4336,1.3974v3.6153H75.0244v-4.043a1.7787,1.7787,0,0,0-.2578-1.0547.9762.9762,0,0,0-.8437-.3516,1.5334,1.5334,0,0,0-.8233.2344,1.33,1.33,0,0,0-.5478.6856,3.8573,3.8573,0,0,0-.17,1.3007v3.2286Z"/><path d="M80.9014,57.8691l1.0429-.164a1.4576,1.4576,0,0,0,.4893.9609A1.7051,1.7051,0,0,0,83.5557,59a1.6484,1.6484,0,0,0,1.0781-.2959.8849.8849,0,0,0,.3516-.6943.6406.6406,0,0,0-.3106-.5625,4.5733,4.5733,0,0,0-1.0781-.3575,9.8326,9.8326,0,0,1-1.6084-.5068,1.5353,1.5353,0,0,1-.9112-1.4268,1.6025,1.6025,0,0,1,.1905-.77,1.7069,1.7069,0,0,1,.5185-.5888,2.1724,2.1724,0,0,1,.6709-.3076,3.19,3.19,0,0,1,.9112-.126,3.6021,3.6021,0,0,1,1.2861.2109,1.75,1.75,0,0,1,.8174.5713,2.2317,2.2317,0,0,1,.3633.9639l-1.0313.1406a1.1281,1.1281,0,0,0-.4072-.75,1.49,1.49,0,0,0-.9522-.27,1.7243,1.7243,0,0,0-1.0371.24.7.7,0,0,0-.3105.5625.5816.5816,0,0,0,.1289.3691.93.93,0,0,0,.4043.2813q.1582.0587.9316.27a12.9526,12.9526,0,0,1,1.5615.4893,1.5837,1.5837,0,0,1,.6944.5537,1.5454,1.5454,0,0,1,.2519.9023,1.77,1.77,0,0,1-.3076.9932,1.9886,1.9886,0,0,1-.8877.7207,3.2314,3.2314,0,0,1-1.3125.2549,2.9239,2.9239,0,0,1-1.8486-.5039A2.3437,2.3437,0,0,1,80.9014,57.8691Z"/></g><g class="cls-2"><path d="M38.2949,76.6514a10.5436,10.5436,0,0,1-1.4765-2.5782,8.09,8.09,0,0,1-.1524-5.73A11.2321,11.2321,0,0,1,38.2949,65.39h.7559q-.7091,1.2188-.9375,1.74a9.501,9.501,0,0,0-.5625,1.6875,9.7993,9.7993,0,0,0-.252,2.2031,10.5737,10.5737,0,0,0,1.752,5.6309Z"/><path d="M43.9551,74.126H42.9V67.4053a5.4509,5.4509,0,0,1-.999.7265,7.0832,7.0832,0,0,1-1.11.545v-1.02a6.368,6.368,0,0,0,1.5469-1.0078,3.9638,3.9638,0,0,0,.9375-1.1484h.68Z"/><path d="M46.8145,72.14l1.0136-.0937A1.7612,1.7612,0,0,0,48.32,73.083a1.3514,1.3514,0,0,0,.9317.3223,1.6077,1.6077,0,0,0,.8525-.2227,1.8213,1.8213,0,0,0,.6006-.5947,3.4984,3.4984,0,0,0,.3926-1.0049,5.2987,5.2987,0,0,0,.1582-1.2891q0-.07-.0059-.2109a2.4155,2.4155,0,0,1-.8643.8174,2.3484,2.3484,0,0,1-1.1865.3135,2.3992,2.3992,0,0,1-1.8047-.7735,2.83,2.83,0,0,1-.7383-2.039,2.898,2.898,0,0,1,.7706-2.1035,2.5738,2.5738,0,0,1,1.9306-.7969,2.7543,2.7543,0,0,1,1.5322.4511,2.8183,2.8183,0,0,1,1.0547,1.2862,6.3326,6.3326,0,0,1,.36,2.417,7.8246,7.8246,0,0,1-.3574,2.622,3.0712,3.0712,0,0,1-1.0635,1.4854,2.7532,2.7532,0,0,1-1.6553.51,2.2689,2.2689,0,0,1-2.414-2.1329Zm4.3183-3.791a2.065,2.065,0,0,0-.4834-1.4414,1.5155,1.5155,0,0,0-1.1631-.5332,1.6057,1.6057,0,0,0-1.2246.5742,2.1287,2.1287,0,0,0-.5215,1.4883,1.8385,1.8385,0,0,0,.4952,1.333,1.6309,1.6309,0,0,0,1.2216.5127,1.5636,1.5636,0,0,0,1.2041-.5127A2.0192,2.0192,0,0,0,51.1328,68.3486Z"/><path d="M58.873,73.1123V74.126H53.1953a1.8646,1.8646,0,0,1,.1231-.7324,3.872,3.872,0,0,1,.6943-1.1426,10.88,10.88,0,0,1,1.38-1.3008,11.7028,11.7028,0,0,0,1.8926-1.8193,2.1788,2.1788,0,0,0,.4921-1.2686,1.4094,1.4094,0,0,0-.4482-1.0576A1.6169,1.6169,0,0,0,56.16,66.374a1.6472,1.6472,0,0,0-1.2188.4571,1.729,1.729,0,0,0-.4629,1.2656l-1.084-.1113a2.6686,2.6686,0,0,1,.8379-1.8487,2.8584,2.8584,0,0,1,1.9512-.6357,2.7226,2.7226,0,0,1,1.957.6855,2.2507,2.2507,0,0,1,.7207,1.6992,2.5774,2.5774,0,0,1-.2109,1.0137,3.9316,3.9316,0,0,1-.7,1.0488,17.0706,17.0706,0,0,1-1.626,1.5118q-.9492.7968-1.2187,1.081a3.4648,3.4648,0,0,0-.4453.5713Z"/><path d="M63.3789,71.3662l1.0723-.0937a2.3677,2.3677,0,0,0,.3545,1.0576,1.9345,1.9345,0,0,0,.8642.6679,3.2717,3.2717,0,0,0,1.3184.2549,3.1589,3.1589,0,0,0,1.1484-.1933,1.5926,1.5926,0,0,0,.7412-.53,1.23,1.23,0,0,0,.2432-.7354,1.1176,1.1176,0,0,0-.2344-.706,1.7351,1.7351,0,0,0-.7734-.5068,15.1171,15.1171,0,0,0-1.5293-.419,7.8143,7.8143,0,0,1-1.6582-.5361,2.3259,2.3259,0,0,1-.917-.8,1.96,1.96,0,0,1-.3018-1.0694,2.1832,2.1832,0,0,1,.3692-1.2158,2.2857,2.2857,0,0,1,1.0781-.8584,4.09,4.09,0,0,1,1.5762-.293,4.3051,4.3051,0,0,1,1.6845.3077,2.4288,2.4288,0,0,1,1.1221.9052,2.6,2.6,0,0,1,.4219,1.3536l-1.09.082a1.7586,1.7586,0,0,0-.5947-1.2305,2.3152,2.3152,0,0,0-1.4971-.416,2.4028,2.4028,0,0,0-1.5029.3779,1.1337,1.1337,0,0,0-.4717.9112.9769.9769,0,0,0,.334.7617,4.5271,4.5271,0,0,0,1.7139.6123,11.3471,11.3471,0,0,1,1.9014.5478,2.6046,2.6046,0,0,1,1.1074.876A2.134,2.134,0,0,1,70.2168,71.7a2.3368,2.3368,0,0,1-.3926,1.292,2.5847,2.5847,0,0,1-1.1279.9433,3.9281,3.9281,0,0,1-1.6553.337,4.9419,4.9419,0,0,1-1.9541-.34A2.7364,2.7364,0,0,1,63.8506,72.91,2.8993,2.8993,0,0,1,63.3789,71.3662Z"/><path d="M71.5879,76.5225l-.1172-.99a2.3506,2.3506,0,0,0,.6035.0938,1.1582,1.1582,0,0,0,.5625-.1172.9579.9579,0,0,0,.3457-.3281,5.1813,5.1813,0,0,0,.3223-.7852q.0293-.0879.0937-.2578l-2.3613-6.2344h1.1367l1.295,3.6035q.2519.6856.4511,1.4414a14.1858,14.1858,0,0,1,.4336-1.4179l1.33-3.627h1.0547l-2.3672,6.3281a12.4348,12.4348,0,0,1-.5918,1.4122,2.083,2.083,0,0,1-.6445.7646,1.5226,1.5226,0,0,1-.8672.2432A2.1134,2.1134,0,0,1,71.5879,76.5225Z"/><path d="M77.6348,74.126V67.9033h.9433v.8731a2.2185,2.2185,0,0,1,.7793-.7354,2.19,2.19,0,0,1,1.1074-.2783,2.0469,2.0469,0,0,1,1.1338.2871,1.5364,1.5364,0,0,1,.6241.8027,2.234,2.234,0,0,1,1.9218-1.09,1.8945,1.8945,0,0,1,1.4239.5127,2.1913,2.1913,0,0,1,.498,1.5791V74.126H85.0176v-3.92a2.8851,2.8851,0,0,0-.1026-.9112.8822.8822,0,0,0-.372-.4482,1.1615,1.1615,0,0,0-.6328-.17,1.4729,1.4729,0,0,0-1.09.4365,1.9223,1.9223,0,0,0-.4336,1.3974V74.126H81.332V70.083a1.7789,1.7789,0,0,0-.2578-1.0547.9762.9762,0,0,0-.8437-.3515,1.5333,1.5333,0,0,0-.8233.2343,1.33,1.33,0,0,0-.5478.6856,3.8588,3.8588,0,0,0-.17,1.3008V74.126Z"/><path d="M88.6035,74.126H87.625v-8.59H88.68v3.0645a2.0869,2.0869,0,0,1,1.7051-.8379,2.6113,2.6113,0,0,1,1.0869.2314,2.22,2.22,0,0,1,.8437.65,3.1437,3.1437,0,0,1,.5186,1.0108,4.1669,4.1669,0,0,1,.1875,1.2656,3.5551,3.5551,0,0,1-.791,2.4727,2.4743,2.4743,0,0,1-1.8985.873,1.9815,1.9815,0,0,1-1.7285-.92Zm-.0117-3.1582a3.23,3.23,0,0,0,.3047,1.6172,1.5075,1.5075,0,0,0,2.543.2138,2.7292,2.7292,0,0,0,.5039-1.79A2.7766,2.7766,0,0,0,91.46,69.21a1.4721,1.4721,0,0,0-1.169-.58,1.5169,1.5169,0,0,0-1.1953.6006A2.6367,2.6367,0,0,0,88.5918,70.9678Z"/><path d="M93.9121,71.0146a3.2074,3.2074,0,0,1,.9609-2.5605,2.8958,2.8958,0,0,1,1.9571-.6914,2.7919,2.7919,0,0,1,2.0976.8408,3.199,3.199,0,0,1,.8145,2.3233,4.1157,4.1157,0,0,1-.36,1.89,2.55,2.55,0,0,1-1.0488,1.0693,3.0538,3.0538,0,0,1-1.5029.3809,2.797,2.797,0,0,1-2.1123-.8379A3.3469,3.3469,0,0,1,93.9121,71.0146Zm1.084,0a2.65,2.65,0,0,0,.5215,1.79,1.7364,1.7364,0,0,0,2.6191-.0029,2.7132,2.7132,0,0,0,.5215-1.8223,2.571,2.571,0,0,0-.5244-1.749,1.7387,1.7387,0,0,0-2.6162-.003A2.6385,2.6385,0,0,0,94.9961,71.0146Z"/><path d="M100.9551,74.126v-8.59H102.01v8.59Z"/><path d="M103.2227,72.2686l1.0429-.1641a1.4574,1.4574,0,0,0,.4893.9609,1.7051,1.7051,0,0,0,1.1221.334,1.6484,1.6484,0,0,0,1.0781-.2959.8848.8848,0,0,0,.3515-.6943.6405.6405,0,0,0-.3105-.5625,4.57,4.57,0,0,0-1.0781-.3574,9.84,9.84,0,0,1-1.6084-.5069,1.5353,1.5353,0,0,1-.9112-1.4267,1.6019,1.6019,0,0,1,.1905-.77,1.7064,1.7064,0,0,1,.5185-.5889,2.1747,2.1747,0,0,1,.6709-.3076,3.19,3.19,0,0,1,.9112-.126,3.6025,3.6025,0,0,1,1.2861.2109,1.75,1.75,0,0,1,.8174.5713,2.2322,2.2322,0,0,1,.3632.9639l-1.0312.1406a1.1281,1.1281,0,0,0-.4072-.75,1.49,1.49,0,0,0-.9522-.2695,1.7246,1.7246,0,0,0-1.0371.24.7.7,0,0,0-.31.5625.5821.5821,0,0,0,.1289.3692.93.93,0,0,0,.4043.2812q.1581.0587.9316.27a12.9713,12.9713,0,0,1,1.5615.4893,1.5844,1.5844,0,0,1,.6944.5537,1.5462,1.5462,0,0,1,.2519.9024,1.77,1.77,0,0,1-.3076.9931,1.988,1.988,0,0,1-.8877.7207,3.2314,3.2314,0,0,1-1.3125.2549,2.9239,2.9239,0,0,1-1.8486-.5039A2.343,2.343,0,0,1,103.2227,72.2686Z"/><path d="M110.3359,76.6514H109.58a10.5744,10.5744,0,0,0,1.7519-5.6309,9.626,9.626,0,0,0-.2519-2.1855,9.1806,9.1806,0,0,0-.5567-1.6875A19.8008,19.8008,0,0,0,109.58,65.39h.7558a11.2292,11.2292,0,0,1,1.6289,2.9532,8.0717,8.0717,0,0,1-.1552,5.73A10.7281,10.7281,0,0,1,110.3359,76.6514Z"/></g></g><g class="cls-2"><g class="cls-2"><path d="M180.3525,59.7266h-1.0546V53.0059a5.46,5.46,0,0,1-.9991.7265,7.0812,7.0812,0,0,1-1.11.5449V53.2578a6.3719,6.3719,0,0,0,1.5469-1.0078,3.9638,3.9638,0,0,0,.9375-1.1484h.68Z"/><path d="M188.5264,53.24l-1.0489.0821a1.9853,1.9853,0,0,0-.3984-.9024,1.3957,1.3957,0,0,0-1.0547-.4511,1.45,1.45,0,0,0-.8848.2812,2.4038,2.4038,0,0,0-.7851,1.06,5.5427,5.5427,0,0,0-.2988,1.9864,2.4441,2.4441,0,0,1,.9316-.8614,2.5057,2.5057,0,0,1,1.1543-.2812,2.3912,2.3912,0,0,1,1.7959.7764,2.7866,2.7866,0,0,1,.7412,2.0068A3.3022,3.3022,0,0,1,188.33,58.44a2.54,2.54,0,0,1-.958,1.0635,2.6159,2.6159,0,0,1-1.3828.3691,2.7021,2.7021,0,0,1-2.15-.97,4.8957,4.8957,0,0,1-.8321-3.1963,5.73,5.73,0,0,1,.92-3.6211,2.6447,2.6447,0,0,1,2.1621-.9843,2.3008,2.3008,0,0,1,2.4375,2.1386ZM184.22,56.9434a2.4464,2.4464,0,0,0,.2315,1.0429,1.7246,1.7246,0,0,0,.6474.7588,1.62,1.62,0,0,0,.8731.2608,1.4878,1.4878,0,0,0,1.1484-.5391,2.1219,2.1219,0,0,0,.48-1.4648,1.9856,1.9856,0,0,0-.4746-1.4034,1.56,1.56,0,0,0-1.1953-.5127,1.627,1.627,0,0,0-1.2129.5127A1.848,1.848,0,0,0,184.22,56.9434Z"/><path d="M194.3271,59.7266h-.9785v-8.59h1.0547v3.0645a2.0869,2.0869,0,0,1,1.7051-.8379,2.6113,2.6113,0,0,1,1.0869.2314,2.22,2.22,0,0,1,.8438.65,3.1436,3.1436,0,0,1,.5185,1.0108,4.1669,4.1669,0,0,1,.1875,1.2656,3.5546,3.5546,0,0,1-.791,2.4726,2.4739,2.4739,0,0,1-1.8984.8731,1.9818,1.9818,0,0,1-1.7286-.92Zm-.0117-3.1582a3.2294,3.2294,0,0,0,.3047,1.6171,1.5075,1.5075,0,0,0,2.543.2139,2.7294,2.7294,0,0,0,.5039-1.79,2.7765,2.7765,0,0,0-.4834-1.7989,1.4722,1.4722,0,0,0-1.169-.58,1.517,1.517,0,0,0-1.1953.6006A2.6364,2.6364,0,0,0,194.3154,56.5684Z"/><path d="M200.0342,52.35V51.1367h1.0547V52.35Zm0,7.377V53.5039h1.0547v6.2227Z"/><path d="M204.9971,58.7832l.1523.9316a3.9127,3.9127,0,0,1-.7969.0938,1.8052,1.8052,0,0,1-.8906-.1816,1.017,1.017,0,0,1-.4453-.4776,3.7774,3.7774,0,0,1-.1289-1.2451v-3.58h-.7734v-.82h.7734v-1.541l1.0488-.6328v2.1738h1.0606v.82h-1.0606v3.6387a1.8384,1.8384,0,0,0,.0557.58.4386.4386,0,0,0,.1816.205.7015.7015,0,0,0,.36.0762A3.4376,3.4376,0,0,0,204.9971,58.7832Z"/><path d="M205.6064,57.8691l1.043-.164a1.4576,1.4576,0,0,0,.4893.9609,1.7048,1.7048,0,0,0,1.122.334,1.6485,1.6485,0,0,0,1.0782-.2959.8851.8851,0,0,0,.3515-.6943.6405.6405,0,0,0-.3105-.5625,4.5733,4.5733,0,0,0-1.0781-.3575,9.8326,9.8326,0,0,1-1.6084-.5068,1.5353,1.5353,0,0,1-.9112-1.4268,1.6025,1.6025,0,0,1,.1905-.77,1.7069,1.7069,0,0,1,.5185-.5888,2.1724,2.1724,0,0,1,.6709-.3076,3.19,3.19,0,0,1,.9111-.126,3.6027,3.6027,0,0,1,1.2862.2109,1.75,1.75,0,0,1,.8174.5713,2.233,2.233,0,0,1,.3632.9639l-1.0312.1406a1.1281,1.1281,0,0,0-.4072-.75,1.49,1.49,0,0,0-.9522-.27,1.7238,1.7238,0,0,0-1.0371.24.7.7,0,0,0-.3105.5625.5816.5816,0,0,0,.1289.3691.93.93,0,0,0,.4043.2813q.1581.0587.9316.27a12.9526,12.9526,0,0,1,1.5615.4893,1.5843,1.5843,0,0,1,.6944.5537,1.5461,1.5461,0,0,1,.2519.9023,1.77,1.77,0,0,1-.3076.9932,1.9886,1.9886,0,0,1-.8877.7207,3.2314,3.2314,0,0,1-1.3125.2549,2.9239,2.9239,0,0,1-1.8486-.5039A2.3434,2.3434,0,0,1,205.6064,57.8691Z"/></g><g class="cls-2"><path d="M166.7886,76.6523a10.5412,10.5412,0,0,1-1.4766-2.5781,8.091,8.091,0,0,1-.1523-5.73,11.2292,11.2292,0,0,1,1.6289-2.9532h.7558q-.7089,1.2188-.9375,1.74a9.5172,9.5172,0,0,0-.5625,1.6875,9.8043,9.8043,0,0,0-.2519,2.2031,10.574,10.574,0,0,0,1.7519,5.6308Z"/><path d="M170.0991,69.4688a1.9852,1.9852,0,0,1-.9726-.6856,1.7925,1.7925,0,0,1-.3164-1.0664,2.0856,2.0856,0,0,1,.6738-1.5762,2.8359,2.8359,0,0,1,3.6035.0147,2.1146,2.1146,0,0,1,.6855,1.5908,1.752,1.752,0,0,1-.3134,1.04,1.9769,1.9769,0,0,1-.9522.6827,2.3087,2.3087,0,0,1,1.2041.832,2.2851,2.2851,0,0,1,.4131,1.3711,2.4678,2.4678,0,0,1-.7793,1.8515,3.174,3.174,0,0,1-4.1015-.0029,2.5039,2.5039,0,0,1-.7793-1.8779,2.27,2.27,0,0,1,.4248-1.4033A2.1269,2.1269,0,0,1,170.0991,69.4688Zm-.5508,2.18a1.9082,1.9082,0,0,0,.2139.8731,1.51,1.51,0,0,0,.6357.6533,1.8587,1.8587,0,0,0,.9083.2314,1.7019,1.7019,0,0,0,1.248-.4863,1.6644,1.6644,0,0,0,.4922-1.2363,1.6923,1.6923,0,0,0-.5068-1.26,1.7372,1.7372,0,0,0-1.2686-.498,1.6776,1.6776,0,0,0-1.7227,1.7226Zm.34-3.9668a1.3371,1.3371,0,0,0,.3926.9961,1.3906,1.3906,0,0,0,1.0195.3868,1.3639,1.3639,0,0,0,.999-.3838,1.2692,1.2692,0,0,0,.39-.9405,1.3157,1.3157,0,0,0-.4014-.9756,1.4752,1.4752,0,0,0-2.001-.0087A1.2449,1.2449,0,0,0,169.8882,67.6816Z"/><path d="M178.355,72.27l1.0429-.164a1.4576,1.4576,0,0,0,.4893.9609,1.7051,1.7051,0,0,0,1.1221.334,1.6482,1.6482,0,0,0,1.0781-.2959.8849.8849,0,0,0,.3516-.6943.6406.6406,0,0,0-.3106-.5625A4.5733,4.5733,0,0,0,181.05,71.49a9.8359,9.8359,0,0,1-1.6084-.5068,1.535,1.535,0,0,1-.9111-1.4268,1.6024,1.6024,0,0,1,.19-.77,1.7069,1.7069,0,0,1,.5185-.5888,2.1746,2.1746,0,0,1,.6709-.3077,3.1938,3.1938,0,0,1,.9112-.1259,3.6017,3.6017,0,0,1,1.2861.2109,1.7492,1.7492,0,0,1,.8174.5713,2.2317,2.2317,0,0,1,.3633.9639l-1.0313.1406a1.1281,1.1281,0,0,0-.4072-.75,1.49,1.49,0,0,0-.9522-.27,1.7243,1.7243,0,0,0-1.0371.24.6994.6994,0,0,0-.3105.5625.5822.5822,0,0,0,.1289.3691.93.93,0,0,0,.4043.2813q.1583.0585.9316.2695a12.9619,12.9619,0,0,1,1.5616.4893,1.584,1.584,0,0,1,.6943.5537,1.5454,1.5454,0,0,1,.2519.9023,1.7707,1.7707,0,0,1-.3076.9932,1.9875,1.9875,0,0,1-.8877.7207,3.2314,3.2314,0,0,1-1.3125.2549,2.9239,2.9239,0,0,1-1.8486-.5039A2.3437,2.3437,0,0,1,178.355,72.27Z"/><path d="M184.73,76.5234l-.1172-.99a2.3506,2.3506,0,0,0,.6035.0938,1.1582,1.1582,0,0,0,.5625-.1172.9582.9582,0,0,0,.3457-.3282,5.1735,5.1735,0,0,0,.3223-.7851q.0292-.0879.0937-.2578l-2.3613-6.2344h1.1367l1.2949,3.6035q.252.6855.4512,1.4414a14.1877,14.1877,0,0,1,.4336-1.418l1.33-3.6269H189.88l-2.3672,6.3281a12.4228,12.4228,0,0,1-.5918,1.4121,2.0835,2.0835,0,0,1-.6445.7647,1.5226,1.5226,0,0,1-.8672.2431A2.11,2.11,0,0,1,184.73,76.5234Z"/><path d="M190.7769,74.127V67.9043h.9433v.873a2.2182,2.2182,0,0,1,.7793-.7353,2.1889,2.1889,0,0,1,1.1074-.2783,2.0469,2.0469,0,0,1,1.1338.2871,1.5363,1.5363,0,0,1,.624.8027,2.2343,2.2343,0,0,1,1.9219-1.09,1.8941,1.8941,0,0,1,1.4238.5127,2.1907,2.1907,0,0,1,.4981,1.5791V74.127H198.16v-3.92a2.8844,2.8844,0,0,0-.1026-.9111.8823.8823,0,0,0-.372-.4482,1.1616,1.1616,0,0,0-.6329-.17,1.4724,1.4724,0,0,0-1.09.4366,1.9223,1.9223,0,0,0-.4336,1.3974V74.127h-1.0547V70.084a1.7787,1.7787,0,0,0-.2578-1.0547.9762.9762,0,0,0-.8437-.3516,1.5334,1.5334,0,0,0-.8233.2344,1.33,1.33,0,0,0-.5478.6856,3.8573,3.8573,0,0,0-.17,1.3007V74.127Z"/><path d="M201.7456,74.127h-.9785v-8.59h1.0547v3.0645a2.0868,2.0868,0,0,1,1.7051-.8379,2.6113,2.6113,0,0,1,1.0869.2314,2.22,2.22,0,0,1,.8437.65,3.1442,3.1442,0,0,1,.5186,1.0107,4.1681,4.1681,0,0,1,.1875,1.2657,3.5546,3.5546,0,0,1-.791,2.4726,2.4741,2.4741,0,0,1-1.8985.8731,1.9816,1.9816,0,0,1-1.7285-.92Zm-.0117-3.1582a3.2286,3.2286,0,0,0,.3047,1.6171,1.5074,1.5074,0,0,0,2.5429.2139,2.7288,2.7288,0,0,0,.5039-1.79,2.7772,2.7772,0,0,0-.4833-1.7989,1.4723,1.4723,0,0,0-1.169-.58,1.5171,1.5171,0,0,0-1.1953.6A2.6369,2.6369,0,0,0,201.7339,70.9688Z"/><path d="M207.0542,71.0156a3.2074,3.2074,0,0,1,.9609-2.5605,2.8953,2.8953,0,0,1,1.9571-.6914,2.7915,2.7915,0,0,1,2.0976.8408,3.1987,3.1987,0,0,1,.8145,2.3232,4.1159,4.1159,0,0,1-.36,1.89,2.55,2.55,0,0,1-1.0488,1.0693,3.0538,3.0538,0,0,1-1.5029.3809A2.797,2.797,0,0,1,207.86,73.43,3.3469,3.3469,0,0,1,207.0542,71.0156Zm1.084,0a2.65,2.65,0,0,0,.5215,1.79,1.7363,1.7363,0,0,0,2.6191-.003,2.7128,2.7128,0,0,0,.5215-1.8222,2.5711,2.5711,0,0,0-.5244-1.7491,1.7388,1.7388,0,0,0-2.6162-.0029A2.6384,2.6384,0,0,0,208.1382,71.0156Z"/><path d="M214.0972,74.127v-8.59h1.0547v8.59Z"/><path d="M216.3647,72.27l1.043-.164a1.4576,1.4576,0,0,0,.4893.9609,1.705,1.705,0,0,0,1.122.334,1.6485,1.6485,0,0,0,1.0782-.2959.8851.8851,0,0,0,.3515-.6943.6405.6405,0,0,0-.31-.5625A4.5733,4.5733,0,0,0,219.06,71.49a9.8326,9.8326,0,0,1-1.6084-.5068,1.5353,1.5353,0,0,1-.9112-1.4268,1.6025,1.6025,0,0,1,.19-.77,1.7069,1.7069,0,0,1,.5185-.5888,2.1746,2.1746,0,0,1,.6709-.3077,3.1931,3.1931,0,0,1,.9111-.1259,3.6027,3.6027,0,0,1,1.2862.2109,1.75,1.75,0,0,1,.8174.5713,2.233,2.233,0,0,1,.3632.9639l-1.0312.1406a1.1281,1.1281,0,0,0-.4072-.75,1.49,1.49,0,0,0-.9522-.27,1.7238,1.7238,0,0,0-1.0371.24.6994.6994,0,0,0-.31.5625.5816.5816,0,0,0,.1289.3691.93.93,0,0,0,.4043.2813q.1581.0585.9316.2695a12.9526,12.9526,0,0,1,1.5615.4893,1.5843,1.5843,0,0,1,.6944.5537,1.5461,1.5461,0,0,1,.2519.9023,1.7707,1.7707,0,0,1-.3076.9932,1.9886,1.9886,0,0,1-.8877.7207,3.2314,3.2314,0,0,1-1.3125.2549,2.9239,2.9239,0,0,1-1.8486-.5039A2.3434,2.3434,0,0,1,216.3647,72.27Z"/><path d="M223.478,76.6523h-.7558a10.574,10.574,0,0,0,1.7519-5.6308,9.6275,9.6275,0,0,0-.2519-2.1856,9.1856,9.1856,0,0,0-.5567-1.6875,19.8031,19.8031,0,0,0-.9433-1.7578h.7558a11.2292,11.2292,0,0,1,1.6289,2.9532,8.0717,8.0717,0,0,1-.1552,5.73A10.7255,10.7255,0,0,1,223.478,76.6523Z"/></g></g><g class="cls-2"><g class="cls-2"><path d="M291.0342,59.7266v-8.59h1.7109l2.0332,6.0821q.2813.85.41,1.2714.1464-.4687.457-1.3769l2.0566-5.9766h1.5293v8.59h-1.0957V52.5371L295.64,59.7266h-1.0253L292.13,52.4141v7.3125Z"/><path d="M305.0088,59.7266v-.9141a2.2777,2.2777,0,0,1-1.9746,1.0547,2.5148,2.5148,0,0,1-1.0283-.211,1.6932,1.6932,0,0,1-.709-.53,1.9878,1.9878,0,0,1-.3252-.7822,5.3527,5.3527,0,0,1-.0645-.9844V53.5039h1.0547v3.4512a6.1458,6.1458,0,0,0,.0645,1.1133,1.1,1.1,0,0,0,.4218.6533,1.3073,1.3073,0,0,0,.7969.2373,1.7358,1.7358,0,0,0,.8906-.2432,1.3516,1.3516,0,0,0,.5889-.6621,3.323,3.323,0,0,0,.1729-1.2158v-3.334h1.0546v6.2227Z"/><path d="M307.5811,59.7266v-8.59h1.0546v8.59Z"/><path d="M312.5732,58.7832l.1524.9316a3.9127,3.9127,0,0,1-.7969.0938,1.805,1.805,0,0,1-.8906-.1816,1.0165,1.0165,0,0,1-.4453-.4776,3.7746,3.7746,0,0,1-.1289-1.2451v-3.58H309.69v-.82h.7735v-1.541l1.0488-.6328v2.1738h1.06v.82h-1.06v3.6387a1.8352,1.8352,0,0,0,.0557.58.4386.4386,0,0,0,.1816.205.7015.7015,0,0,0,.36.0762A3.4377,3.4377,0,0,0,312.5732,58.7832Z"/><path d="M313.61,52.35V51.1367h1.0546V52.35Zm0,7.377V53.5039h1.0546v6.2227Z"/><path d="M316.2705,62.1113V53.5039h.9609v.8086a2.37,2.37,0,0,1,.7676-.7119,2.1093,2.1093,0,0,1,1.0371-.2373,2.4593,2.4593,0,0,1,1.4063.41,2.5176,2.5176,0,0,1,.92,1.1573,4.2255,4.2255,0,0,1,.3106,1.6377,4.16,4.16,0,0,1-.3428,1.72,2.6056,2.6056,0,0,1-2.37,1.5791,1.984,1.984,0,0,1-.9463-.2227,2.1542,2.1542,0,0,1-.6885-.5625v3.0293Zm.9551-5.4609a2.7068,2.7068,0,0,0,.4863,1.7754A1.4913,1.4913,0,0,0,318.89,59a1.5247,1.5247,0,0,0,1.2042-.5947,2.8223,2.8223,0,0,0,.5009-1.8428,2.75,2.75,0,0,0-.4892-1.7813,1.4731,1.4731,0,0,0-1.169-.5917,1.5188,1.5188,0,0,0-1.1924.63A2.8184,2.8184,0,0,0,317.2256,56.65Z"/><path d="M322.9209,59.7266v-8.59h1.0547v8.59Z"/><path d="M329.87,57.7227l1.09.1347a2.6592,2.6592,0,0,1-.9551,1.4824,3.2355,3.2355,0,0,1-3.9463-.3134,3.2856,3.2856,0,0,1-.8-2.3584,3.4382,3.4382,0,0,1,.8086-2.4375,2.7367,2.7367,0,0,1,2.0976-.8672,2.66,2.66,0,0,1,2.0391.85,3.3759,3.3759,0,0,1,.791,2.3906q0,.0938-.0058.2813h-4.6407a2.3917,2.3917,0,0,0,.58,1.57A1.7266,1.7266,0,0,0,328.23,59a1.6139,1.6139,0,0,0,.99-.3047A2.0215,2.0215,0,0,0,329.87,57.7227Zm-3.4629-1.7051h3.4746a2.1081,2.1081,0,0,0-.3984-1.1778,1.6165,1.6165,0,0,0-1.3066-.6093,1.6756,1.6756,0,0,0-1.2217.4863A1.9249,1.9249,0,0,0,326.4072,56.0176Z"/><path d="M331.8623,57.8691l1.043-.164a1.458,1.458,0,0,0,.4892.9609,1.7051,1.7051,0,0,0,1.1221.334,1.648,1.648,0,0,0,1.0781-.2959.8849.8849,0,0,0,.3516-.6943.64.64,0,0,0-.3106-.5625,4.5733,4.5733,0,0,0-1.0781-.3575,9.8359,9.8359,0,0,1-1.6084-.5068,1.535,1.535,0,0,1-.9111-1.4268,1.6035,1.6035,0,0,1,.19-.77,1.7072,1.7072,0,0,1,.5186-.5888,2.1713,2.1713,0,0,1,.6709-.3076,3.19,3.19,0,0,1,.9111-.126,3.6017,3.6017,0,0,1,1.2861.2109,1.7492,1.7492,0,0,1,.8174.5713,2.2317,2.2317,0,0,1,.3633.9639l-1.0313.1406a1.1277,1.1277,0,0,0-.4072-.75,1.4894,1.4894,0,0,0-.9521-.27,1.7238,1.7238,0,0,0-1.0371.24.6994.6994,0,0,0-.3106.5625.5822.5822,0,0,0,.1289.3691.93.93,0,0,0,.4043.2813q.1583.0587.9317.27a12.9526,12.9526,0,0,1,1.5615.4893,1.5834,1.5834,0,0,1,.6943.5537,1.5454,1.5454,0,0,1,.252.9023,1.7712,1.7712,0,0,1-.3076.9932,1.9886,1.9886,0,0,1-.8877.7207,3.2321,3.2321,0,0,1-1.3125.2549,2.9244,2.9244,0,0,1-1.8487-.5039A2.3437,2.3437,0,0,1,331.8623,57.8691Z"/><path d="M341.2256,56.6152a3.2074,3.2074,0,0,1,.9609-2.5605,2.8958,2.8958,0,0,1,1.9571-.6914,2.792,2.792,0,0,1,2.0976.8408,3.1987,3.1987,0,0,1,.8145,2.3232,4.1172,4.1172,0,0,1-.36,1.89,2.55,2.55,0,0,1-1.0488,1.0693,3.0538,3.0538,0,0,1-1.5029.3809,2.7974,2.7974,0,0,1-2.1124-.8379A3.3469,3.3469,0,0,1,341.2256,56.6152Zm1.084,0a2.65,2.65,0,0,0,.5215,1.79,1.7363,1.7363,0,0,0,2.6191-.003,2.7128,2.7128,0,0,0,.5215-1.8222,2.5707,2.5707,0,0,0-.5244-1.749,1.7387,1.7387,0,0,0-2.6162-.003A2.6385,2.6385,0,0,0,342.31,56.6152Z"/><path d="M348.5439,59.7266V54.3242h-.9316v-.82h.9316v-.6621a2.8987,2.8987,0,0,1,.1114-.9316,1.3478,1.3478,0,0,1,.5361-.6651,1.9325,1.9325,0,0,1,1.0752-.2549,5.164,5.164,0,0,1,.9844.1055l-.1582.92a3.5458,3.5458,0,0,0-.6211-.0586.9244.9244,0,0,0-.68.2051,1.1117,1.1117,0,0,0-.1992.7676v.5742h1.2129v.82h-1.2129v5.4024Z"/><path d="M356.29,55.0684a1.9852,1.9852,0,0,1-.9726-.6856,1.7925,1.7925,0,0,1-.3164-1.0664,2.0856,2.0856,0,0,1,.6738-1.5762,2.8359,2.8359,0,0,1,3.6035.0147,2.1143,2.1143,0,0,1,.6856,1.5908,1.7521,1.7521,0,0,1-.3135,1.04,1.9769,1.9769,0,0,1-.9522.6827,2.3083,2.3083,0,0,1,1.2041.832,2.2851,2.2851,0,0,1,.4131,1.3711,2.4673,2.4673,0,0,1-.7793,1.8515,3.174,3.174,0,0,1-4.1015-.0029,2.5039,2.5039,0,0,1-.7793-1.8779,2.27,2.27,0,0,1,.4248-1.4033A2.1269,2.1269,0,0,1,356.29,55.0684Zm-.5507,2.18a1.9081,1.9081,0,0,0,.2138.8731,1.5094,1.5094,0,0,0,.6358.6533,1.8585,1.8585,0,0,0,.9082.2315,1.7016,1.7016,0,0,0,1.248-.4864,1.6644,1.6644,0,0,0,.4922-1.2363,1.692,1.692,0,0,0-.5068-1.26,1.7372,1.7372,0,0,0-1.2686-.498,1.6775,1.6775,0,0,0-1.7226,1.7226Zm.34-3.9668a1.3374,1.3374,0,0,0,.3926.9961,1.39,1.39,0,0,0,1.0195.3868,1.3637,1.3637,0,0,0,.999-.3838,1.2692,1.2692,0,0,0,.39-.9405,1.3154,1.3154,0,0,0-.4014-.9755,1.3665,1.3665,0,0,0-.999-.3955,1.3808,1.3808,0,0,0-1.002.3867A1.2449,1.2449,0,0,0,356.0791,53.2812Z"/><path d="M365.94,59.7266h-.9785v-8.59h1.0547v3.0645a2.0869,2.0869,0,0,1,1.7051-.8379,2.6113,2.6113,0,0,1,1.0869.2314,2.22,2.22,0,0,1,.8437.65,3.1437,3.1437,0,0,1,.5186,1.0108,4.1669,4.1669,0,0,1,.1875,1.2656,3.5546,3.5546,0,0,1-.791,2.4726,2.4741,2.4741,0,0,1-1.8985.8731,1.9817,1.9817,0,0,1-1.7285-.92Zm-.0117-3.1582a3.2294,3.2294,0,0,0,.3047,1.6171,1.5075,1.5075,0,0,0,2.543.2139,2.7294,2.7294,0,0,0,.5039-1.79,2.7771,2.7771,0,0,0-.4834-1.7989,1.4722,1.4722,0,0,0-1.169-.58,1.517,1.517,0,0,0-1.1953.6006A2.6364,2.6364,0,0,0,365.9287,56.5684Z"/><path d="M371.6475,52.35V51.1367h1.0546V52.35Zm0,7.377V53.5039h1.0546v6.2227Z"/><path d="M376.61,58.7832l.1523.9316a3.9127,3.9127,0,0,1-.7969.0938,1.805,1.805,0,0,1-.8906-.1816,1.017,1.017,0,0,1-.4453-.4776,3.7746,3.7746,0,0,1-.1289-1.2451v-3.58h-.7735v-.82h.7735v-1.541L375.55,51.33v2.1738H376.61v.82H375.55v3.6387a1.8384,1.8384,0,0,0,.0557.58.4386.4386,0,0,0,.1816.205.7015.7015,0,0,0,.36.0762A3.44,3.44,0,0,0,376.61,58.7832Z"/><path d="M377.22,57.8691l1.043-.164a1.4576,1.4576,0,0,0,.4893.9609,1.7048,1.7048,0,0,0,1.122.334,1.648,1.648,0,0,0,1.0781-.2959.8849.8849,0,0,0,.3516-.6943.6405.6405,0,0,0-.31-.5625,4.5747,4.5747,0,0,0-1.0782-.3575,9.8393,9.8393,0,0,1-1.6084-.5068,1.5354,1.5354,0,0,1-.9111-1.4268,1.6035,1.6035,0,0,1,.19-.77,1.7072,1.7072,0,0,1,.5186-.5888,2.1724,2.1724,0,0,1,.6709-.3076,3.19,3.19,0,0,1,.9111-.126,3.6027,3.6027,0,0,1,1.2862.2109,1.7489,1.7489,0,0,1,.8173.5713,2.2317,2.2317,0,0,1,.3633.9639l-1.0312.1406a1.1278,1.1278,0,0,0-.4073-.75,1.4892,1.4892,0,0,0-.9521-.27,1.7238,1.7238,0,0,0-1.0371.24.7.7,0,0,0-.3106.5625.5822.5822,0,0,0,.1289.3691.93.93,0,0,0,.4043.2813q.1583.0587.9317.27a12.9526,12.9526,0,0,1,1.5615.4893,1.5834,1.5834,0,0,1,.6943.5537,1.5454,1.5454,0,0,1,.252.9023,1.77,1.77,0,0,1-.3076.9932,1.9886,1.9886,0,0,1-.8877.7207,3.2314,3.2314,0,0,1-1.3125.2549,2.9244,2.9244,0,0,1-1.8487-.5039A2.3437,2.3437,0,0,1,377.22,57.8691Z"/></g><g class="cls-2"><path d="M278.05,76.6523a10.5444,10.5444,0,0,1-1.4766-2.5781,8.091,8.091,0,0,1-.1523-5.73,11.2321,11.2321,0,0,1,1.6289-2.9532h.7559q-.709,1.2188-.9375,1.74a9.501,9.501,0,0,0-.5625,1.6875,9.7987,9.7987,0,0,0-.252,2.2031,10.5733,10.5733,0,0,0,1.752,5.6308Z"/><path d="M280.13,74.127v-8.59h1.7109l2.0332,6.082q.2813.85.41,1.2715.1464-.4687.457-1.3769l2.0567-5.9766h1.5292v8.59h-1.0957V66.9375l-2.496,7.1895H283.71l-2.4844-7.3125V74.127Z"/><path d="M294.1045,74.127v-.9141a2.2777,2.2777,0,0,1-1.9746,1.0547,2.5148,2.5148,0,0,1-1.0283-.211,1.6932,1.6932,0,0,1-.709-.53,1.9876,1.9876,0,0,1-.3252-.7823,5.3507,5.3507,0,0,1-.0645-.9843V67.9043h1.0547v3.4512a6.1473,6.1473,0,0,0,.0645,1.1133,1.1,1.1,0,0,0,.4218.6533,1.3073,1.3073,0,0,0,.7969.2373,1.7358,1.7358,0,0,0,.8906-.2432,1.3516,1.3516,0,0,0,.5889-.6621,3.323,3.323,0,0,0,.1729-1.2158v-3.334h1.0547V74.127Z"/><path d="M296.6768,74.127v-8.59h1.0546v8.59Z"/><path d="M301.6689,73.1836l.1524.9316a3.9127,3.9127,0,0,1-.7969.0938,1.8038,1.8038,0,0,1-.8906-.1817,1.0168,1.0168,0,0,1-.4453-.4775,3.7746,3.7746,0,0,1-.1289-1.2451v-3.58h-.7735v-.82h.7735v-1.541l1.0488-.6328v2.1738h1.06v.82h-1.06v3.6387a1.8384,1.8384,0,0,0,.0557.58.4386.4386,0,0,0,.1816.205.7015.7015,0,0,0,.36.0762A3.4377,3.4377,0,0,0,301.6689,73.1836Z"/><path d="M302.7061,66.75V65.5371h1.0546V66.75Zm0,7.377V67.9043h1.0546V74.127Z"/><path d="M305.3662,76.5117V67.9043h.9609v.8086a2.37,2.37,0,0,1,.7676-.7119,2.1093,2.1093,0,0,1,1.0371-.2373,2.4593,2.4593,0,0,1,1.4063.41,2.5176,2.5176,0,0,1,.92,1.1573,4.2255,4.2255,0,0,1,.3106,1.6377,4.16,4.16,0,0,1-.3428,1.72A2.5846,2.5846,0,0,1,309.43,73.86a2.5585,2.5585,0,0,1-1.374.4072,1.984,1.984,0,0,1-.9463-.2227,2.1542,2.1542,0,0,1-.6885-.5625v3.0293Zm.9551-5.4609a2.7068,2.7068,0,0,0,.4863,1.7754,1.4914,1.4914,0,0,0,1.1778.5742,1.525,1.525,0,0,0,1.2041-.5947,2.8223,2.8223,0,0,0,.5009-1.8428,2.75,2.75,0,0,0-.4892-1.7813,1.4731,1.4731,0,0,0-1.169-.5918,1.5189,1.5189,0,0,0-1.1924.63A2.8182,2.8182,0,0,0,306.3213,71.0508Z"/><path d="M312.0166,74.127v-8.59h1.0547v8.59Z"/><path d="M318.9658,72.123l1.09.1348a2.6592,2.6592,0,0,1-.9551,1.4824,3.2355,3.2355,0,0,1-3.9463-.3134,3.2856,3.2856,0,0,1-.8-2.3584,3.4382,3.4382,0,0,1,.8086-2.4375,2.7367,2.7367,0,0,1,2.0976-.8672,2.66,2.66,0,0,1,2.0391.85,3.3759,3.3759,0,0,1,.791,2.3906q0,.0938-.0058.2813h-4.6407a2.3917,2.3917,0,0,0,.58,1.57,1.7266,1.7266,0,0,0,1.3008.5449,1.6139,1.6139,0,0,0,.99-.3047A2.0213,2.0213,0,0,0,318.9658,72.123Zm-3.4629-1.705h3.4746a2.1074,2.1074,0,0,0-.3984-1.1778,1.6165,1.6165,0,0,0-1.3066-.6093,1.6756,1.6756,0,0,0-1.2217.4863A1.9249,1.9249,0,0,0,315.5029,70.418Z"/><path d="M320.958,72.27l1.043-.164a1.458,1.458,0,0,0,.4892.9609,1.7051,1.7051,0,0,0,1.1221.334,1.648,1.648,0,0,0,1.0781-.2959.8849.8849,0,0,0,.3516-.6943.64.64,0,0,0-.3106-.5625,4.5733,4.5733,0,0,0-1.0781-.3575,9.8393,9.8393,0,0,1-1.6084-.5068,1.535,1.535,0,0,1-.9111-1.4268,1.6035,1.6035,0,0,1,.19-.77,1.7072,1.7072,0,0,1,.5186-.5888,2.1735,2.1735,0,0,1,.6709-.3077,3.1931,3.1931,0,0,1,.9111-.1259,3.6017,3.6017,0,0,1,1.2861.2109,1.7492,1.7492,0,0,1,.8174.5713,2.2317,2.2317,0,0,1,.3633.9639L324.86,69.65a1.1282,1.1282,0,0,0-.4073-.75,1.4894,1.4894,0,0,0-.9521-.27,1.7238,1.7238,0,0,0-1.0371.24.6993.6993,0,0,0-.3106.5625.5822.5822,0,0,0,.1289.3691.93.93,0,0,0,.4043.2813q.1582.0585.9317.2695a12.9526,12.9526,0,0,1,1.5615.4893,1.5834,1.5834,0,0,1,.6943.5537,1.5454,1.5454,0,0,1,.252.9023,1.7715,1.7715,0,0,1-.3076.9932,1.9886,1.9886,0,0,1-.8877.7207,3.2321,3.2321,0,0,1-1.3125.2549,2.9244,2.9244,0,0,1-1.8487-.5039A2.3437,2.3437,0,0,1,320.958,72.27Z"/><path d="M330.3213,71.0156a3.2074,3.2074,0,0,1,.9609-2.5605,2.8953,2.8953,0,0,1,1.9571-.6914,2.7917,2.7917,0,0,1,2.0976.8408,3.1987,3.1987,0,0,1,.8145,2.3232,4.1172,4.1172,0,0,1-.36,1.89,2.55,2.55,0,0,1-1.0488,1.0693,3.0538,3.0538,0,0,1-1.5029.3809,2.797,2.797,0,0,1-2.1123-.8379A3.3465,3.3465,0,0,1,330.3213,71.0156Zm1.084,0a2.65,2.65,0,0,0,.5215,1.79,1.7363,1.7363,0,0,0,2.6191-.003,2.7128,2.7128,0,0,0,.5215-1.8222,2.5711,2.5711,0,0,0-.5244-1.7491,1.7388,1.7388,0,0,0-2.6162-.0029A2.6384,2.6384,0,0,0,331.4053,71.0156Z"/><path d="M337.64,74.127V68.7246h-.9316v-.82h.9316v-.6621a2.9,2.9,0,0,1,.1114-.9317,1.348,1.348,0,0,1,.5361-.665,1.9325,1.9325,0,0,1,1.0752-.2549,5.164,5.164,0,0,1,.9844.1055l-.1582.92a3.5458,3.5458,0,0,0-.6211-.0586.9244.9244,0,0,0-.68.2051,1.1117,1.1117,0,0,0-.1992.7676v.5742h1.2129v.82h-1.2129V74.127Z"/><path d="M347.1436,74.127V72.07H343.417v-.9668l3.92-5.5664h.8613v5.5664h1.16V72.07h-1.16V74.127Zm0-3.0235v-3.873l-2.69,3.873Z"/><path d="M353.6416,72.27l1.043-.164a1.4576,1.4576,0,0,0,.4892.9609,1.7051,1.7051,0,0,0,1.1221.334,1.6482,1.6482,0,0,0,1.0781-.2959.8849.8849,0,0,0,.3516-.6943.64.64,0,0,0-.3106-.5625,4.5733,4.5733,0,0,0-1.0781-.3575,9.8359,9.8359,0,0,1-1.6084-.5068,1.535,1.535,0,0,1-.9111-1.4268,1.6035,1.6035,0,0,1,.19-.77,1.7072,1.7072,0,0,1,.5186-.5888,2.1735,2.1735,0,0,1,.6709-.3077,3.1931,3.1931,0,0,1,.9111-.1259,3.6017,3.6017,0,0,1,1.2861.2109,1.7492,1.7492,0,0,1,.8174.5713,2.2317,2.2317,0,0,1,.3633.9639l-1.0313.1406a1.1277,1.1277,0,0,0-.4072-.75,1.4894,1.4894,0,0,0-.9521-.27,1.7238,1.7238,0,0,0-1.0371.24.6993.6993,0,0,0-.3106.5625.5822.5822,0,0,0,.1289.3691.93.93,0,0,0,.4043.2813q.1583.0585.9317.2695a12.9526,12.9526,0,0,1,1.5615.4893,1.584,1.584,0,0,1,.6943.5537,1.5454,1.5454,0,0,1,.252.9023,1.7715,1.7715,0,0,1-.3076.9932,1.9886,1.9886,0,0,1-.8877.7207,3.2321,3.2321,0,0,1-1.3125.2549,2.9244,2.9244,0,0,1-1.8487-.5039A2.3437,2.3437,0,0,1,353.6416,72.27Z"/><path d="M360.0166,76.5234l-.1172-.99a2.3512,2.3512,0,0,0,.6035.0938,1.1582,1.1582,0,0,0,.5625-.1172.9574.9574,0,0,0,.3457-.3282,5.1624,5.1624,0,0,0,.3223-.7851q.0292-.0879.0937-.2578l-2.3613-6.2344h1.1367l1.295,3.6035q.2519.6855.4511,1.4414a14.2139,14.2139,0,0,1,.4336-1.418l1.33-3.6269h1.0547L362.8,74.2324a12.4228,12.4228,0,0,1-.5918,1.4121,2.0825,2.0825,0,0,1-.6445.7647,1.5226,1.5226,0,0,1-.8672.2431A2.1107,2.1107,0,0,1,360.0166,76.5234Z"/><path d="M366.0635,74.127V67.9043h.9433v.873a2.2182,2.2182,0,0,1,.7793-.7353,2.1893,2.1893,0,0,1,1.1075-.2783,2.0468,2.0468,0,0,1,1.1337.2871,1.5364,1.5364,0,0,1,.6241.8027,2.2341,2.2341,0,0,1,1.9218-1.09,1.8945,1.8945,0,0,1,1.4239.5127,2.1911,2.1911,0,0,1,.498,1.5791V74.127h-1.0488v-3.92a2.888,2.888,0,0,0-.1025-.9111.8825.8825,0,0,0-.3721-.4482,1.1613,1.1613,0,0,0-.6328-.17,1.4726,1.4726,0,0,0-1.09.4366,1.9227,1.9227,0,0,0-.4336,1.3974V74.127h-1.0547V70.084a1.7787,1.7787,0,0,0-.2578-1.0547.9761.9761,0,0,0-.8437-.3516,1.5334,1.5334,0,0,0-.8233.2344,1.33,1.33,0,0,0-.5478.6856,3.8577,3.8577,0,0,0-.17,1.3007V74.127Z"/><path d="M377.0322,74.127h-.9785v-8.59h1.0547v3.0645a2.0869,2.0869,0,0,1,1.7051-.8379,2.6113,2.6113,0,0,1,1.0869.2314,2.22,2.22,0,0,1,.8437.65,3.1442,3.1442,0,0,1,.5186,1.0107,4.1681,4.1681,0,0,1,.1875,1.2657,3.5546,3.5546,0,0,1-.791,2.4726,2.4741,2.4741,0,0,1-1.8985.8731,1.9817,1.9817,0,0,1-1.7285-.92Zm-.0117-3.1582a3.23,3.23,0,0,0,.3047,1.6171,1.5075,1.5075,0,0,0,2.543.2139,2.7294,2.7294,0,0,0,.5039-1.79,2.7771,2.7771,0,0,0-.4834-1.7989,1.4722,1.4722,0,0,0-1.169-.58,1.5172,1.5172,0,0,0-1.1953.6A2.6369,2.6369,0,0,0,377.0205,70.9688Z"/><path d="M382.3408,71.0156a3.2071,3.2071,0,0,1,.961-2.5605,2.8951,2.8951,0,0,1,1.957-.6914,2.7914,2.7914,0,0,1,2.0976.8408,3.1987,3.1987,0,0,1,.8145,2.3232,4.1159,4.1159,0,0,1-.36,1.89,2.55,2.55,0,0,1-1.0488,1.0693,3.0535,3.0535,0,0,1-1.5029.3809,2.797,2.797,0,0,1-2.1123-.8379A3.3469,3.3469,0,0,1,382.3408,71.0156Zm1.084,0a2.65,2.65,0,0,0,.5215,1.79,1.7363,1.7363,0,0,0,2.6191-.003,2.7128,2.7128,0,0,0,.5215-1.8222,2.5711,2.5711,0,0,0-.5244-1.7491,1.7388,1.7388,0,0,0-2.6162-.0029A2.6384,2.6384,0,0,0,383.4248,71.0156Z"/><path d="M389.3838,74.127v-8.59h1.0547v8.59Z"/><path d="M391.6514,72.27l1.0429-.164a1.4576,1.4576,0,0,0,.4893.9609,1.7051,1.7051,0,0,0,1.1221.334,1.6484,1.6484,0,0,0,1.0781-.2959.8849.8849,0,0,0,.3516-.6943.6406.6406,0,0,0-.3106-.5625,4.5733,4.5733,0,0,0-1.0781-.3575,9.8326,9.8326,0,0,1-1.6084-.5068,1.5353,1.5353,0,0,1-.9112-1.4268,1.6025,1.6025,0,0,1,.1905-.77,1.7069,1.7069,0,0,1,.5185-.5888,2.1746,2.1746,0,0,1,.6709-.3077,3.1933,3.1933,0,0,1,.9112-.1259,3.6021,3.6021,0,0,1,1.2861.2109,1.75,1.75,0,0,1,.8174.5713,2.2317,2.2317,0,0,1,.3633.9639l-1.0313.1406a1.1281,1.1281,0,0,0-.4072-.75,1.49,1.49,0,0,0-.9522-.27,1.7243,1.7243,0,0,0-1.0371.24.6994.6994,0,0,0-.31.5625.5816.5816,0,0,0,.1289.3691.93.93,0,0,0,.4043.2813q.1583.0585.9316.2695a12.9526,12.9526,0,0,1,1.5615.4893,1.5837,1.5837,0,0,1,.6944.5537,1.5454,1.5454,0,0,1,.2519.9023,1.7707,1.7707,0,0,1-.3076.9932,1.9886,1.9886,0,0,1-.8877.7207,3.2314,3.2314,0,0,1-1.3125.2549,2.9239,2.9239,0,0,1-1.8486-.5039A2.3437,2.3437,0,0,1,391.6514,72.27Z"/><path d="M398.7646,76.6523h-.7558a10.5732,10.5732,0,0,0,1.7519-5.6308,9.6218,9.6218,0,0,0-.2519-2.1856,9.1856,9.1856,0,0,0-.5567-1.6875,19.7757,19.7757,0,0,0-.9433-1.7578h.7558a11.2326,11.2326,0,0,1,1.629,2.9532,8.0725,8.0725,0,0,1-.1553,5.73A10.7255,10.7255,0,0,1,398.7646,76.6523Z"/></g></g><g class="cls-2"><g class="cls-2"><path d="M444.1436,59.7266V57.67H440.417v-.9668l3.92-5.5664h.8613v5.5664h1.16V57.67h-1.16v2.0567Zm0-3.0235V52.83l-2.69,3.873Z"/><path d="M447.4365,55.49a7.8594,7.8594,0,0,1,.3135-2.4521,3.05,3.05,0,0,1,.9316-1.4326,2.3817,2.3817,0,0,1,1.5557-.5039,2.5377,2.5377,0,0,1,1.2129.2783,2.3172,2.3172,0,0,1,.8613.8027,4.3051,4.3051,0,0,1,.5332,1.2774,8.4861,8.4861,0,0,1,.1934,2.03,7.8809,7.8809,0,0,1-.3106,2.4405,3.0509,3.0509,0,0,1-.9287,1.4355,2.3816,2.3816,0,0,1-1.5615.5068,2.3571,2.3571,0,0,1-1.9512-.8906A5.6606,5.6606,0,0,1,447.4365,55.49Zm1.084,0a5.3861,5.3861,0,0,0,.4951,2.8155,1.4144,1.4144,0,0,0,2.4434-.003,5.3873,5.3873,0,0,0,.4951-2.8125,5.384,5.384,0,0,0-.4951-2.8183,1.4694,1.4694,0,0,0-1.2334-.6973,1.3517,1.3517,0,0,0-1.16.6152A5.4478,5.4478,0,0,0,448.5205,55.49Z"/><path d="M454.4033,59.7266V53.5039h.9434v.8731a2.2176,2.2176,0,0,1,.7793-.7354,2.19,2.19,0,0,1,1.1074-.2783,2.0471,2.0471,0,0,1,1.1338.2871,1.5368,1.5368,0,0,1,.624.8027,2.2341,2.2341,0,0,1,1.9219-1.09,1.8941,1.8941,0,0,1,1.4238.5127,2.1912,2.1912,0,0,1,.4981,1.5791v4.2715h-1.0489v-3.92a2.8855,2.8855,0,0,0-.1025-.9111.8825.8825,0,0,0-.3721-.4482,1.1613,1.1613,0,0,0-.6328-.17,1.4726,1.4726,0,0,0-1.09.4366,1.9223,1.9223,0,0,0-.4336,1.3974v3.6153h-1.0547v-4.043a1.7794,1.7794,0,0,0-.2578-1.0547.9764.9764,0,0,0-.8438-.3516,1.5328,1.5328,0,0,0-.8232.2344,1.33,1.33,0,0,0-.5479.6856,3.8577,3.8577,0,0,0-.17,1.3007v3.2286Z"/><path d="M463.9775,57.8691l1.043-.164a1.4576,1.4576,0,0,0,.4893.9609,1.7048,1.7048,0,0,0,1.122.334,1.6485,1.6485,0,0,0,1.0782-.2959.8851.8851,0,0,0,.3515-.6943.6405.6405,0,0,0-.3105-.5625,4.5751,4.5751,0,0,0-1.0781-.3575,9.8326,9.8326,0,0,1-1.6084-.5068,1.5353,1.5353,0,0,1-.9112-1.4268,1.6025,1.6025,0,0,1,.19-.77,1.7069,1.7069,0,0,1,.5185-.5888,2.1724,2.1724,0,0,1,.6709-.3076,3.19,3.19,0,0,1,.9111-.126,3.6027,3.6027,0,0,1,1.2862.2109,1.75,1.75,0,0,1,.8174.5713,2.233,2.233,0,0,1,.3632.9639L467.88,55.25a1.1281,1.1281,0,0,0-.4072-.75,1.49,1.49,0,0,0-.9522-.27,1.7238,1.7238,0,0,0-1.0371.24.7.7,0,0,0-.31.5625.5816.5816,0,0,0,.1289.3691.93.93,0,0,0,.4043.2813q.1581.0587.9316.27a12.9526,12.9526,0,0,1,1.5615.4893,1.5843,1.5843,0,0,1,.6944.5537,1.5461,1.5461,0,0,1,.2519.9023,1.77,1.77,0,0,1-.3076.9932,1.9886,1.9886,0,0,1-.8877.7207,3.2314,3.2314,0,0,1-1.3125.2549,2.9239,2.9239,0,0,1-1.8486-.5039A2.3434,2.3434,0,0,1,463.9775,57.8691Z"/></g><g class="cls-2"><path d="M421.3711,76.6523a10.5444,10.5444,0,0,1-1.4766-2.5781,8.091,8.091,0,0,1-.1523-5.73,11.2321,11.2321,0,0,1,1.6289-2.9532h.7559q-.7091,1.2188-.9375,1.74a9.501,9.501,0,0,0-.5625,1.6875,9.7987,9.7987,0,0,0-.252,2.2031,10.5733,10.5733,0,0,0,1.752,5.6308Z"/><path d="M427.0312,74.127h-1.0546V67.4062a5.452,5.452,0,0,1-.9991.7266,7.0812,7.0812,0,0,1-1.11.5449v-1.02a6.37,6.37,0,0,0,1.5469-1.0078,3.9651,3.9651,0,0,0,.9375-1.1484h.68Z"/><path d="M429.8906,72.1406l1.0137-.0937a1.7612,1.7612,0,0,0,.4922,1.0371,1.3517,1.3517,0,0,0,.9316.3222,1.6091,1.6091,0,0,0,.8526-.2226,1.82,1.82,0,0,0,.6005-.5947,3.4926,3.4926,0,0,0,.3926-1.0049,5.2938,5.2938,0,0,0,.1582-1.2891q0-.07-.0058-.2109a2.4172,2.4172,0,0,1-.8643.8174,2.3483,2.3483,0,0,1-1.1865.3134,2.4,2.4,0,0,1-1.8047-.7734,2.83,2.83,0,0,1-.7383-2.0391,2.8985,2.8985,0,0,1,.7705-2.1035,2.5745,2.5745,0,0,1,1.9307-.7968,2.7538,2.7538,0,0,1,1.5322.4511,2.8183,2.8183,0,0,1,1.0547,1.2862,6.3343,6.3343,0,0,1,.36,2.4169,7.8224,7.8224,0,0,1-.3575,2.6221,3.0709,3.0709,0,0,1-1.0634,1.4854,2.7531,2.7531,0,0,1-1.6553.51,2.2689,2.2689,0,0,1-2.4141-2.1328Zm4.3184-3.791a2.0648,2.0648,0,0,0-.4834-1.4414,1.5153,1.5153,0,0,0-1.1631-.5332,1.6055,1.6055,0,0,0-1.2246.5742,2.1281,2.1281,0,0,0-.5215,1.4883,1.8384,1.8384,0,0,0,.4951,1.333,1.6311,1.6311,0,0,0,1.2217.5127,1.5636,1.5636,0,0,0,1.2041-.5127A2.0192,2.0192,0,0,0,434.209,68.35Z"/><path d="M441.9492,73.1133V74.127h-5.6777a1.8669,1.8669,0,0,1,.123-.7325,3.8754,3.8754,0,0,1,.6944-1.1425,10.8727,10.8727,0,0,1,1.38-1.3008,11.7006,11.7006,0,0,0,1.8925-1.8194,2.1778,2.1778,0,0,0,.4922-1.2685,1.4094,1.4094,0,0,0-.4482-1.0576,1.6171,1.6171,0,0,0-1.169-.4307,1.647,1.647,0,0,0-1.2187.457,1.7294,1.7294,0,0,0-.4629,1.2657l-1.084-.1114a2.6679,2.6679,0,0,1,.8379-1.8486,2.8584,2.8584,0,0,1,1.9512-.6357,2.7228,2.7228,0,0,1,1.957.6855,2.25,2.25,0,0,1,.7207,1.6992,2.5774,2.5774,0,0,1-.2109,1.0137,3.938,3.938,0,0,1-.7,1.0488,17.0594,17.0594,0,0,1-1.626,1.5117q-.9492.7969-1.2188,1.0811a3.4714,3.4714,0,0,0-.4453.5713Z"/><path d="M446.4551,71.3672l1.0722-.0938a2.3689,2.3689,0,0,0,.3545,1.0577,1.9361,1.9361,0,0,0,.8643.6679,3.2734,3.2734,0,0,0,1.3184.2549,3.1571,3.1571,0,0,0,1.1484-.1934,1.593,1.593,0,0,0,.7412-.53,1.23,1.23,0,0,0,.2432-.7354,1.1179,1.1179,0,0,0-.2344-.706,1.7372,1.7372,0,0,0-.7734-.5069,15.1266,15.1266,0,0,0-1.5293-.4189,7.82,7.82,0,0,1-1.6582-.5361,2.3246,2.3246,0,0,1-.917-.8,1.96,1.96,0,0,1-.3018-1.0693,2.1828,2.1828,0,0,1,.3691-1.2158,2.2854,2.2854,0,0,1,1.0782-.8584,4.09,4.09,0,0,1,1.5761-.293,4.3071,4.3071,0,0,1,1.6846.3076,2.43,2.43,0,0,1,1.1221.9053,2.601,2.601,0,0,1,.4219,1.3535l-1.09.0821a1.7584,1.7584,0,0,0-.5947-1.2305,2.3146,2.3146,0,0,0-1.4971-.416,2.4026,2.4026,0,0,0-1.5029.3779,1.1334,1.1334,0,0,0-.4717.9111.9769.9769,0,0,0,.334.7618,4.5256,4.5256,0,0,0,1.7139.6123,11.3323,11.3323,0,0,1,1.9013.5478,2.604,2.604,0,0,1,1.1074.876,2.1338,2.1338,0,0,1,.3575,1.2217,2.3368,2.3368,0,0,1-.3926,1.292,2.5847,2.5847,0,0,1-1.1279.9433,3.93,3.93,0,0,1-1.6553.3369,4.9417,4.9417,0,0,1-1.9541-.34,2.7366,2.7366,0,0,1-1.2363-1.0225A2.8978,2.8978,0,0,1,446.4551,71.3672Z"/><path d="M454.6641,76.5234l-.1172-.99a2.35,2.35,0,0,0,.6035.0938,1.1582,1.1582,0,0,0,.5625-.1172.9582.9582,0,0,0,.3457-.3282,5.1735,5.1735,0,0,0,.3223-.7851q.0292-.0879.0937-.2578l-2.3613-6.2344H455.25l1.2949,3.6035q.252.6855.4512,1.4414a14.1877,14.1877,0,0,1,.4336-1.418l1.33-3.6269h1.0547l-2.3672,6.3281a12.4228,12.4228,0,0,1-.5918,1.4121,2.0827,2.0827,0,0,1-.6446.7647,1.522,1.522,0,0,1-.8671.2431A2.11,2.11,0,0,1,454.6641,76.5234Z"/><path d="M460.7109,74.127V67.9043h.9434v.873a2.2182,2.2182,0,0,1,.7793-.7353,2.1889,2.1889,0,0,1,1.1074-.2783,2.0469,2.0469,0,0,1,1.1338.2871,1.5368,1.5368,0,0,1,.624.8027,2.2341,2.2341,0,0,1,1.9219-1.09,1.8941,1.8941,0,0,1,1.4238.5127,2.1907,2.1907,0,0,1,.4981,1.5791V74.127h-1.0488v-3.92a2.8844,2.8844,0,0,0-.1026-.9111.882.882,0,0,0-.3721-.4482,1.161,1.161,0,0,0-.6328-.17,1.4722,1.4722,0,0,0-1.09.4366,1.9223,1.9223,0,0,0-.4336,1.3974V74.127h-1.0547V70.084a1.7787,1.7787,0,0,0-.2578-1.0547.9763.9763,0,0,0-.8438-.3516,1.5333,1.5333,0,0,0-.8232.2344,1.33,1.33,0,0,0-.5479.6856,3.86,3.86,0,0,0-.17,1.3007V74.127Z"/><path d="M471.68,74.127h-.9785v-8.59h1.0547v3.0645a2.0868,2.0868,0,0,1,1.705-.8379,2.6114,2.6114,0,0,1,1.087.2314,2.22,2.22,0,0,1,.8437.65,3.1442,3.1442,0,0,1,.5186,1.0107,4.1681,4.1681,0,0,1,.1875,1.2657,3.5542,3.5542,0,0,1-.7911,2.4726,2.4738,2.4738,0,0,1-1.8984.8731,1.9816,1.9816,0,0,1-1.7285-.92Zm-.0117-3.1582a3.2286,3.2286,0,0,0,.3047,1.6171,1.5074,1.5074,0,0,0,2.5429.2139,2.7288,2.7288,0,0,0,.5039-1.79,2.7765,2.7765,0,0,0-.4834-1.7989,1.472,1.472,0,0,0-1.1689-.58,1.5169,1.5169,0,0,0-1.1953.6A2.6363,2.6363,0,0,0,471.668,70.9688Z"/><path d="M476.9883,71.0156a3.2074,3.2074,0,0,1,.9609-2.5605,2.8953,2.8953,0,0,1,1.957-.6914,2.7917,2.7917,0,0,1,2.0977.8408,3.1987,3.1987,0,0,1,.8145,2.3232,4.1172,4.1172,0,0,1-.36,1.89,2.55,2.55,0,0,1-1.0488,1.0693,3.0539,3.0539,0,0,1-1.503.3809,2.7973,2.7973,0,0,1-2.1123-.8379A3.3469,3.3469,0,0,1,476.9883,71.0156Zm1.084,0a2.65,2.65,0,0,0,.5215,1.79,1.7363,1.7363,0,0,0,2.6191-.003,2.7133,2.7133,0,0,0,.5215-1.8222,2.5711,2.5711,0,0,0-.5244-1.7491,1.7388,1.7388,0,0,0-2.6162-.0029A2.6384,2.6384,0,0,0,478.0723,71.0156Z"/><path d="M484.0312,74.127v-8.59h1.0547v8.59Z"/><path d="M486.2988,72.27l1.043-.164a1.4576,1.4576,0,0,0,.4893.9609,1.7048,1.7048,0,0,0,1.122.334,1.648,1.648,0,0,0,1.0781-.2959.8849.8849,0,0,0,.3516-.6943.6405.6405,0,0,0-.31-.5625,4.5747,4.5747,0,0,0-1.0782-.3575,9.8393,9.8393,0,0,1-1.6084-.5068,1.5354,1.5354,0,0,1-.9111-1.4268,1.6035,1.6035,0,0,1,.19-.77,1.7072,1.7072,0,0,1,.5186-.5888,2.1746,2.1746,0,0,1,.6709-.3077,3.1931,3.1931,0,0,1,.9111-.1259,3.6027,3.6027,0,0,1,1.2862.2109,1.7489,1.7489,0,0,1,.8173.5713,2.2317,2.2317,0,0,1,.3633.9639l-1.0312.1406a1.1278,1.1278,0,0,0-.4073-.75,1.4892,1.4892,0,0,0-.9521-.27,1.7238,1.7238,0,0,0-1.0371.24.7.7,0,0,0-.3106.5625.5822.5822,0,0,0,.1289.3691.9308.9308,0,0,0,.4043.2813q.1582.0585.9317.2695a12.9526,12.9526,0,0,1,1.5615.4893,1.5834,1.5834,0,0,1,.6943.5537,1.5454,1.5454,0,0,1,.252.9023,1.7707,1.7707,0,0,1-.3076.9932,1.9886,1.9886,0,0,1-.8877.7207,3.2314,3.2314,0,0,1-1.3125.2549,2.9239,2.9239,0,0,1-1.8486-.5039A2.3434,2.3434,0,0,1,486.2988,72.27Z"/><path d="M493.4121,76.6523h-.7559a10.5733,10.5733,0,0,0,1.752-5.6308,9.622,9.622,0,0,0-.252-2.1856,9.1853,9.1853,0,0,0-.5566-1.6875,19.7844,19.7844,0,0,0-.9434-1.7578h.7559a11.2292,11.2292,0,0,1,1.6289,2.9532,8.0711,8.0711,0,0,1-.1553,5.73A10.7286,10.7286,0,0,1,493.4121,76.6523Z"/></g></g></svg>